M48
; DRILL file {KiCad 7.0.5} date Fri Nov 17 20:36:08 2023
; FORMAT={3:3/ absolute / metric / suppress leading zeros}
; #@! TF.CreationDate,2023-11-17T20:36:08+09:00
; #@! TF.GenerationSoftware,Kicad,Pcbnew,7.0.5
; #@! TF.FileFunction,MixedPlating,1,2
FMAT,2
METRIC,TZ
; #@! TA.AperFunction,Plated,PTH,ViaDrill
T1C0.300
; #@! TA.AperFunction,Plated,PTH,ComponentDrill
T2C0.600
; #@! TA.AperFunction,Plated,PTH,ComponentDrill
T3C0.800
; #@! TA.AperFunction,Plated,PTH,ComponentDrill
T4C1.000
; #@! TA.AperFunction,NonPlated,NPTH,ComponentDrill
T5C0.650
%
G90
G05
T1
X2000Y53000
X2500Y2500
X8700Y41800
X8700Y19700
X9700Y41800
X10700Y41800
X11700Y41800
X11900Y13300
X12600Y32600
X12700Y22500
X20900Y13300
X24000Y47800
X24700Y47100
X25400Y46400
X26100Y45700
X30000Y13251
X33200Y28100
X35500Y22400
X39000Y13300
X39700Y38300
X41100Y41500
X41800Y42200
X42500Y42900
X43200Y43600
X43900Y22000
X45000Y22000
X45700Y41800
X46000Y22000
X46400Y15800
X46700Y39700
X46700Y38100
X46780Y45400
X47000Y22000
X47300Y13300
X47500Y40500
X47500Y38900
X47500Y37300
X48000Y22000
X48500Y13300
X49000Y22000
X49500Y42900
X49500Y28500
X50000Y22000
X50000Y2500
X50300Y15800
X50500Y28500
X51000Y22000
X51400Y40100
X51400Y32900
X51580Y45400
X53400Y43500
X53800Y27100
X54200Y44200
X55000Y43500
X55800Y44200
X56800Y13300
X57200Y48200
X57400Y43500
X58600Y40100
X58600Y32900
X59900Y43500
X61300Y44700
X62800Y48200
X63700Y42400
X63700Y41400
X63700Y40400
X63700Y39400
X63700Y38400
X63700Y34800
X65000Y30500
X65500Y40300
X65900Y13300
X66000Y19000
X67400Y43600
X67400Y40300
X69400Y33400
X70200Y34400
X71000Y36400
X71800Y35400
X72300Y41800
X74300Y30000
X78300Y21800
X78400Y31300
X96500Y52500
X96500Y2500
T3
X15420Y32500
X15420Y22500
X17960Y32500
X17960Y22500
X20500Y32500
X20500Y22500
X23040Y32500
X23040Y22500
X25580Y32500
X25580Y22500
X28120Y32500
X28120Y22500
X30660Y32500
X30660Y22500
X33200Y32500
X33200Y22500
T4
X76225Y48200
X78765Y48200
X81305Y48200
X83845Y48200
X86385Y48200
X88925Y48200
T5
X46310Y48750
X52090Y48750
T2
G00X44880Y52100
M15
G01X44880Y52700
M16
G05
G00X44880Y47670
M15
G01X44880Y48770
M16
G05
G00X53520Y52100
M15
G01X53520Y52700
M16
G05
G00X53520Y47670
M15
G01X53520Y48770
M16
G05
T0
M30
