G04 #@! TF.GenerationSoftware,KiCad,Pcbnew,7.0.5*
G04 #@! TF.CreationDate,2024-02-19T20:07:43+09:00*
G04 #@! TF.ProjectId,Board_v4,426f6172-645f-4763-942e-6b696361645f,0.3.0*
G04 #@! TF.SameCoordinates,PX2faf080PY6422c40*
G04 #@! TF.FileFunction,Paste,Top*
G04 #@! TF.FilePolarity,Positive*
%FSLAX46Y46*%
G04 Gerber Fmt 4.6, Leading zero omitted, Abs format (unit mm)*
G04 Created by KiCad (PCBNEW 7.0.5) date 2024-02-19 20:07:43*
%MOMM*%
%LPD*%
G01*
G04 APERTURE LIST*
G04 Aperture macros list*
%AMRoundRect*
0 Rectangle with rounded corners*
0 $1 Rounding radius*
0 $2 $3 $4 $5 $6 $7 $8 $9 X,Y pos of 4 corners*
0 Add a 4 corners polygon primitive as box body*
4,1,4,$2,$3,$4,$5,$6,$7,$8,$9,$2,$3,0*
0 Add four circle primitives for the rounded corners*
1,1,$1+$1,$2,$3*
1,1,$1+$1,$4,$5*
1,1,$1+$1,$6,$7*
1,1,$1+$1,$8,$9*
0 Add four rect primitives between the rounded corners*
20,1,$1+$1,$2,$3,$4,$5,0*
20,1,$1+$1,$4,$5,$6,$7,0*
20,1,$1+$1,$6,$7,$8,$9,0*
20,1,$1+$1,$8,$9,$2,$3,0*%
G04 Aperture macros list end*
%ADD10RoundRect,0.237500X-0.287500X-0.237500X0.287500X-0.237500X0.287500X0.237500X-0.287500X0.237500X0*%
%ADD11R,0.500000X0.800000*%
%ADD12R,0.400000X0.800000*%
%ADD13R,1.800000X1.200000*%
%ADD14RoundRect,0.237500X0.287500X0.237500X-0.287500X0.237500X-0.287500X-0.237500X0.287500X-0.237500X0*%
%ADD15RoundRect,0.237500X-0.250000X-0.237500X0.250000X-0.237500X0.250000X0.237500X-0.250000X0.237500X0*%
%ADD16RoundRect,0.237500X-0.300000X-0.237500X0.300000X-0.237500X0.300000X0.237500X-0.300000X0.237500X0*%
%ADD17R,0.600000X1.450000*%
%ADD18R,0.300000X1.450000*%
%ADD19RoundRect,0.237500X0.237500X-0.300000X0.237500X0.300000X-0.237500X0.300000X-0.237500X-0.300000X0*%
%ADD20RoundRect,0.237500X-0.237500X0.250000X-0.237500X-0.250000X0.237500X-0.250000X0.237500X0.250000X0*%
%ADD21RoundRect,0.150000X-0.150000X0.825000X-0.150000X-0.825000X0.150000X-0.825000X0.150000X0.825000X0*%
%ADD22R,1.000000X1.800000*%
%ADD23R,1.800000X1.000000*%
%ADD24R,1.500000X0.550000*%
%ADD25R,0.550000X1.500000*%
%ADD26RoundRect,0.237500X0.250000X0.237500X-0.250000X0.237500X-0.250000X-0.237500X0.250000X-0.237500X0*%
G04 APERTURE END LIST*
D10*
X24500000Y17000000D03*
X26250000Y17000000D03*
D11*
X69400000Y37600000D03*
D12*
X70200000Y37600000D03*
X71000000Y37600000D03*
D11*
X71800000Y37600000D03*
X71800000Y39400000D03*
D12*
X71000000Y39400000D03*
X70200000Y39400000D03*
D11*
X69400000Y39400000D03*
D13*
X5100000Y5500000D03*
X9700000Y5500000D03*
X5100000Y8000000D03*
X9700000Y8000000D03*
X5100000Y10500000D03*
X9700000Y10500000D03*
X23100000Y5500000D03*
X27700000Y5500000D03*
X23100000Y8000000D03*
X27700000Y8000000D03*
X23100000Y10500000D03*
X27700000Y10500000D03*
X32100000Y5500000D03*
X36700000Y5500000D03*
X32100000Y8000000D03*
X36700000Y8000000D03*
X32100000Y10500000D03*
X36700000Y10500000D03*
X41100000Y5500000D03*
X45700000Y5500000D03*
X41100000Y8000000D03*
X45700000Y8000000D03*
X41100000Y10500000D03*
X45700000Y10500000D03*
D11*
X17600000Y38650000D03*
D12*
X18400000Y38650000D03*
X19200000Y38650000D03*
D11*
X20000000Y38650000D03*
X20000000Y40450000D03*
D12*
X19200000Y40450000D03*
X18400000Y40450000D03*
D11*
X17600000Y40450000D03*
D10*
X42500000Y17000000D03*
X44250000Y17000000D03*
D14*
X65050000Y51100000D03*
X63300000Y51100000D03*
D15*
X69062500Y51100000D03*
X70887500Y51100000D03*
D16*
X57800000Y46300000D03*
X59525000Y46300000D03*
D17*
X52450000Y47305000D03*
X51650000Y47305000D03*
D18*
X50450000Y47305000D03*
X49450000Y47305000D03*
X48950000Y47305000D03*
X47950000Y47305000D03*
D17*
X46750000Y47305000D03*
X45950000Y47305000D03*
X45950000Y47305000D03*
X46750000Y47305000D03*
D18*
X47450000Y47305000D03*
X48450000Y47305000D03*
X49950000Y47305000D03*
X50950000Y47305000D03*
D17*
X51650000Y47305000D03*
X52450000Y47305000D03*
D19*
X65000000Y36275000D03*
X65000000Y38000000D03*
D20*
X65000000Y33412500D03*
X65000000Y31587500D03*
D13*
X14100000Y5500000D03*
X18700000Y5500000D03*
X14100000Y8000000D03*
X18700000Y8000000D03*
X14100000Y10500000D03*
X18700000Y10500000D03*
D21*
X36245000Y43725000D03*
X34975000Y43725000D03*
X33705000Y43725000D03*
X32435000Y43725000D03*
X31165000Y43725000D03*
X29895000Y43725000D03*
X28625000Y43725000D03*
X27355000Y43725000D03*
X27355000Y38775000D03*
X28625000Y38775000D03*
X29895000Y38775000D03*
X31165000Y38775000D03*
X32435000Y38775000D03*
X33705000Y38775000D03*
X34975000Y38775000D03*
X36245000Y38775000D03*
D22*
X68150000Y22750000D03*
X68150000Y30950000D03*
X72650000Y22750000D03*
X72650000Y30950000D03*
D23*
X77300000Y18100000D03*
X85500000Y18100000D03*
X77300000Y13600000D03*
X85500000Y13600000D03*
D13*
X59100000Y5500000D03*
X63700000Y5500000D03*
X59100000Y8000000D03*
X63700000Y8000000D03*
X59100000Y10500000D03*
X63700000Y10500000D03*
D11*
X9000000Y38650000D03*
D12*
X9800000Y38650000D03*
X10600000Y38650000D03*
D11*
X11400000Y38650000D03*
X11400000Y40450000D03*
D12*
X10600000Y40450000D03*
X9800000Y40450000D03*
D11*
X9000000Y40450000D03*
D10*
X15500000Y17000000D03*
X17250000Y17000000D03*
D23*
X77300000Y40100000D03*
X85500000Y40100000D03*
X77300000Y35600000D03*
X85500000Y35600000D03*
D24*
X49300000Y40500000D03*
X49300000Y39700000D03*
X49300000Y38900000D03*
X49300000Y38100000D03*
X49300000Y37300000D03*
X49300000Y36500000D03*
X49300000Y35700000D03*
X49300000Y34900000D03*
X49300000Y34100000D03*
X49300000Y33300000D03*
X49300000Y32500000D03*
D25*
X51000000Y30800000D03*
X51800000Y30800000D03*
X52600000Y30800000D03*
X53400000Y30800000D03*
X54200000Y30800000D03*
X55000000Y30800000D03*
X55800000Y30800000D03*
X56600000Y30800000D03*
X57400000Y30800000D03*
X58200000Y30800000D03*
X59000000Y30800000D03*
D24*
X60700000Y32500000D03*
X60700000Y33300000D03*
X60700000Y34100000D03*
X60700000Y34900000D03*
X60700000Y35700000D03*
X60700000Y36500000D03*
X60700000Y37300000D03*
X60700000Y38100000D03*
X60700000Y38900000D03*
X60700000Y39700000D03*
X60700000Y40500000D03*
D25*
X59000000Y42200000D03*
X58200000Y42200000D03*
X57400000Y42200000D03*
X56600000Y42200000D03*
X55800000Y42200000D03*
X55000000Y42200000D03*
X54200000Y42200000D03*
X53400000Y42200000D03*
X52600000Y42200000D03*
X51800000Y42200000D03*
X51000000Y42200000D03*
D11*
X60250000Y22350000D03*
D12*
X61050000Y22350000D03*
X61850000Y22350000D03*
D11*
X62650000Y22350000D03*
X62650000Y24150000D03*
D12*
X61850000Y24150000D03*
X61050000Y24150000D03*
D11*
X60250000Y24150000D03*
D10*
X60625000Y17000000D03*
X62375000Y17000000D03*
X6500000Y17000000D03*
X8250000Y17000000D03*
D13*
X68100000Y5500000D03*
X72700000Y5500000D03*
X68100000Y8000000D03*
X72700000Y8000000D03*
X68100000Y10500000D03*
X72700000Y10500000D03*
D19*
X44000000Y36637500D03*
X44000000Y38362500D03*
D15*
X69062500Y46300000D03*
X70887500Y46300000D03*
D13*
X50100000Y5500000D03*
X54700000Y5500000D03*
X50100000Y8000000D03*
X54700000Y8000000D03*
X50100000Y10500000D03*
X54700000Y10500000D03*
D15*
X63175000Y46300000D03*
X65000000Y46300000D03*
D10*
X33500000Y17000000D03*
X35250000Y17000000D03*
D16*
X57775000Y51100000D03*
X59500000Y51100000D03*
D10*
X51500000Y17000000D03*
X53250000Y17000000D03*
D23*
X77300000Y29100000D03*
X85500000Y29100000D03*
X77300000Y24600000D03*
X85500000Y24600000D03*
D11*
X52800000Y22300000D03*
D12*
X53600000Y22300000D03*
X54400000Y22300000D03*
D11*
X55200000Y22300000D03*
X55200000Y24100000D03*
D12*
X54400000Y24100000D03*
X53600000Y24100000D03*
D11*
X52800000Y24100000D03*
D26*
X40712500Y51200000D03*
X38887500Y51200000D03*
D10*
X69500000Y17000000D03*
X71250000Y17000000D03*
D22*
X90150000Y22750000D03*
X90150000Y30950000D03*
X94650000Y22750000D03*
X94650000Y30950000D03*
M02*
