M48
; DRILL file {KiCad (5.1.12)-1} date 05/02/22 15:45:24
; FORMAT={3:3/ absolute / metric / suppress leading zeros}
; #@! TF.CreationDate,2022-05-02T15:45:24+09:00
; #@! TF.GenerationSoftware,Kicad,Pcbnew,(5.1.12)-1
FMAT,2
METRIC,TZ
T1C0.300
T2C0.600
T3C0.700
T4C0.800
T5C0.900
T6C1.000
T7C1.100
%
G90
G05
T1
X2705Y-2705
X2705Y-18580
X2705Y-35090
X2705Y-52235
X7150Y-19850
X10325Y-19850
X12230Y-27470
X15405Y-19850
X19215Y-36995
X22390Y-19850
X29375Y-2705
X33185Y-27470
X35725Y-35090
X39535Y-19850
X50330Y-43980
X54140Y-26200
X57315Y-10325
X58585Y-7150
X59855Y-6515
X59855Y-23660
X66205Y-31280
X66840Y-5880
X80175Y-3340
X82080Y-12865
X85890Y-11595
X87160Y-10960
X92240Y-15405
X97320Y-5880
X97320Y-10325
X102400Y-5880
X103035Y-13500
X106845Y-16675
X110020Y-1435
X111290Y-26835
X113830Y-8420
X116370Y-19850
X120180Y-14770
X127165Y-3340
X127165Y-23025
X127165Y-37630
X127165Y-52235
T2
X122600Y-10200
X122600Y-11800
X122600Y-13400
X123800Y-11000
X123800Y-12600
T4
X5245Y-16040
X5245Y-23660
X7785Y-16040
X7785Y-23660
X10325Y-16040
X10325Y-23660
X12865Y-16040
X12865Y-23660
X15405Y-16040
X15405Y-23660
X17945Y-16040
X17945Y-23660
X19215Y-29837
X19215Y-39837
X20485Y-16040
X20485Y-23660
X21755Y-29837
X21755Y-39837
X23025Y-16040
X23025Y-23660
X24295Y-29837
X24295Y-39837
X26835Y-29837
X26835Y-39837
X29375Y-16040
X29375Y-23660
X29375Y-29837
X29375Y-39837
X31915Y-16040
X31915Y-23660
X31915Y-29837
X31915Y-39837
X34455Y-16040
X34455Y-23660
X34455Y-29837
X34455Y-39837
X36995Y-16040
X36995Y-23660
X36995Y-29837
X36995Y-39837
X39535Y-16040
X39535Y-23660
X42075Y-16040
X42075Y-23660
X44615Y-16040
X44615Y-23660
X47155Y-16040
X47155Y-23660
X56680Y-31026
X56680Y-33566
X56680Y-36106
X56680Y-38646
X56680Y-41186
X56680Y-43726
X56680Y-46266
X56680Y-48806
X62951Y-3595
X63030Y-8420
X63030Y-23660
X63030Y-31026
X63030Y-33566
X63030Y-36106
X63030Y-38646
X63030Y-41186
X63030Y-43726
X63030Y-46266
X63030Y-48806
X65570Y-8420
X65570Y-23660
X68110Y-8420
X68110Y-23660
X70317Y-45251
X70317Y-47791
X70317Y-50331
X70571Y-3595
X70650Y-8420
X70650Y-23660
X73190Y-8420
X73190Y-23660
X75730Y-8420
X75730Y-23660
X76667Y-45251
X76667Y-47791
X76667Y-50331
X78270Y-8420
X78270Y-23660
X80810Y-8420
X80810Y-23660
X83017Y-45251
X83017Y-47791
X83017Y-50331
X83271Y-3595
X83350Y-8420
X83350Y-23660
X83350Y-28740
X83350Y-31240
X85771Y-3595
X85890Y-8420
X85890Y-23660
X87160Y-28740
X87160Y-31240
X88430Y-8420
X88430Y-23660
X89367Y-45251
X89367Y-47791
X89367Y-50331
X89621Y-3595
X90970Y-8420
X90970Y-23660
X93510Y-8420
X93510Y-23660
X93710Y-29630
X95717Y-45251
X95717Y-47791
X95717Y-50331
X96050Y-8420
X96050Y-23660
X97241Y-3595
X98590Y-8420
X98590Y-23660
X98590Y-29630
X101051Y-3595
X101130Y-8420
X101130Y-23660
X102067Y-45251
X102067Y-47791
X102067Y-50331
X103670Y-8420
X103670Y-23660
X104940Y-28740
X104940Y-31240
X106210Y-8420
X106210Y-23660
X108417Y-45251
X108417Y-47791
X108417Y-50331
X108671Y-3595
X108750Y-8420
X108750Y-23660
X108750Y-28740
X108750Y-31240
X111290Y-8420
X111290Y-23660
X114767Y-45251
X114767Y-47791
X114767Y-50331
X122720Y-19978
X125220Y-19978
X125260Y-34455
X125260Y-42075
T5
X70571Y-36234
X70571Y-38774
X76921Y-36234
X76921Y-38774
X83271Y-36234
X83271Y-38774
X89621Y-36234
X89621Y-38774
X95971Y-36234
X95971Y-38774
X102321Y-36234
X102321Y-38774
X108671Y-36234
X108671Y-38774
X115021Y-36234
X115021Y-38774
X122720Y-27598
X125260Y-27598
T6
X34455Y-3594
X36995Y-3594
X39535Y-3594
X42075Y-3594
X44615Y-3594
X47155Y-3594
T7
X9611Y-46013
X9611Y-50513
X16111Y-46013
X16111Y-50513
X25232Y-46013
X25232Y-50513
X31732Y-46013
X31732Y-50513
X40726Y-46013
X40726Y-50513
X47226Y-46013
X47226Y-50513
T3
X127050Y-8150
X127150Y-8150
X127250Y-8150
X127350Y-8150
X127450Y-8150
X127550Y-8150
X127650Y-8150
X127750Y-8150
X127850Y-8150
X127950Y-8150
X128050Y-8150
X128150Y-8150
X128250Y-8150
X127050Y-15450
X127150Y-15450
X127250Y-15450
X127350Y-15450
X127450Y-15450
X127550Y-15450
X127650Y-15450
X127750Y-15450
X127850Y-15450
X127950Y-15450
X128050Y-15450
X128150Y-15450
X128250Y-15450
T0
M30
