G04 #@! TF.GenerationSoftware,KiCad,Pcbnew,(5.1.12)-1*
G04 #@! TF.CreationDate,2022-05-02T17:08:21+09:00*
G04 #@! TF.ProjectId,Board_v2,426f6172-645f-4763-922e-6b696361645f,0.2.0*
G04 #@! TF.SameCoordinates,PX2faf080PY2faf080*
G04 #@! TF.FileFunction,Legend,Top*
G04 #@! TF.FilePolarity,Positive*
%FSLAX46Y46*%
G04 Gerber Fmt 4.6, Leading zero omitted, Abs format (unit mm)*
G04 Created by KiCad (PCBNEW (5.1.12)-1) date 2022-05-02 17:08:21*
%MOMM*%
%LPD*%
G01*
G04 APERTURE LIST*
%ADD10C,0.150000*%
%ADD11C,0.200000*%
%ADD12C,0.120000*%
%ADD13C,1.800000*%
%ADD14O,3.100000X1.900000*%
%ADD15C,1.300000*%
%ADD16C,1.600000*%
%ADD17C,1.700000*%
%ADD18O,1.800000X2.600000*%
%ADD19C,2.200000*%
%ADD20O,1.800000X1.800000*%
%ADD21C,2.000000*%
%ADD22O,1.900000X1.900000*%
%ADD23C,0.800000*%
G04 APERTURE END LIST*
D10*
X74984047Y-29542142D02*
X74936428Y-29589761D01*
X74793571Y-29637380D01*
X74698333Y-29637380D01*
X74555476Y-29589761D01*
X74460238Y-29494523D01*
X74412619Y-29399285D01*
X74365000Y-29208809D01*
X74365000Y-29065952D01*
X74412619Y-28875476D01*
X74460238Y-28780238D01*
X74555476Y-28685000D01*
X74698333Y-28637380D01*
X74793571Y-28637380D01*
X74936428Y-28685000D01*
X74984047Y-28732619D01*
X75841190Y-28970714D02*
X75841190Y-29637380D01*
X75603095Y-28589761D02*
X75365000Y-29304047D01*
X75984047Y-29304047D01*
X76412619Y-29589761D02*
X76412619Y-29637380D01*
X76365000Y-29732619D01*
X76317380Y-29780238D01*
X77412619Y-29542142D02*
X77365000Y-29589761D01*
X77222142Y-29637380D01*
X77126904Y-29637380D01*
X76984047Y-29589761D01*
X76888809Y-29494523D01*
X76841190Y-29399285D01*
X76793571Y-29208809D01*
X76793571Y-29065952D01*
X76841190Y-28875476D01*
X76888809Y-28780238D01*
X76984047Y-28685000D01*
X77126904Y-28637380D01*
X77222142Y-28637380D01*
X77365000Y-28685000D01*
X77412619Y-28732619D01*
X78317380Y-28637380D02*
X77841190Y-28637380D01*
X77793571Y-29113571D01*
X77841190Y-29065952D01*
X77936428Y-29018333D01*
X78174523Y-29018333D01*
X78269761Y-29065952D01*
X78317380Y-29113571D01*
X78365000Y-29208809D01*
X78365000Y-29446904D01*
X78317380Y-29542142D01*
X78269761Y-29589761D01*
X78174523Y-29637380D01*
X77936428Y-29637380D01*
X77841190Y-29589761D01*
X77793571Y-29542142D01*
X74150714Y-30763571D02*
X74912619Y-30763571D01*
X74912619Y-31049285D02*
X74150714Y-31049285D01*
X76103095Y-30382619D02*
X76150714Y-30335000D01*
X76245952Y-30287380D01*
X76484047Y-30287380D01*
X76579285Y-30335000D01*
X76626904Y-30382619D01*
X76674523Y-30477857D01*
X76674523Y-30573095D01*
X76626904Y-30715952D01*
X76055476Y-31287380D01*
X76674523Y-31287380D01*
X77055476Y-30382619D02*
X77103095Y-30335000D01*
X77198333Y-30287380D01*
X77436428Y-30287380D01*
X77531666Y-30335000D01*
X77579285Y-30382619D01*
X77626904Y-30477857D01*
X77626904Y-30573095D01*
X77579285Y-30715952D01*
X77007857Y-31287380D01*
X77626904Y-31287380D01*
X78055476Y-31287380D02*
X78055476Y-30287380D01*
X78436428Y-30287380D01*
X78531666Y-30335000D01*
X78579285Y-30382619D01*
X78626904Y-30477857D01*
X78626904Y-30620714D01*
X78579285Y-30715952D01*
X78531666Y-30763571D01*
X78436428Y-30811190D01*
X78055476Y-30811190D01*
X5246428Y-9890000D02*
X5817857Y-9890000D01*
X5132142Y-10232857D02*
X5532142Y-9032857D01*
X5932142Y-10232857D01*
X6332142Y-10232857D02*
X6332142Y-9032857D01*
X6732142Y-9032857D02*
X7417857Y-9032857D01*
X7075000Y-10232857D02*
X7075000Y-9032857D01*
X8732142Y-10232857D02*
X8732142Y-9032857D01*
X9017857Y-9032857D01*
X9189285Y-9090000D01*
X9303571Y-9204285D01*
X9360714Y-9318571D01*
X9417857Y-9547142D01*
X9417857Y-9718571D01*
X9360714Y-9947142D01*
X9303571Y-10061428D01*
X9189285Y-10175714D01*
X9017857Y-10232857D01*
X8732142Y-10232857D01*
X9932142Y-10232857D02*
X9932142Y-9032857D01*
X11132142Y-9090000D02*
X11017857Y-9032857D01*
X10846428Y-9032857D01*
X10675000Y-9090000D01*
X10560714Y-9204285D01*
X10503571Y-9318571D01*
X10446428Y-9547142D01*
X10446428Y-9718571D01*
X10503571Y-9947142D01*
X10560714Y-10061428D01*
X10675000Y-10175714D01*
X10846428Y-10232857D01*
X10960714Y-10232857D01*
X11132142Y-10175714D01*
X11189285Y-10118571D01*
X11189285Y-9718571D01*
X10960714Y-9718571D01*
X11703571Y-10232857D02*
X11703571Y-9032857D01*
X12103571Y-9032857D02*
X12789285Y-9032857D01*
X12446428Y-10232857D02*
X12446428Y-9032857D01*
X13132142Y-9890000D02*
X13703571Y-9890000D01*
X13017857Y-10232857D02*
X13417857Y-9032857D01*
X13817857Y-10232857D01*
X14789285Y-10232857D02*
X14217857Y-10232857D01*
X14217857Y-9032857D01*
X16046428Y-10175714D02*
X16217857Y-10232857D01*
X16503571Y-10232857D01*
X16617857Y-10175714D01*
X16675000Y-10118571D01*
X16732142Y-10004285D01*
X16732142Y-9890000D01*
X16675000Y-9775714D01*
X16617857Y-9718571D01*
X16503571Y-9661428D01*
X16275000Y-9604285D01*
X16160714Y-9547142D01*
X16103571Y-9490000D01*
X16046428Y-9375714D01*
X16046428Y-9261428D01*
X16103571Y-9147142D01*
X16160714Y-9090000D01*
X16275000Y-9032857D01*
X16560714Y-9032857D01*
X16732142Y-9090000D01*
X17475000Y-9661428D02*
X17475000Y-10232857D01*
X17075000Y-9032857D02*
X17475000Y-9661428D01*
X17875000Y-9032857D01*
X18217857Y-10175714D02*
X18389285Y-10232857D01*
X18675000Y-10232857D01*
X18789285Y-10175714D01*
X18846428Y-10118571D01*
X18903571Y-10004285D01*
X18903571Y-9890000D01*
X18846428Y-9775714D01*
X18789285Y-9718571D01*
X18675000Y-9661428D01*
X18446428Y-9604285D01*
X18332142Y-9547142D01*
X18275000Y-9490000D01*
X18217857Y-9375714D01*
X18217857Y-9261428D01*
X18275000Y-9147142D01*
X18332142Y-9090000D01*
X18446428Y-9032857D01*
X18732142Y-9032857D01*
X18903571Y-9090000D01*
X19246428Y-9032857D02*
X19932142Y-9032857D01*
X19589285Y-10232857D02*
X19589285Y-9032857D01*
X20332142Y-9604285D02*
X20732142Y-9604285D01*
X20903571Y-10232857D02*
X20332142Y-10232857D01*
X20332142Y-9032857D01*
X20903571Y-9032857D01*
X21417857Y-10232857D02*
X21417857Y-9032857D01*
X21817857Y-9890000D01*
X22217857Y-9032857D01*
X22217857Y-10232857D01*
X22732142Y-10175714D02*
X22903571Y-10232857D01*
X23189285Y-10232857D01*
X23303571Y-10175714D01*
X23360714Y-10118571D01*
X23417857Y-10004285D01*
X23417857Y-9890000D01*
X23360714Y-9775714D01*
X23303571Y-9718571D01*
X23189285Y-9661428D01*
X22960714Y-9604285D01*
X22846428Y-9547142D01*
X22789285Y-9490000D01*
X22732142Y-9375714D01*
X22732142Y-9261428D01*
X22789285Y-9147142D01*
X22846428Y-9090000D01*
X22960714Y-9032857D01*
X23246428Y-9032857D01*
X23417857Y-9090000D01*
X25417857Y-10232857D02*
X24846428Y-10232857D01*
X24846428Y-9032857D01*
X25760714Y-9890000D02*
X26332142Y-9890000D01*
X25646428Y-10232857D02*
X26046428Y-9032857D01*
X26446428Y-10232857D01*
X27246428Y-9604285D02*
X27417857Y-9661428D01*
X27475000Y-9718571D01*
X27532142Y-9832857D01*
X27532142Y-10004285D01*
X27475000Y-10118571D01*
X27417857Y-10175714D01*
X27303571Y-10232857D01*
X26846428Y-10232857D01*
X26846428Y-9032857D01*
X27246428Y-9032857D01*
X27360714Y-9090000D01*
X27417857Y-9147142D01*
X27475000Y-9261428D01*
X27475000Y-9375714D01*
X27417857Y-9490000D01*
X27360714Y-9547142D01*
X27246428Y-9604285D01*
X26846428Y-9604285D01*
X28046428Y-10118571D02*
X28103571Y-10175714D01*
X28046428Y-10232857D01*
X27989285Y-10175714D01*
X28046428Y-10118571D01*
X28046428Y-10232857D01*
X8554285Y-6492857D02*
X8954285Y-7692857D01*
X9354285Y-6492857D01*
X9697142Y-6607142D02*
X9754285Y-6550000D01*
X9868571Y-6492857D01*
X10154285Y-6492857D01*
X10268571Y-6550000D01*
X10325714Y-6607142D01*
X10382857Y-6721428D01*
X10382857Y-6835714D01*
X10325714Y-7007142D01*
X9640000Y-7692857D01*
X10382857Y-7692857D01*
X11754285Y-6607142D02*
X11811428Y-6550000D01*
X11925714Y-6492857D01*
X12211428Y-6492857D01*
X12325714Y-6550000D01*
X12382857Y-6607142D01*
X12440000Y-6721428D01*
X12440000Y-6835714D01*
X12382857Y-7007142D01*
X11697142Y-7692857D01*
X12440000Y-7692857D01*
X13182857Y-6492857D02*
X13297142Y-6492857D01*
X13411428Y-6550000D01*
X13468571Y-6607142D01*
X13525714Y-6721428D01*
X13582857Y-6950000D01*
X13582857Y-7235714D01*
X13525714Y-7464285D01*
X13468571Y-7578571D01*
X13411428Y-7635714D01*
X13297142Y-7692857D01*
X13182857Y-7692857D01*
X13068571Y-7635714D01*
X13011428Y-7578571D01*
X12954285Y-7464285D01*
X12897142Y-7235714D01*
X12897142Y-6950000D01*
X12954285Y-6721428D01*
X13011428Y-6607142D01*
X13068571Y-6550000D01*
X13182857Y-6492857D01*
X14040000Y-6607142D02*
X14097142Y-6550000D01*
X14211428Y-6492857D01*
X14497142Y-6492857D01*
X14611428Y-6550000D01*
X14668571Y-6607142D01*
X14725714Y-6721428D01*
X14725714Y-6835714D01*
X14668571Y-7007142D01*
X13982857Y-7692857D01*
X14725714Y-7692857D01*
X15182857Y-6607142D02*
X15240000Y-6550000D01*
X15354285Y-6492857D01*
X15640000Y-6492857D01*
X15754285Y-6550000D01*
X15811428Y-6607142D01*
X15868571Y-6721428D01*
X15868571Y-6835714D01*
X15811428Y-7007142D01*
X15125714Y-7692857D01*
X15868571Y-7692857D01*
X16382857Y-7235714D02*
X17297142Y-7235714D01*
X18097142Y-6492857D02*
X18211428Y-6492857D01*
X18325714Y-6550000D01*
X18382857Y-6607142D01*
X18440000Y-6721428D01*
X18497142Y-6950000D01*
X18497142Y-7235714D01*
X18440000Y-7464285D01*
X18382857Y-7578571D01*
X18325714Y-7635714D01*
X18211428Y-7692857D01*
X18097142Y-7692857D01*
X17982857Y-7635714D01*
X17925714Y-7578571D01*
X17868571Y-7464285D01*
X17811428Y-7235714D01*
X17811428Y-6950000D01*
X17868571Y-6721428D01*
X17925714Y-6607142D01*
X17982857Y-6550000D01*
X18097142Y-6492857D01*
X19582857Y-6492857D02*
X19011428Y-6492857D01*
X18954285Y-7064285D01*
X19011428Y-7007142D01*
X19125714Y-6950000D01*
X19411428Y-6950000D01*
X19525714Y-7007142D01*
X19582857Y-7064285D01*
X19640000Y-7178571D01*
X19640000Y-7464285D01*
X19582857Y-7578571D01*
X19525714Y-7635714D01*
X19411428Y-7692857D01*
X19125714Y-7692857D01*
X19011428Y-7635714D01*
X18954285Y-7578571D01*
X20154285Y-7235714D02*
X21068571Y-7235714D01*
X21868571Y-6492857D02*
X21982857Y-6492857D01*
X22097142Y-6550000D01*
X22154285Y-6607142D01*
X22211428Y-6721428D01*
X22268571Y-6950000D01*
X22268571Y-7235714D01*
X22211428Y-7464285D01*
X22154285Y-7578571D01*
X22097142Y-7635714D01*
X21982857Y-7692857D01*
X21868571Y-7692857D01*
X21754285Y-7635714D01*
X21697142Y-7578571D01*
X21640000Y-7464285D01*
X21582857Y-7235714D01*
X21582857Y-6950000D01*
X21640000Y-6721428D01*
X21697142Y-6607142D01*
X21754285Y-6550000D01*
X21868571Y-6492857D01*
X22725714Y-6607142D02*
X22782857Y-6550000D01*
X22897142Y-6492857D01*
X23182857Y-6492857D01*
X23297142Y-6550000D01*
X23354285Y-6607142D01*
X23411428Y-6721428D01*
X23411428Y-6835714D01*
X23354285Y-7007142D01*
X22668571Y-7692857D01*
X23411428Y-7692857D01*
D11*
X6932857Y-3832142D02*
X6366190Y-3832142D01*
X6366190Y-4879761D02*
X6366190Y-2879761D01*
X7175714Y-2879761D01*
X7823333Y-4879761D02*
X7823333Y-2879761D01*
X8470952Y-2879761D01*
X8632857Y-2975000D01*
X8713809Y-3070238D01*
X8794761Y-3260714D01*
X8794761Y-3546428D01*
X8713809Y-3736904D01*
X8632857Y-3832142D01*
X8470952Y-3927380D01*
X7823333Y-3927380D01*
X10413809Y-2975000D02*
X10251904Y-2879761D01*
X10009047Y-2879761D01*
X9766190Y-2975000D01*
X9604285Y-3165476D01*
X9523333Y-3355952D01*
X9442380Y-3736904D01*
X9442380Y-4022619D01*
X9523333Y-4403571D01*
X9604285Y-4594047D01*
X9766190Y-4784523D01*
X10009047Y-4879761D01*
X10170952Y-4879761D01*
X10413809Y-4784523D01*
X10494761Y-4689285D01*
X10494761Y-4022619D01*
X10170952Y-4022619D01*
X11142380Y-4308333D02*
X11951904Y-4308333D01*
X10980476Y-4879761D02*
X11547142Y-2879761D01*
X12113809Y-4879761D01*
X12680476Y-4117857D02*
X13975714Y-4117857D01*
X15756666Y-4879761D02*
X15190000Y-3927380D01*
X14785238Y-4879761D02*
X14785238Y-2879761D01*
X15432857Y-2879761D01*
X15594761Y-2975000D01*
X15675714Y-3070238D01*
X15756666Y-3260714D01*
X15756666Y-3546428D01*
X15675714Y-3736904D01*
X15594761Y-3832142D01*
X15432857Y-3927380D01*
X14785238Y-3927380D01*
X17132857Y-4784523D02*
X16970952Y-4879761D01*
X16647142Y-4879761D01*
X16485238Y-4784523D01*
X16404285Y-4594047D01*
X16404285Y-3832142D01*
X16485238Y-3641666D01*
X16647142Y-3546428D01*
X16970952Y-3546428D01*
X17132857Y-3641666D01*
X17213809Y-3832142D01*
X17213809Y-4022619D01*
X16404285Y-4213095D01*
X17942380Y-4879761D02*
X17942380Y-3546428D01*
X17942380Y-3736904D02*
X18023333Y-3641666D01*
X18185238Y-3546428D01*
X18428095Y-3546428D01*
X18590000Y-3641666D01*
X18670952Y-3832142D01*
X18670952Y-4879761D01*
X18670952Y-3832142D02*
X18751904Y-3641666D01*
X18913809Y-3546428D01*
X19156666Y-3546428D01*
X19318571Y-3641666D01*
X19399523Y-3832142D01*
X19399523Y-4879761D01*
X20451904Y-4879761D02*
X20290000Y-4784523D01*
X20209047Y-4689285D01*
X20128095Y-4498809D01*
X20128095Y-3927380D01*
X20209047Y-3736904D01*
X20290000Y-3641666D01*
X20451904Y-3546428D01*
X20694761Y-3546428D01*
X20856666Y-3641666D01*
X20937619Y-3736904D01*
X21018571Y-3927380D01*
X21018571Y-4498809D01*
X20937619Y-4689285D01*
X20856666Y-4784523D01*
X20694761Y-4879761D01*
X20451904Y-4879761D01*
X22718571Y-4689285D02*
X22637619Y-4784523D01*
X22394761Y-4879761D01*
X22232857Y-4879761D01*
X21990000Y-4784523D01*
X21828095Y-4594047D01*
X21747142Y-4403571D01*
X21666190Y-4022619D01*
X21666190Y-3736904D01*
X21747142Y-3355952D01*
X21828095Y-3165476D01*
X21990000Y-2975000D01*
X22232857Y-2879761D01*
X22394761Y-2879761D01*
X22637619Y-2975000D01*
X22718571Y-3070238D01*
X23690000Y-4879761D02*
X23528095Y-4784523D01*
X23447142Y-4689285D01*
X23366190Y-4498809D01*
X23366190Y-3927380D01*
X23447142Y-3736904D01*
X23528095Y-3641666D01*
X23690000Y-3546428D01*
X23932857Y-3546428D01*
X24094761Y-3641666D01*
X24175714Y-3736904D01*
X24256666Y-3927380D01*
X24256666Y-4498809D01*
X24175714Y-4689285D01*
X24094761Y-4784523D01*
X23932857Y-4879761D01*
X23690000Y-4879761D01*
X24985238Y-3546428D02*
X24985238Y-4879761D01*
X24985238Y-3736904D02*
X25066190Y-3641666D01*
X25228095Y-3546428D01*
X25470952Y-3546428D01*
X25632857Y-3641666D01*
X25713809Y-3832142D01*
X25713809Y-4879761D01*
D10*
X47996000Y-7276000D02*
X46980000Y-5752000D01*
X45964000Y-7276000D02*
X47996000Y-7276000D01*
X46980000Y-5752000D02*
X45964000Y-7276000D01*
D12*
X88580000Y-27970000D02*
X88580000Y-32010000D01*
X85740000Y-27970000D02*
X85740000Y-32010000D01*
X88580000Y-27970000D02*
X87955000Y-27970000D01*
X86365000Y-27970000D02*
X85740000Y-27970000D01*
X88580000Y-32010000D02*
X87955000Y-32010000D01*
X86365000Y-32010000D02*
X85740000Y-32010000D01*
X126000000Y-8000000D02*
X121800000Y-8000000D01*
X121800000Y-8000000D02*
X121800000Y-15600000D01*
X121800000Y-15600000D02*
X126000000Y-15600000D01*
X69067000Y-52791000D02*
X69067000Y-42791000D01*
X71567000Y-52791000D02*
X69067000Y-52791000D01*
X71567000Y-42791000D02*
X71567000Y-52791000D01*
X69067000Y-42791000D02*
X71567000Y-42791000D01*
X75417000Y-52791000D02*
X75417000Y-42791000D01*
X77917000Y-52791000D02*
X75417000Y-52791000D01*
X77917000Y-42791000D02*
X77917000Y-52791000D01*
X75417000Y-42791000D02*
X77917000Y-42791000D01*
X81767000Y-52791000D02*
X81767000Y-42791000D01*
X84267000Y-52791000D02*
X81767000Y-52791000D01*
X84267000Y-42791000D02*
X84267000Y-52791000D01*
X81767000Y-42791000D02*
X84267000Y-42791000D01*
X88117000Y-52791000D02*
X88117000Y-42791000D01*
X90617000Y-52791000D02*
X88117000Y-52791000D01*
X90617000Y-42791000D02*
X90617000Y-52791000D01*
X88117000Y-42791000D02*
X90617000Y-42791000D01*
X94467000Y-52791000D02*
X94467000Y-42791000D01*
X96967000Y-52791000D02*
X94467000Y-52791000D01*
X96967000Y-42791000D02*
X96967000Y-52791000D01*
X94467000Y-42791000D02*
X96967000Y-42791000D01*
X100817000Y-52791000D02*
X100817000Y-42791000D01*
X103317000Y-52791000D02*
X100817000Y-52791000D01*
X103317000Y-42791000D02*
X103317000Y-52791000D01*
X100817000Y-42791000D02*
X103317000Y-42791000D01*
X107167000Y-52791000D02*
X107167000Y-42791000D01*
X109667000Y-52791000D02*
X107167000Y-52791000D01*
X109667000Y-42791000D02*
X109667000Y-52791000D01*
X107167000Y-42791000D02*
X109667000Y-42791000D01*
X113517000Y-52791000D02*
X113517000Y-42791000D01*
X116017000Y-52791000D02*
X113517000Y-52791000D01*
X116017000Y-42791000D02*
X116017000Y-52791000D01*
X113517000Y-42791000D02*
X116017000Y-42791000D01*
X99350000Y-32155000D02*
X92950000Y-32155000D01*
X99350000Y-27105000D02*
X92950000Y-27105000D01*
X92950000Y-27105000D02*
G75*
G03*
X92950000Y-32155000I0J-2525000D01*
G01*
X99350000Y-27105000D02*
G75*
G02*
X99350000Y-32155000I0J-2525000D01*
G01*
X48485000Y-18850000D02*
X48485000Y-17600000D01*
X48485000Y-17600000D02*
X28045000Y-17600000D01*
X28045000Y-17600000D02*
X28045000Y-22100000D01*
X28045000Y-22100000D02*
X48485000Y-22100000D01*
X48485000Y-22100000D02*
X48485000Y-20850000D01*
X48485000Y-20850000D02*
G75*
G02*
X48485000Y-18850000I0J1000000D01*
G01*
X8015000Y-41206999D02*
X48195000Y-41207000D01*
X48195000Y-41207000D02*
X48195000Y-28467001D01*
X48195000Y-28467001D02*
X8015000Y-28467000D01*
X8015000Y-28467000D02*
X8015000Y-32713667D01*
X8015000Y-32713667D02*
X8375000Y-32713667D01*
X8375000Y-32713667D02*
X8375000Y-36960333D01*
X8375000Y-36960333D02*
X8015000Y-36960333D01*
X8015000Y-36960333D02*
X8015000Y-41206999D01*
X61700000Y-17040000D02*
X61700000Y-22100000D01*
X61700000Y-22100000D02*
X112620000Y-22100000D01*
X112620000Y-22100000D02*
X112620000Y-9980000D01*
X112620000Y-9980000D02*
X61700000Y-9980000D01*
X61700000Y-9980000D02*
X61700000Y-15040000D01*
X61700000Y-15040000D02*
G75*
G02*
X61700000Y-17040000I0J-1000000D01*
G01*
X10611000Y-51513000D02*
X15111000Y-51513000D01*
X9361000Y-47513000D02*
X9361000Y-49013000D01*
X15111000Y-45013000D02*
X10611000Y-45013000D01*
X16361000Y-49013000D02*
X16361000Y-47513000D01*
X26232000Y-51513000D02*
X30732000Y-51513000D01*
X24982000Y-47513000D02*
X24982000Y-49013000D01*
X30732000Y-45013000D02*
X26232000Y-45013000D01*
X31982000Y-49013000D02*
X31982000Y-47513000D01*
X41726000Y-51513000D02*
X46226000Y-51513000D01*
X40476000Y-47513000D02*
X40476000Y-49013000D01*
X46226000Y-45013000D02*
X41726000Y-45013000D01*
X47476000Y-49013000D02*
X47476000Y-47513000D01*
X24465000Y-17440000D02*
X24465000Y-14640000D01*
X24465000Y-14640000D02*
X3805000Y-14640000D01*
X3805000Y-14640000D02*
X3805000Y-17440000D01*
X3805000Y-17440000D02*
X24465000Y-17440000D01*
X21755000Y-17440000D02*
X21755000Y-14640000D01*
X24465000Y-25060000D02*
X24465000Y-22260000D01*
X24465000Y-22260000D02*
X3805000Y-22260000D01*
X3805000Y-22260000D02*
X3805000Y-25060000D01*
X3805000Y-25060000D02*
X24465000Y-25060000D01*
X21755000Y-25060000D02*
X21755000Y-22260000D01*
X55280000Y-50246000D02*
X58080000Y-50246000D01*
X58080000Y-50246000D02*
X58080000Y-29586000D01*
X58080000Y-29586000D02*
X55280000Y-29586000D01*
X55280000Y-29586000D02*
X55280000Y-50246000D01*
X55280000Y-47536000D02*
X58080000Y-47536000D01*
X61630000Y-50246000D02*
X64430000Y-50246000D01*
X64430000Y-50246000D02*
X64430000Y-29586000D01*
X64430000Y-29586000D02*
X61630000Y-29586000D01*
X61630000Y-29586000D02*
X61630000Y-50246000D01*
X61630000Y-47536000D02*
X64430000Y-47536000D01*
X90161000Y-2555000D02*
X90161000Y-2225000D01*
X90161000Y-2225000D02*
X96701000Y-2225000D01*
X96701000Y-2225000D02*
X96701000Y-2555000D01*
X90161000Y-4635000D02*
X90161000Y-4965000D01*
X90161000Y-4965000D02*
X96701000Y-4965000D01*
X96701000Y-4965000D02*
X96701000Y-4635000D01*
X108131000Y-4635000D02*
X108131000Y-4965000D01*
X108131000Y-4965000D02*
X101591000Y-4965000D01*
X101591000Y-4965000D02*
X101591000Y-4635000D01*
X108131000Y-2555000D02*
X108131000Y-2225000D01*
X108131000Y-2225000D02*
X101591000Y-2225000D01*
X101591000Y-2225000D02*
X101591000Y-2555000D01*
X70031000Y-4635000D02*
X70031000Y-4965000D01*
X70031000Y-4965000D02*
X63491000Y-4965000D01*
X63491000Y-4965000D02*
X63491000Y-4635000D01*
X70031000Y-2555000D02*
X70031000Y-2225000D01*
X70031000Y-2225000D02*
X63491000Y-2225000D01*
X63491000Y-2225000D02*
X63491000Y-2555000D01*
X126300000Y-34995000D02*
X126630000Y-34995000D01*
X126630000Y-34995000D02*
X126630000Y-41535000D01*
X126630000Y-41535000D02*
X126300000Y-41535000D01*
X124220000Y-34995000D02*
X123890000Y-34995000D01*
X123890000Y-34995000D02*
X123890000Y-41535000D01*
X123890000Y-41535000D02*
X124220000Y-41535000D01*
X69335000Y-39064000D02*
X69491000Y-39064000D01*
X71651000Y-39064000D02*
X71807000Y-39064000D01*
X71650837Y-36462870D02*
G75*
G02*
X71651000Y-38544961I-1079837J-1041130D01*
G01*
X69491163Y-36462870D02*
G75*
G03*
X69491000Y-38544961I1079837J-1041130D01*
G01*
X71649608Y-35831665D02*
G75*
G02*
X71806516Y-39064000I-1078608J-1672335D01*
G01*
X69492392Y-35831665D02*
G75*
G03*
X69335484Y-39064000I1078608J-1672335D01*
G01*
X75685000Y-39064000D02*
X75841000Y-39064000D01*
X78001000Y-39064000D02*
X78157000Y-39064000D01*
X78000837Y-36462870D02*
G75*
G02*
X78001000Y-38544961I-1079837J-1041130D01*
G01*
X75841163Y-36462870D02*
G75*
G03*
X75841000Y-38544961I1079837J-1041130D01*
G01*
X77999608Y-35831665D02*
G75*
G02*
X78156516Y-39064000I-1078608J-1672335D01*
G01*
X75842392Y-35831665D02*
G75*
G03*
X75685484Y-39064000I1078608J-1672335D01*
G01*
X82035000Y-39064000D02*
X82191000Y-39064000D01*
X84351000Y-39064000D02*
X84507000Y-39064000D01*
X84350837Y-36462870D02*
G75*
G02*
X84351000Y-38544961I-1079837J-1041130D01*
G01*
X82191163Y-36462870D02*
G75*
G03*
X82191000Y-38544961I1079837J-1041130D01*
G01*
X84349608Y-35831665D02*
G75*
G02*
X84506516Y-39064000I-1078608J-1672335D01*
G01*
X82192392Y-35831665D02*
G75*
G03*
X82035484Y-39064000I1078608J-1672335D01*
G01*
X88385000Y-39064000D02*
X88541000Y-39064000D01*
X90701000Y-39064000D02*
X90857000Y-39064000D01*
X90700837Y-36462870D02*
G75*
G02*
X90701000Y-38544961I-1079837J-1041130D01*
G01*
X88541163Y-36462870D02*
G75*
G03*
X88541000Y-38544961I1079837J-1041130D01*
G01*
X90699608Y-35831665D02*
G75*
G02*
X90856516Y-39064000I-1078608J-1672335D01*
G01*
X88542392Y-35831665D02*
G75*
G03*
X88385484Y-39064000I1078608J-1672335D01*
G01*
X94735000Y-39064000D02*
X94891000Y-39064000D01*
X97051000Y-39064000D02*
X97207000Y-39064000D01*
X97050837Y-36462870D02*
G75*
G02*
X97051000Y-38544961I-1079837J-1041130D01*
G01*
X94891163Y-36462870D02*
G75*
G03*
X94891000Y-38544961I1079837J-1041130D01*
G01*
X97049608Y-35831665D02*
G75*
G02*
X97206516Y-39064000I-1078608J-1672335D01*
G01*
X94892392Y-35831665D02*
G75*
G03*
X94735484Y-39064000I1078608J-1672335D01*
G01*
X101085000Y-39064000D02*
X101241000Y-39064000D01*
X103401000Y-39064000D02*
X103557000Y-39064000D01*
X103400837Y-36462870D02*
G75*
G02*
X103401000Y-38544961I-1079837J-1041130D01*
G01*
X101241163Y-36462870D02*
G75*
G03*
X101241000Y-38544961I1079837J-1041130D01*
G01*
X103399608Y-35831665D02*
G75*
G02*
X103556516Y-39064000I-1078608J-1672335D01*
G01*
X101242392Y-35831665D02*
G75*
G03*
X101085484Y-39064000I1078608J-1672335D01*
G01*
X107435000Y-39064000D02*
X107591000Y-39064000D01*
X109751000Y-39064000D02*
X109907000Y-39064000D01*
X109750837Y-36462870D02*
G75*
G02*
X109751000Y-38544961I-1079837J-1041130D01*
G01*
X107591163Y-36462870D02*
G75*
G03*
X107591000Y-38544961I1079837J-1041130D01*
G01*
X109749608Y-35831665D02*
G75*
G02*
X109906516Y-39064000I-1078608J-1672335D01*
G01*
X107592392Y-35831665D02*
G75*
G03*
X107435484Y-39064000I1078608J-1672335D01*
G01*
X113785000Y-39064000D02*
X113941000Y-39064000D01*
X116101000Y-39064000D02*
X116257000Y-39064000D01*
X116100837Y-36462870D02*
G75*
G02*
X116101000Y-38544961I-1079837J-1041130D01*
G01*
X113941163Y-36462870D02*
G75*
G03*
X113941000Y-38544961I1079837J-1041130D01*
G01*
X116099608Y-35831665D02*
G75*
G02*
X116256516Y-39064000I-1078608J-1672335D01*
G01*
X113942392Y-35831665D02*
G75*
G03*
X113785484Y-39064000I1078608J-1672335D01*
G01*
X125550000Y-28834000D02*
X125550000Y-28678000D01*
X125550000Y-26518000D02*
X125550000Y-26362000D01*
X122948870Y-26518163D02*
G75*
G02*
X125030961Y-26518000I1041130J-1079837D01*
G01*
X122948870Y-28677837D02*
G75*
G03*
X125030961Y-28678000I1041130J1079837D01*
G01*
X122317665Y-26519392D02*
G75*
G02*
X125550000Y-26362484I1672335J-1078608D01*
G01*
X122317665Y-28676608D02*
G75*
G03*
X125550000Y-28833516I1672335J1078608D01*
G01*
X33125000Y-2264000D02*
X33125000Y-4924000D01*
X45885000Y-2264000D02*
X33125000Y-2264000D01*
X45885000Y-4924000D02*
X33125000Y-4924000D01*
X45885000Y-2264000D02*
X45885000Y-4924000D01*
X47155000Y-2264000D02*
X48485000Y-2264000D01*
X48485000Y-2264000D02*
X48485000Y-3594000D01*
X110170000Y-27970000D02*
X110170000Y-32010000D01*
X107330000Y-27970000D02*
X107330000Y-32010000D01*
X110170000Y-27970000D02*
X109545000Y-27970000D01*
X107955000Y-27970000D02*
X107330000Y-27970000D01*
X110170000Y-32010000D02*
X109545000Y-32010000D01*
X107955000Y-32010000D02*
X107330000Y-32010000D01*
X104145000Y-32010000D02*
X103520000Y-32010000D01*
X106360000Y-32010000D02*
X105735000Y-32010000D01*
X104145000Y-27970000D02*
X103520000Y-27970000D01*
X106360000Y-27970000D02*
X105735000Y-27970000D01*
X103520000Y-27970000D02*
X103520000Y-32010000D01*
X106360000Y-27970000D02*
X106360000Y-32010000D01*
X82501000Y-2175000D02*
X86541000Y-2175000D01*
X82501000Y-5015000D02*
X86541000Y-5015000D01*
X82501000Y-2175000D02*
X82501000Y-2800000D01*
X82501000Y-4390000D02*
X82501000Y-5015000D01*
X86541000Y-2175000D02*
X86541000Y-2800000D01*
X86541000Y-4390000D02*
X86541000Y-5015000D01*
X84770000Y-27970000D02*
X84770000Y-32010000D01*
X81930000Y-27970000D02*
X81930000Y-32010000D01*
X84770000Y-27970000D02*
X84145000Y-27970000D01*
X82555000Y-27970000D02*
X81930000Y-27970000D01*
X84770000Y-32010000D02*
X84145000Y-32010000D01*
X82555000Y-32010000D02*
X81930000Y-32010000D01*
X121950000Y-18558000D02*
X125990000Y-18558000D01*
X121950000Y-21398000D02*
X125990000Y-21398000D01*
X121950000Y-18558000D02*
X121950000Y-19183000D01*
X121950000Y-20773000D02*
X121950000Y-21398000D01*
X125990000Y-18558000D02*
X125990000Y-19183000D01*
X125990000Y-20773000D02*
X125990000Y-21398000D01*
D10*
X86993333Y-27192142D02*
X86945714Y-27239761D01*
X86802857Y-27287380D01*
X86707619Y-27287380D01*
X86564761Y-27239761D01*
X86469523Y-27144523D01*
X86421904Y-27049285D01*
X86374285Y-26858809D01*
X86374285Y-26715952D01*
X86421904Y-26525476D01*
X86469523Y-26430238D01*
X86564761Y-26335000D01*
X86707619Y-26287380D01*
X86802857Y-26287380D01*
X86945714Y-26335000D01*
X86993333Y-26382619D01*
X87850476Y-26620714D02*
X87850476Y-27287380D01*
X87612380Y-26239761D02*
X87374285Y-26954047D01*
X87993333Y-26954047D01*
X122387523Y-7044142D02*
X122339904Y-7091761D01*
X122197047Y-7139380D01*
X122101809Y-7139380D01*
X121958952Y-7091761D01*
X121863714Y-6996523D01*
X121816095Y-6901285D01*
X121768476Y-6710809D01*
X121768476Y-6567952D01*
X121816095Y-6377476D01*
X121863714Y-6282238D01*
X121958952Y-6187000D01*
X122101809Y-6139380D01*
X122197047Y-6139380D01*
X122339904Y-6187000D01*
X122387523Y-6234619D01*
X122816095Y-7139380D02*
X122816095Y-6139380D01*
X123387523Y-7139380D01*
X123387523Y-6139380D01*
X124387523Y-7139380D02*
X123816095Y-7139380D01*
X124101809Y-7139380D02*
X124101809Y-6139380D01*
X124006571Y-6282238D01*
X123911333Y-6377476D01*
X123816095Y-6425095D01*
X68983666Y-42195761D02*
X69126523Y-42243380D01*
X69364619Y-42243380D01*
X69459857Y-42195761D01*
X69507476Y-42148142D01*
X69555095Y-42052904D01*
X69555095Y-41957666D01*
X69507476Y-41862428D01*
X69459857Y-41814809D01*
X69364619Y-41767190D01*
X69174142Y-41719571D01*
X69078904Y-41671952D01*
X69031285Y-41624333D01*
X68983666Y-41529095D01*
X68983666Y-41433857D01*
X69031285Y-41338619D01*
X69078904Y-41291000D01*
X69174142Y-41243380D01*
X69412238Y-41243380D01*
X69555095Y-41291000D01*
X69888428Y-41243380D02*
X70126523Y-42243380D01*
X70317000Y-41529095D01*
X70507476Y-42243380D01*
X70745571Y-41243380D01*
X71269380Y-41671952D02*
X71174142Y-41624333D01*
X71126523Y-41576714D01*
X71078904Y-41481476D01*
X71078904Y-41433857D01*
X71126523Y-41338619D01*
X71174142Y-41291000D01*
X71269380Y-41243380D01*
X71459857Y-41243380D01*
X71555095Y-41291000D01*
X71602714Y-41338619D01*
X71650333Y-41433857D01*
X71650333Y-41481476D01*
X71602714Y-41576714D01*
X71555095Y-41624333D01*
X71459857Y-41671952D01*
X71269380Y-41671952D01*
X71174142Y-41719571D01*
X71126523Y-41767190D01*
X71078904Y-41862428D01*
X71078904Y-42052904D01*
X71126523Y-42148142D01*
X71174142Y-42195761D01*
X71269380Y-42243380D01*
X71459857Y-42243380D01*
X71555095Y-42195761D01*
X71602714Y-42148142D01*
X71650333Y-42052904D01*
X71650333Y-41862428D01*
X71602714Y-41767190D01*
X71555095Y-41719571D01*
X71459857Y-41671952D01*
X75333666Y-42195761D02*
X75476523Y-42243380D01*
X75714619Y-42243380D01*
X75809857Y-42195761D01*
X75857476Y-42148142D01*
X75905095Y-42052904D01*
X75905095Y-41957666D01*
X75857476Y-41862428D01*
X75809857Y-41814809D01*
X75714619Y-41767190D01*
X75524142Y-41719571D01*
X75428904Y-41671952D01*
X75381285Y-41624333D01*
X75333666Y-41529095D01*
X75333666Y-41433857D01*
X75381285Y-41338619D01*
X75428904Y-41291000D01*
X75524142Y-41243380D01*
X75762238Y-41243380D01*
X75905095Y-41291000D01*
X76238428Y-41243380D02*
X76476523Y-42243380D01*
X76667000Y-41529095D01*
X76857476Y-42243380D01*
X77095571Y-41243380D01*
X77381285Y-41243380D02*
X78047952Y-41243380D01*
X77619380Y-42243380D01*
X81683666Y-42195761D02*
X81826523Y-42243380D01*
X82064619Y-42243380D01*
X82159857Y-42195761D01*
X82207476Y-42148142D01*
X82255095Y-42052904D01*
X82255095Y-41957666D01*
X82207476Y-41862428D01*
X82159857Y-41814809D01*
X82064619Y-41767190D01*
X81874142Y-41719571D01*
X81778904Y-41671952D01*
X81731285Y-41624333D01*
X81683666Y-41529095D01*
X81683666Y-41433857D01*
X81731285Y-41338619D01*
X81778904Y-41291000D01*
X81874142Y-41243380D01*
X82112238Y-41243380D01*
X82255095Y-41291000D01*
X82588428Y-41243380D02*
X82826523Y-42243380D01*
X83017000Y-41529095D01*
X83207476Y-42243380D01*
X83445571Y-41243380D01*
X84255095Y-41243380D02*
X84064619Y-41243380D01*
X83969380Y-41291000D01*
X83921761Y-41338619D01*
X83826523Y-41481476D01*
X83778904Y-41671952D01*
X83778904Y-42052904D01*
X83826523Y-42148142D01*
X83874142Y-42195761D01*
X83969380Y-42243380D01*
X84159857Y-42243380D01*
X84255095Y-42195761D01*
X84302714Y-42148142D01*
X84350333Y-42052904D01*
X84350333Y-41814809D01*
X84302714Y-41719571D01*
X84255095Y-41671952D01*
X84159857Y-41624333D01*
X83969380Y-41624333D01*
X83874142Y-41671952D01*
X83826523Y-41719571D01*
X83778904Y-41814809D01*
X88033666Y-42195761D02*
X88176523Y-42243380D01*
X88414619Y-42243380D01*
X88509857Y-42195761D01*
X88557476Y-42148142D01*
X88605095Y-42052904D01*
X88605095Y-41957666D01*
X88557476Y-41862428D01*
X88509857Y-41814809D01*
X88414619Y-41767190D01*
X88224142Y-41719571D01*
X88128904Y-41671952D01*
X88081285Y-41624333D01*
X88033666Y-41529095D01*
X88033666Y-41433857D01*
X88081285Y-41338619D01*
X88128904Y-41291000D01*
X88224142Y-41243380D01*
X88462238Y-41243380D01*
X88605095Y-41291000D01*
X88938428Y-41243380D02*
X89176523Y-42243380D01*
X89367000Y-41529095D01*
X89557476Y-42243380D01*
X89795571Y-41243380D01*
X90652714Y-41243380D02*
X90176523Y-41243380D01*
X90128904Y-41719571D01*
X90176523Y-41671952D01*
X90271761Y-41624333D01*
X90509857Y-41624333D01*
X90605095Y-41671952D01*
X90652714Y-41719571D01*
X90700333Y-41814809D01*
X90700333Y-42052904D01*
X90652714Y-42148142D01*
X90605095Y-42195761D01*
X90509857Y-42243380D01*
X90271761Y-42243380D01*
X90176523Y-42195761D01*
X90128904Y-42148142D01*
X94383666Y-42195761D02*
X94526523Y-42243380D01*
X94764619Y-42243380D01*
X94859857Y-42195761D01*
X94907476Y-42148142D01*
X94955095Y-42052904D01*
X94955095Y-41957666D01*
X94907476Y-41862428D01*
X94859857Y-41814809D01*
X94764619Y-41767190D01*
X94574142Y-41719571D01*
X94478904Y-41671952D01*
X94431285Y-41624333D01*
X94383666Y-41529095D01*
X94383666Y-41433857D01*
X94431285Y-41338619D01*
X94478904Y-41291000D01*
X94574142Y-41243380D01*
X94812238Y-41243380D01*
X94955095Y-41291000D01*
X95288428Y-41243380D02*
X95526523Y-42243380D01*
X95717000Y-41529095D01*
X95907476Y-42243380D01*
X96145571Y-41243380D01*
X96955095Y-41576714D02*
X96955095Y-42243380D01*
X96717000Y-41195761D02*
X96478904Y-41910047D01*
X97097952Y-41910047D01*
X100733666Y-42195761D02*
X100876523Y-42243380D01*
X101114619Y-42243380D01*
X101209857Y-42195761D01*
X101257476Y-42148142D01*
X101305095Y-42052904D01*
X101305095Y-41957666D01*
X101257476Y-41862428D01*
X101209857Y-41814809D01*
X101114619Y-41767190D01*
X100924142Y-41719571D01*
X100828904Y-41671952D01*
X100781285Y-41624333D01*
X100733666Y-41529095D01*
X100733666Y-41433857D01*
X100781285Y-41338619D01*
X100828904Y-41291000D01*
X100924142Y-41243380D01*
X101162238Y-41243380D01*
X101305095Y-41291000D01*
X101638428Y-41243380D02*
X101876523Y-42243380D01*
X102067000Y-41529095D01*
X102257476Y-42243380D01*
X102495571Y-41243380D01*
X102781285Y-41243380D02*
X103400333Y-41243380D01*
X103067000Y-41624333D01*
X103209857Y-41624333D01*
X103305095Y-41671952D01*
X103352714Y-41719571D01*
X103400333Y-41814809D01*
X103400333Y-42052904D01*
X103352714Y-42148142D01*
X103305095Y-42195761D01*
X103209857Y-42243380D01*
X102924142Y-42243380D01*
X102828904Y-42195761D01*
X102781285Y-42148142D01*
X107083666Y-42195761D02*
X107226523Y-42243380D01*
X107464619Y-42243380D01*
X107559857Y-42195761D01*
X107607476Y-42148142D01*
X107655095Y-42052904D01*
X107655095Y-41957666D01*
X107607476Y-41862428D01*
X107559857Y-41814809D01*
X107464619Y-41767190D01*
X107274142Y-41719571D01*
X107178904Y-41671952D01*
X107131285Y-41624333D01*
X107083666Y-41529095D01*
X107083666Y-41433857D01*
X107131285Y-41338619D01*
X107178904Y-41291000D01*
X107274142Y-41243380D01*
X107512238Y-41243380D01*
X107655095Y-41291000D01*
X107988428Y-41243380D02*
X108226523Y-42243380D01*
X108417000Y-41529095D01*
X108607476Y-42243380D01*
X108845571Y-41243380D01*
X109178904Y-41338619D02*
X109226523Y-41291000D01*
X109321761Y-41243380D01*
X109559857Y-41243380D01*
X109655095Y-41291000D01*
X109702714Y-41338619D01*
X109750333Y-41433857D01*
X109750333Y-41529095D01*
X109702714Y-41671952D01*
X109131285Y-42243380D01*
X109750333Y-42243380D01*
X113433666Y-42195761D02*
X113576523Y-42243380D01*
X113814619Y-42243380D01*
X113909857Y-42195761D01*
X113957476Y-42148142D01*
X114005095Y-42052904D01*
X114005095Y-41957666D01*
X113957476Y-41862428D01*
X113909857Y-41814809D01*
X113814619Y-41767190D01*
X113624142Y-41719571D01*
X113528904Y-41671952D01*
X113481285Y-41624333D01*
X113433666Y-41529095D01*
X113433666Y-41433857D01*
X113481285Y-41338619D01*
X113528904Y-41291000D01*
X113624142Y-41243380D01*
X113862238Y-41243380D01*
X114005095Y-41291000D01*
X114338428Y-41243380D02*
X114576523Y-42243380D01*
X114767000Y-41529095D01*
X114957476Y-42243380D01*
X115195571Y-41243380D01*
X116100333Y-42243380D02*
X115528904Y-42243380D01*
X115814619Y-42243380D02*
X115814619Y-41243380D01*
X115719380Y-41386238D01*
X115624142Y-41481476D01*
X115528904Y-41529095D01*
X95494476Y-25526380D02*
X96161142Y-26526380D01*
X96161142Y-25526380D02*
X95494476Y-26526380D01*
X97065904Y-26526380D02*
X96494476Y-26526380D01*
X96780190Y-26526380D02*
X96780190Y-25526380D01*
X96684952Y-25669238D01*
X96589714Y-25764476D01*
X96494476Y-25812095D01*
X26541380Y-20611904D02*
X27350904Y-20611904D01*
X27446142Y-20564285D01*
X27493761Y-20516666D01*
X27541380Y-20421428D01*
X27541380Y-20230952D01*
X27493761Y-20135714D01*
X27446142Y-20088095D01*
X27350904Y-20040476D01*
X26541380Y-20040476D01*
X26541380Y-19659523D02*
X26541380Y-19040476D01*
X26922333Y-19373809D01*
X26922333Y-19230952D01*
X26969952Y-19135714D01*
X27017571Y-19088095D01*
X27112809Y-19040476D01*
X27350904Y-19040476D01*
X27446142Y-19088095D01*
X27493761Y-19135714D01*
X27541380Y-19230952D01*
X27541380Y-19516666D01*
X27493761Y-19611904D01*
X27446142Y-19659523D01*
X49655380Y-23651619D02*
X50464904Y-23651619D01*
X50560142Y-23604000D01*
X50607761Y-23556380D01*
X50655380Y-23461142D01*
X50655380Y-23270666D01*
X50607761Y-23175428D01*
X50560142Y-23127809D01*
X50464904Y-23080190D01*
X49655380Y-23080190D01*
X50655380Y-22127809D02*
X50655380Y-22604000D01*
X49655380Y-22604000D01*
X50655380Y-21794476D02*
X49655380Y-21794476D01*
X50655380Y-21223047D01*
X49655380Y-21223047D01*
X49750619Y-20794476D02*
X49703000Y-20746857D01*
X49655380Y-20651619D01*
X49655380Y-20413523D01*
X49703000Y-20318285D01*
X49750619Y-20270666D01*
X49845857Y-20223047D01*
X49941095Y-20223047D01*
X50083952Y-20270666D01*
X50655380Y-20842095D01*
X50655380Y-20223047D01*
X49655380Y-19604000D02*
X49655380Y-19508761D01*
X49703000Y-19413523D01*
X49750619Y-19365904D01*
X49845857Y-19318285D01*
X50036333Y-19270666D01*
X50274428Y-19270666D01*
X50464904Y-19318285D01*
X50560142Y-19365904D01*
X50607761Y-19413523D01*
X50655380Y-19508761D01*
X50655380Y-19604000D01*
X50607761Y-19699238D01*
X50560142Y-19746857D01*
X50464904Y-19794476D01*
X50274428Y-19842095D01*
X50036333Y-19842095D01*
X49845857Y-19794476D01*
X49750619Y-19746857D01*
X49703000Y-19699238D01*
X49655380Y-19604000D01*
X49655380Y-18651619D02*
X49655380Y-18556380D01*
X49703000Y-18461142D01*
X49750619Y-18413523D01*
X49845857Y-18365904D01*
X50036333Y-18318285D01*
X50274428Y-18318285D01*
X50464904Y-18365904D01*
X50560142Y-18413523D01*
X50607761Y-18461142D01*
X50655380Y-18556380D01*
X50655380Y-18651619D01*
X50607761Y-18746857D01*
X50560142Y-18794476D01*
X50464904Y-18842095D01*
X50274428Y-18889714D01*
X50036333Y-18889714D01*
X49845857Y-18842095D01*
X49750619Y-18794476D01*
X49703000Y-18746857D01*
X49655380Y-18651619D01*
X49655380Y-17984952D02*
X49655380Y-17365904D01*
X50036333Y-17699238D01*
X50036333Y-17556380D01*
X50083952Y-17461142D01*
X50131571Y-17413523D01*
X50226809Y-17365904D01*
X50464904Y-17365904D01*
X50560142Y-17413523D01*
X50607761Y-17461142D01*
X50655380Y-17556380D01*
X50655380Y-17842095D01*
X50607761Y-17937333D01*
X50560142Y-17984952D01*
X50369666Y-16984952D02*
X50369666Y-16508761D01*
X50655380Y-17080190D02*
X49655380Y-16746857D01*
X50655380Y-16413523D01*
X6467380Y-35598904D02*
X7276904Y-35598904D01*
X7372142Y-35551285D01*
X7419761Y-35503666D01*
X7467380Y-35408428D01*
X7467380Y-35217952D01*
X7419761Y-35122714D01*
X7372142Y-35075095D01*
X7276904Y-35027476D01*
X6467380Y-35027476D01*
X6562619Y-34598904D02*
X6515000Y-34551285D01*
X6467380Y-34456047D01*
X6467380Y-34217952D01*
X6515000Y-34122714D01*
X6562619Y-34075095D01*
X6657857Y-34027476D01*
X6753095Y-34027476D01*
X6895952Y-34075095D01*
X7467380Y-34646523D01*
X7467380Y-34027476D01*
X49401380Y-39694142D02*
X49401380Y-39503666D01*
X49449000Y-39408428D01*
X49544238Y-39313190D01*
X49734714Y-39265571D01*
X50068047Y-39265571D01*
X50258523Y-39313190D01*
X50353761Y-39408428D01*
X50401380Y-39503666D01*
X50401380Y-39694142D01*
X50353761Y-39789380D01*
X50258523Y-39884619D01*
X50068047Y-39932238D01*
X49734714Y-39932238D01*
X49544238Y-39884619D01*
X49449000Y-39789380D01*
X49401380Y-39694142D01*
X50353761Y-38884619D02*
X50401380Y-38741761D01*
X50401380Y-38503666D01*
X50353761Y-38408428D01*
X50306142Y-38360809D01*
X50210904Y-38313190D01*
X50115666Y-38313190D01*
X50020428Y-38360809D01*
X49972809Y-38408428D01*
X49925190Y-38503666D01*
X49877571Y-38694142D01*
X49829952Y-38789380D01*
X49782333Y-38837000D01*
X49687095Y-38884619D01*
X49591857Y-38884619D01*
X49496619Y-38837000D01*
X49449000Y-38789380D01*
X49401380Y-38694142D01*
X49401380Y-38456047D01*
X49449000Y-38313190D01*
X50401380Y-37408428D02*
X50401380Y-37884619D01*
X49401380Y-37884619D01*
X49734714Y-36646523D02*
X50401380Y-36646523D01*
X49353761Y-36884619D02*
X50068047Y-37122714D01*
X50068047Y-36503666D01*
X49401380Y-35932238D02*
X49401380Y-35837000D01*
X49449000Y-35741761D01*
X49496619Y-35694142D01*
X49591857Y-35646523D01*
X49782333Y-35598904D01*
X50020428Y-35598904D01*
X50210904Y-35646523D01*
X50306142Y-35694142D01*
X50353761Y-35741761D01*
X50401380Y-35837000D01*
X50401380Y-35932238D01*
X50353761Y-36027476D01*
X50306142Y-36075095D01*
X50210904Y-36122714D01*
X50020428Y-36170333D01*
X49782333Y-36170333D01*
X49591857Y-36122714D01*
X49496619Y-36075095D01*
X49449000Y-36027476D01*
X49401380Y-35932238D01*
X49401380Y-35265571D02*
X49401380Y-34646523D01*
X49782333Y-34979857D01*
X49782333Y-34837000D01*
X49829952Y-34741761D01*
X49877571Y-34694142D01*
X49972809Y-34646523D01*
X50210904Y-34646523D01*
X50306142Y-34694142D01*
X50353761Y-34741761D01*
X50401380Y-34837000D01*
X50401380Y-35122714D01*
X50353761Y-35217952D01*
X50306142Y-35265571D01*
X50401380Y-34170333D02*
X50401380Y-33979857D01*
X50353761Y-33884619D01*
X50306142Y-33837000D01*
X50163285Y-33741761D01*
X49972809Y-33694142D01*
X49591857Y-33694142D01*
X49496619Y-33741761D01*
X49449000Y-33789380D01*
X49401380Y-33884619D01*
X49401380Y-34075095D01*
X49449000Y-34170333D01*
X49496619Y-34217952D01*
X49591857Y-34265571D01*
X49829952Y-34265571D01*
X49925190Y-34217952D01*
X49972809Y-34170333D01*
X50020428Y-34075095D01*
X50020428Y-33884619D01*
X49972809Y-33789380D01*
X49925190Y-33741761D01*
X49829952Y-33694142D01*
X50401380Y-32741761D02*
X50401380Y-33313190D01*
X50401380Y-33027476D02*
X49401380Y-33027476D01*
X49544238Y-33122714D01*
X49639476Y-33217952D01*
X49687095Y-33313190D01*
X50020428Y-32313190D02*
X50020428Y-31551285D01*
X50401380Y-30598904D02*
X50401380Y-31075095D01*
X49401380Y-31075095D01*
X49401380Y-30360809D02*
X50401380Y-29694142D01*
X49401380Y-29694142D02*
X50401380Y-30360809D01*
X60152380Y-16801904D02*
X60961904Y-16801904D01*
X61057142Y-16754285D01*
X61104761Y-16706666D01*
X61152380Y-16611428D01*
X61152380Y-16420952D01*
X61104761Y-16325714D01*
X61057142Y-16278095D01*
X60961904Y-16230476D01*
X60152380Y-16230476D01*
X61152380Y-15230476D02*
X61152380Y-15801904D01*
X61152380Y-15516190D02*
X60152380Y-15516190D01*
X60295238Y-15611428D01*
X60390476Y-15706666D01*
X60438095Y-15801904D01*
X114398380Y-21682857D02*
X113398380Y-21682857D01*
X113398380Y-21301904D01*
X113446000Y-21206666D01*
X113493619Y-21159047D01*
X113588857Y-21111428D01*
X113731714Y-21111428D01*
X113826952Y-21159047D01*
X113874571Y-21206666D01*
X113922190Y-21301904D01*
X113922190Y-21682857D01*
X114398380Y-20682857D02*
X113398380Y-20682857D01*
X114303142Y-19635238D02*
X114350761Y-19682857D01*
X114398380Y-19825714D01*
X114398380Y-19920952D01*
X114350761Y-20063809D01*
X114255523Y-20159047D01*
X114160285Y-20206666D01*
X113969809Y-20254285D01*
X113826952Y-20254285D01*
X113636476Y-20206666D01*
X113541238Y-20159047D01*
X113446000Y-20063809D01*
X113398380Y-19920952D01*
X113398380Y-19825714D01*
X113446000Y-19682857D01*
X113493619Y-19635238D01*
X114398380Y-18682857D02*
X114398380Y-19254285D01*
X114398380Y-18968571D02*
X113398380Y-18968571D01*
X113541238Y-19063809D01*
X113636476Y-19159047D01*
X113684095Y-19254285D01*
X113826952Y-18111428D02*
X113779333Y-18206666D01*
X113731714Y-18254285D01*
X113636476Y-18301904D01*
X113588857Y-18301904D01*
X113493619Y-18254285D01*
X113446000Y-18206666D01*
X113398380Y-18111428D01*
X113398380Y-17920952D01*
X113446000Y-17825714D01*
X113493619Y-17778095D01*
X113588857Y-17730476D01*
X113636476Y-17730476D01*
X113731714Y-17778095D01*
X113779333Y-17825714D01*
X113826952Y-17920952D01*
X113826952Y-18111428D01*
X113874571Y-18206666D01*
X113922190Y-18254285D01*
X114017428Y-18301904D01*
X114207904Y-18301904D01*
X114303142Y-18254285D01*
X114350761Y-18206666D01*
X114398380Y-18111428D01*
X114398380Y-17920952D01*
X114350761Y-17825714D01*
X114303142Y-17778095D01*
X114207904Y-17730476D01*
X114017428Y-17730476D01*
X113922190Y-17778095D01*
X113874571Y-17825714D01*
X113826952Y-17920952D01*
X113874571Y-16968571D02*
X113874571Y-17301904D01*
X114398380Y-17301904D02*
X113398380Y-17301904D01*
X113398380Y-16825714D01*
X113731714Y-16016190D02*
X114398380Y-16016190D01*
X113350761Y-16254285D02*
X114065047Y-16492380D01*
X114065047Y-15873333D01*
X113731714Y-15063809D02*
X114398380Y-15063809D01*
X113350761Y-15301904D02*
X114065047Y-15540000D01*
X114065047Y-14920952D01*
X113398380Y-14063809D02*
X113398380Y-14540000D01*
X113874571Y-14587619D01*
X113826952Y-14540000D01*
X113779333Y-14444761D01*
X113779333Y-14206666D01*
X113826952Y-14111428D01*
X113874571Y-14063809D01*
X113969809Y-14016190D01*
X114207904Y-14016190D01*
X114303142Y-14063809D01*
X114350761Y-14111428D01*
X114398380Y-14206666D01*
X114398380Y-14444761D01*
X114350761Y-14540000D01*
X114303142Y-14587619D01*
X113398380Y-13397142D02*
X113398380Y-13301904D01*
X113446000Y-13206666D01*
X113493619Y-13159047D01*
X113588857Y-13111428D01*
X113779333Y-13063809D01*
X114017428Y-13063809D01*
X114207904Y-13111428D01*
X114303142Y-13159047D01*
X114350761Y-13206666D01*
X114398380Y-13301904D01*
X114398380Y-13397142D01*
X114350761Y-13492380D01*
X114303142Y-13540000D01*
X114207904Y-13587619D01*
X114017428Y-13635238D01*
X113779333Y-13635238D01*
X113588857Y-13587619D01*
X113493619Y-13540000D01*
X113446000Y-13492380D01*
X113398380Y-13397142D01*
X114017428Y-12635238D02*
X114017428Y-11873333D01*
X114398380Y-11397142D02*
X113398380Y-11397142D01*
X114398380Y-10920952D02*
X113398380Y-10920952D01*
X113398380Y-10540000D01*
X113446000Y-10444761D01*
X113493619Y-10397142D01*
X113588857Y-10349523D01*
X113731714Y-10349523D01*
X113826952Y-10397142D01*
X113874571Y-10444761D01*
X113922190Y-10540000D01*
X113922190Y-10920952D01*
X11055476Y-43989761D02*
X11198333Y-44037380D01*
X11436428Y-44037380D01*
X11531666Y-43989761D01*
X11579285Y-43942142D01*
X11626904Y-43846904D01*
X11626904Y-43751666D01*
X11579285Y-43656428D01*
X11531666Y-43608809D01*
X11436428Y-43561190D01*
X11245952Y-43513571D01*
X11150714Y-43465952D01*
X11103095Y-43418333D01*
X11055476Y-43323095D01*
X11055476Y-43227857D01*
X11103095Y-43132619D01*
X11150714Y-43085000D01*
X11245952Y-43037380D01*
X11484047Y-43037380D01*
X11626904Y-43085000D01*
X11960238Y-43037380D02*
X12198333Y-44037380D01*
X12388809Y-43323095D01*
X12579285Y-44037380D01*
X12817380Y-43037380D01*
X13722142Y-44037380D02*
X13150714Y-44037380D01*
X13436428Y-44037380D02*
X13436428Y-43037380D01*
X13341190Y-43180238D01*
X13245952Y-43275476D01*
X13150714Y-43323095D01*
X14674523Y-44037380D02*
X14103095Y-44037380D01*
X14388809Y-44037380D02*
X14388809Y-43037380D01*
X14293571Y-43180238D01*
X14198333Y-43275476D01*
X14103095Y-43323095D01*
X26930476Y-43989761D02*
X27073333Y-44037380D01*
X27311428Y-44037380D01*
X27406666Y-43989761D01*
X27454285Y-43942142D01*
X27501904Y-43846904D01*
X27501904Y-43751666D01*
X27454285Y-43656428D01*
X27406666Y-43608809D01*
X27311428Y-43561190D01*
X27120952Y-43513571D01*
X27025714Y-43465952D01*
X26978095Y-43418333D01*
X26930476Y-43323095D01*
X26930476Y-43227857D01*
X26978095Y-43132619D01*
X27025714Y-43085000D01*
X27120952Y-43037380D01*
X27359047Y-43037380D01*
X27501904Y-43085000D01*
X27835238Y-43037380D02*
X28073333Y-44037380D01*
X28263809Y-43323095D01*
X28454285Y-44037380D01*
X28692380Y-43037380D01*
X29597142Y-44037380D02*
X29025714Y-44037380D01*
X29311428Y-44037380D02*
X29311428Y-43037380D01*
X29216190Y-43180238D01*
X29120952Y-43275476D01*
X29025714Y-43323095D01*
X30216190Y-43037380D02*
X30311428Y-43037380D01*
X30406666Y-43085000D01*
X30454285Y-43132619D01*
X30501904Y-43227857D01*
X30549523Y-43418333D01*
X30549523Y-43656428D01*
X30501904Y-43846904D01*
X30454285Y-43942142D01*
X30406666Y-43989761D01*
X30311428Y-44037380D01*
X30216190Y-44037380D01*
X30120952Y-43989761D01*
X30073333Y-43942142D01*
X30025714Y-43846904D01*
X29978095Y-43656428D01*
X29978095Y-43418333D01*
X30025714Y-43227857D01*
X30073333Y-43132619D01*
X30120952Y-43085000D01*
X30216190Y-43037380D01*
X42646666Y-44004761D02*
X42789523Y-44052380D01*
X43027619Y-44052380D01*
X43122857Y-44004761D01*
X43170476Y-43957142D01*
X43218095Y-43861904D01*
X43218095Y-43766666D01*
X43170476Y-43671428D01*
X43122857Y-43623809D01*
X43027619Y-43576190D01*
X42837142Y-43528571D01*
X42741904Y-43480952D01*
X42694285Y-43433333D01*
X42646666Y-43338095D01*
X42646666Y-43242857D01*
X42694285Y-43147619D01*
X42741904Y-43100000D01*
X42837142Y-43052380D01*
X43075238Y-43052380D01*
X43218095Y-43100000D01*
X43551428Y-43052380D02*
X43789523Y-44052380D01*
X43980000Y-43338095D01*
X44170476Y-44052380D01*
X44408571Y-43052380D01*
X44837142Y-44052380D02*
X45027619Y-44052380D01*
X45122857Y-44004761D01*
X45170476Y-43957142D01*
X45265714Y-43814285D01*
X45313333Y-43623809D01*
X45313333Y-43242857D01*
X45265714Y-43147619D01*
X45218095Y-43100000D01*
X45122857Y-43052380D01*
X44932380Y-43052380D01*
X44837142Y-43100000D01*
X44789523Y-43147619D01*
X44741904Y-43242857D01*
X44741904Y-43480952D01*
X44789523Y-43576190D01*
X44837142Y-43623809D01*
X44932380Y-43671428D01*
X45122857Y-43671428D01*
X45218095Y-43623809D01*
X45265714Y-43576190D01*
X45313333Y-43480952D01*
X9634523Y-13952380D02*
X9301190Y-13476190D01*
X9063095Y-13952380D02*
X9063095Y-12952380D01*
X9444047Y-12952380D01*
X9539285Y-13000000D01*
X9586904Y-13047619D01*
X9634523Y-13142857D01*
X9634523Y-13285714D01*
X9586904Y-13380952D01*
X9539285Y-13428571D01*
X9444047Y-13476190D01*
X9063095Y-13476190D01*
X10063095Y-13952380D02*
X10063095Y-12952380D01*
X10634523Y-13952380D01*
X10634523Y-12952380D01*
X11539285Y-13285714D02*
X11539285Y-13952380D01*
X11301190Y-12904761D02*
X11063095Y-13619047D01*
X11682142Y-13619047D01*
X16659285Y-12952380D02*
X17278333Y-12952380D01*
X16945000Y-13333333D01*
X17087857Y-13333333D01*
X17183095Y-13380952D01*
X17230714Y-13428571D01*
X17278333Y-13523809D01*
X17278333Y-13761904D01*
X17230714Y-13857142D01*
X17183095Y-13904761D01*
X17087857Y-13952380D01*
X16802142Y-13952380D01*
X16706904Y-13904761D01*
X16659285Y-13857142D01*
X17611666Y-12952380D02*
X18230714Y-12952380D01*
X17897380Y-13333333D01*
X18040238Y-13333333D01*
X18135476Y-13380952D01*
X18183095Y-13428571D01*
X18230714Y-13523809D01*
X18230714Y-13761904D01*
X18183095Y-13857142D01*
X18135476Y-13904761D01*
X18040238Y-13952380D01*
X17754523Y-13952380D01*
X17659285Y-13904761D01*
X17611666Y-13857142D01*
X18849761Y-12952380D02*
X18945000Y-12952380D01*
X19040238Y-13000000D01*
X19087857Y-13047619D01*
X19135476Y-13142857D01*
X19183095Y-13333333D01*
X19183095Y-13571428D01*
X19135476Y-13761904D01*
X19087857Y-13857142D01*
X19040238Y-13904761D01*
X18945000Y-13952380D01*
X18849761Y-13952380D01*
X18754523Y-13904761D01*
X18706904Y-13857142D01*
X18659285Y-13761904D01*
X18611666Y-13571428D01*
X18611666Y-13333333D01*
X18659285Y-13142857D01*
X18706904Y-13047619D01*
X18754523Y-13000000D01*
X18849761Y-12952380D01*
X9634523Y-21572380D02*
X9301190Y-21096190D01*
X9063095Y-21572380D02*
X9063095Y-20572380D01*
X9444047Y-20572380D01*
X9539285Y-20620000D01*
X9586904Y-20667619D01*
X9634523Y-20762857D01*
X9634523Y-20905714D01*
X9586904Y-21000952D01*
X9539285Y-21048571D01*
X9444047Y-21096190D01*
X9063095Y-21096190D01*
X10063095Y-21572380D02*
X10063095Y-20572380D01*
X10634523Y-21572380D01*
X10634523Y-20572380D01*
X11015476Y-20572380D02*
X11634523Y-20572380D01*
X11301190Y-20953333D01*
X11444047Y-20953333D01*
X11539285Y-21000952D01*
X11586904Y-21048571D01*
X11634523Y-21143809D01*
X11634523Y-21381904D01*
X11586904Y-21477142D01*
X11539285Y-21524761D01*
X11444047Y-21572380D01*
X11158333Y-21572380D01*
X11063095Y-21524761D01*
X11015476Y-21477142D01*
X16659285Y-20572380D02*
X17278333Y-20572380D01*
X16945000Y-20953333D01*
X17087857Y-20953333D01*
X17183095Y-21000952D01*
X17230714Y-21048571D01*
X17278333Y-21143809D01*
X17278333Y-21381904D01*
X17230714Y-21477142D01*
X17183095Y-21524761D01*
X17087857Y-21572380D01*
X16802142Y-21572380D01*
X16706904Y-21524761D01*
X16659285Y-21477142D01*
X17611666Y-20572380D02*
X18230714Y-20572380D01*
X17897380Y-20953333D01*
X18040238Y-20953333D01*
X18135476Y-21000952D01*
X18183095Y-21048571D01*
X18230714Y-21143809D01*
X18230714Y-21381904D01*
X18183095Y-21477142D01*
X18135476Y-21524761D01*
X18040238Y-21572380D01*
X17754523Y-21572380D01*
X17659285Y-21524761D01*
X17611666Y-21477142D01*
X18849761Y-20572380D02*
X18945000Y-20572380D01*
X19040238Y-20620000D01*
X19087857Y-20667619D01*
X19135476Y-20762857D01*
X19183095Y-20953333D01*
X19183095Y-21191428D01*
X19135476Y-21381904D01*
X19087857Y-21477142D01*
X19040238Y-21524761D01*
X18945000Y-21572380D01*
X18849761Y-21572380D01*
X18754523Y-21524761D01*
X18706904Y-21477142D01*
X18659285Y-21381904D01*
X18611666Y-21191428D01*
X18611666Y-20953333D01*
X18659285Y-20762857D01*
X18706904Y-20667619D01*
X18754523Y-20620000D01*
X18849761Y-20572380D01*
X55989523Y-28557380D02*
X55656190Y-28081190D01*
X55418095Y-28557380D02*
X55418095Y-27557380D01*
X55799047Y-27557380D01*
X55894285Y-27605000D01*
X55941904Y-27652619D01*
X55989523Y-27747857D01*
X55989523Y-27890714D01*
X55941904Y-27985952D01*
X55894285Y-28033571D01*
X55799047Y-28081190D01*
X55418095Y-28081190D01*
X56418095Y-28557380D02*
X56418095Y-27557380D01*
X56989523Y-28557380D01*
X56989523Y-27557380D01*
X57418095Y-27652619D02*
X57465714Y-27605000D01*
X57560952Y-27557380D01*
X57799047Y-27557380D01*
X57894285Y-27605000D01*
X57941904Y-27652619D01*
X57989523Y-27747857D01*
X57989523Y-27843095D01*
X57941904Y-27985952D01*
X57370476Y-28557380D01*
X57989523Y-28557380D01*
X56465714Y-52052380D02*
X55894285Y-52052380D01*
X56180000Y-52052380D02*
X56180000Y-51052380D01*
X56084761Y-51195238D01*
X55989523Y-51290476D01*
X55894285Y-51338095D01*
X56894285Y-52052380D02*
X56894285Y-51052380D01*
X57465714Y-52052380D02*
X57037142Y-51480952D01*
X57465714Y-51052380D02*
X56894285Y-51623809D01*
X62339523Y-28557380D02*
X62006190Y-28081190D01*
X61768095Y-28557380D02*
X61768095Y-27557380D01*
X62149047Y-27557380D01*
X62244285Y-27605000D01*
X62291904Y-27652619D01*
X62339523Y-27747857D01*
X62339523Y-27890714D01*
X62291904Y-27985952D01*
X62244285Y-28033571D01*
X62149047Y-28081190D01*
X61768095Y-28081190D01*
X62768095Y-28557380D02*
X62768095Y-27557380D01*
X63339523Y-28557380D01*
X63339523Y-27557380D01*
X64339523Y-28557380D02*
X63768095Y-28557380D01*
X64053809Y-28557380D02*
X64053809Y-27557380D01*
X63958571Y-27700238D01*
X63863333Y-27795476D01*
X63768095Y-27843095D01*
X62815714Y-52052380D02*
X62244285Y-52052380D01*
X62530000Y-52052380D02*
X62530000Y-51052380D01*
X62434761Y-51195238D01*
X62339523Y-51290476D01*
X62244285Y-51338095D01*
X63244285Y-52052380D02*
X63244285Y-51052380D01*
X63815714Y-52052380D02*
X63387142Y-51480952D01*
X63815714Y-51052380D02*
X63244285Y-51623809D01*
X93264333Y-1507380D02*
X92931000Y-1031190D01*
X92692904Y-1507380D02*
X92692904Y-507380D01*
X93073857Y-507380D01*
X93169095Y-555000D01*
X93216714Y-602619D01*
X93264333Y-697857D01*
X93264333Y-840714D01*
X93216714Y-935952D01*
X93169095Y-983571D01*
X93073857Y-1031190D01*
X92692904Y-1031190D01*
X94121476Y-840714D02*
X94121476Y-1507380D01*
X93883380Y-459761D02*
X93645285Y-1174047D01*
X94264333Y-1174047D01*
X92740523Y-6417380D02*
X92169095Y-6417380D01*
X92454809Y-6417380D02*
X92454809Y-5417380D01*
X92359571Y-5560238D01*
X92264333Y-5655476D01*
X92169095Y-5703095D01*
X93359571Y-5417380D02*
X93454809Y-5417380D01*
X93550047Y-5465000D01*
X93597666Y-5512619D01*
X93645285Y-5607857D01*
X93692904Y-5798333D01*
X93692904Y-6036428D01*
X93645285Y-6226904D01*
X93597666Y-6322142D01*
X93550047Y-6369761D01*
X93454809Y-6417380D01*
X93359571Y-6417380D01*
X93264333Y-6369761D01*
X93216714Y-6322142D01*
X93169095Y-6226904D01*
X93121476Y-6036428D01*
X93121476Y-5798333D01*
X93169095Y-5607857D01*
X93216714Y-5512619D01*
X93264333Y-5465000D01*
X93359571Y-5417380D01*
X94121476Y-6417380D02*
X94121476Y-5417380D01*
X94692904Y-6417380D02*
X94264333Y-5845952D01*
X94692904Y-5417380D02*
X94121476Y-5988809D01*
X104567333Y-1507380D02*
X104234000Y-1031190D01*
X103995904Y-1507380D02*
X103995904Y-507380D01*
X104376857Y-507380D01*
X104472095Y-555000D01*
X104519714Y-602619D01*
X104567333Y-697857D01*
X104567333Y-840714D01*
X104519714Y-935952D01*
X104472095Y-983571D01*
X104376857Y-1031190D01*
X103995904Y-1031190D01*
X104900666Y-507380D02*
X105519714Y-507380D01*
X105186380Y-888333D01*
X105329238Y-888333D01*
X105424476Y-935952D01*
X105472095Y-983571D01*
X105519714Y-1078809D01*
X105519714Y-1316904D01*
X105472095Y-1412142D01*
X105424476Y-1459761D01*
X105329238Y-1507380D01*
X105043523Y-1507380D01*
X104948285Y-1459761D01*
X104900666Y-1412142D01*
X104170523Y-6587380D02*
X103599095Y-6587380D01*
X103884809Y-6587380D02*
X103884809Y-5587380D01*
X103789571Y-5730238D01*
X103694333Y-5825476D01*
X103599095Y-5873095D01*
X104789571Y-5587380D02*
X104884809Y-5587380D01*
X104980047Y-5635000D01*
X105027666Y-5682619D01*
X105075285Y-5777857D01*
X105122904Y-5968333D01*
X105122904Y-6206428D01*
X105075285Y-6396904D01*
X105027666Y-6492142D01*
X104980047Y-6539761D01*
X104884809Y-6587380D01*
X104789571Y-6587380D01*
X104694333Y-6539761D01*
X104646714Y-6492142D01*
X104599095Y-6396904D01*
X104551476Y-6206428D01*
X104551476Y-5968333D01*
X104599095Y-5777857D01*
X104646714Y-5682619D01*
X104694333Y-5635000D01*
X104789571Y-5587380D01*
X105551476Y-6587380D02*
X105551476Y-5587380D01*
X106122904Y-6587380D02*
X105694333Y-6015952D01*
X106122904Y-5587380D02*
X105551476Y-6158809D01*
X66594333Y-1507380D02*
X66261000Y-1031190D01*
X66022904Y-1507380D02*
X66022904Y-507380D01*
X66403857Y-507380D01*
X66499095Y-555000D01*
X66546714Y-602619D01*
X66594333Y-697857D01*
X66594333Y-840714D01*
X66546714Y-935952D01*
X66499095Y-983571D01*
X66403857Y-1031190D01*
X66022904Y-1031190D01*
X66975285Y-602619D02*
X67022904Y-555000D01*
X67118142Y-507380D01*
X67356238Y-507380D01*
X67451476Y-555000D01*
X67499095Y-602619D01*
X67546714Y-697857D01*
X67546714Y-793095D01*
X67499095Y-935952D01*
X66927666Y-1507380D01*
X67546714Y-1507380D01*
X68689523Y-6587380D02*
X68118095Y-6587380D01*
X68403809Y-6587380D02*
X68403809Y-5587380D01*
X68308571Y-5730238D01*
X68213333Y-5825476D01*
X68118095Y-5873095D01*
X69308571Y-5587380D02*
X69403809Y-5587380D01*
X69499047Y-5635000D01*
X69546666Y-5682619D01*
X69594285Y-5777857D01*
X69641904Y-5968333D01*
X69641904Y-6206428D01*
X69594285Y-6396904D01*
X69546666Y-6492142D01*
X69499047Y-6539761D01*
X69403809Y-6587380D01*
X69308571Y-6587380D01*
X69213333Y-6539761D01*
X69165714Y-6492142D01*
X69118095Y-6396904D01*
X69070476Y-6206428D01*
X69070476Y-5968333D01*
X69118095Y-5777857D01*
X69165714Y-5682619D01*
X69213333Y-5635000D01*
X69308571Y-5587380D01*
X70070476Y-6587380D02*
X70070476Y-5587380D01*
X70641904Y-6587380D02*
X70213333Y-6015952D01*
X70641904Y-5587380D02*
X70070476Y-6158809D01*
X125093333Y-33002380D02*
X124760000Y-32526190D01*
X124521904Y-33002380D02*
X124521904Y-32002380D01*
X124902857Y-32002380D01*
X124998095Y-32050000D01*
X125045714Y-32097619D01*
X125093333Y-32192857D01*
X125093333Y-32335714D01*
X125045714Y-32430952D01*
X124998095Y-32478571D01*
X124902857Y-32526190D01*
X124521904Y-32526190D01*
X126045714Y-33002380D02*
X125474285Y-33002380D01*
X125760000Y-33002380D02*
X125760000Y-32002380D01*
X125664761Y-32145238D01*
X125569523Y-32240476D01*
X125474285Y-32288095D01*
X125045714Y-44432380D02*
X124474285Y-44432380D01*
X124760000Y-44432380D02*
X124760000Y-43432380D01*
X124664761Y-43575238D01*
X124569523Y-43670476D01*
X124474285Y-43718095D01*
X125474285Y-44432380D02*
X125474285Y-43432380D01*
X126045714Y-44432380D02*
X125617142Y-43860952D01*
X126045714Y-43432380D02*
X125474285Y-44003809D01*
X69832904Y-34400380D02*
X69832904Y-33400380D01*
X70071000Y-33400380D01*
X70213857Y-33448000D01*
X70309095Y-33543238D01*
X70356714Y-33638476D01*
X70404333Y-33828952D01*
X70404333Y-33971809D01*
X70356714Y-34162285D01*
X70309095Y-34257523D01*
X70213857Y-34352761D01*
X70071000Y-34400380D01*
X69832904Y-34400380D01*
X70880523Y-34400380D02*
X71071000Y-34400380D01*
X71166238Y-34352761D01*
X71213857Y-34305142D01*
X71309095Y-34162285D01*
X71356714Y-33971809D01*
X71356714Y-33590857D01*
X71309095Y-33495619D01*
X71261476Y-33448000D01*
X71166238Y-33400380D01*
X70975761Y-33400380D01*
X70880523Y-33448000D01*
X70832904Y-33495619D01*
X70785285Y-33590857D01*
X70785285Y-33828952D01*
X70832904Y-33924190D01*
X70880523Y-33971809D01*
X70975761Y-34019428D01*
X71166238Y-34019428D01*
X71261476Y-33971809D01*
X71309095Y-33924190D01*
X71356714Y-33828952D01*
X76182904Y-34400380D02*
X76182904Y-33400380D01*
X76421000Y-33400380D01*
X76563857Y-33448000D01*
X76659095Y-33543238D01*
X76706714Y-33638476D01*
X76754333Y-33828952D01*
X76754333Y-33971809D01*
X76706714Y-34162285D01*
X76659095Y-34257523D01*
X76563857Y-34352761D01*
X76421000Y-34400380D01*
X76182904Y-34400380D01*
X77325761Y-33828952D02*
X77230523Y-33781333D01*
X77182904Y-33733714D01*
X77135285Y-33638476D01*
X77135285Y-33590857D01*
X77182904Y-33495619D01*
X77230523Y-33448000D01*
X77325761Y-33400380D01*
X77516238Y-33400380D01*
X77611476Y-33448000D01*
X77659095Y-33495619D01*
X77706714Y-33590857D01*
X77706714Y-33638476D01*
X77659095Y-33733714D01*
X77611476Y-33781333D01*
X77516238Y-33828952D01*
X77325761Y-33828952D01*
X77230523Y-33876571D01*
X77182904Y-33924190D01*
X77135285Y-34019428D01*
X77135285Y-34209904D01*
X77182904Y-34305142D01*
X77230523Y-34352761D01*
X77325761Y-34400380D01*
X77516238Y-34400380D01*
X77611476Y-34352761D01*
X77659095Y-34305142D01*
X77706714Y-34209904D01*
X77706714Y-34019428D01*
X77659095Y-33924190D01*
X77611476Y-33876571D01*
X77516238Y-33828952D01*
X82532904Y-34400380D02*
X82532904Y-33400380D01*
X82771000Y-33400380D01*
X82913857Y-33448000D01*
X83009095Y-33543238D01*
X83056714Y-33638476D01*
X83104333Y-33828952D01*
X83104333Y-33971809D01*
X83056714Y-34162285D01*
X83009095Y-34257523D01*
X82913857Y-34352761D01*
X82771000Y-34400380D01*
X82532904Y-34400380D01*
X83437666Y-33400380D02*
X84104333Y-33400380D01*
X83675761Y-34400380D01*
X88882904Y-34400380D02*
X88882904Y-33400380D01*
X89121000Y-33400380D01*
X89263857Y-33448000D01*
X89359095Y-33543238D01*
X89406714Y-33638476D01*
X89454333Y-33828952D01*
X89454333Y-33971809D01*
X89406714Y-34162285D01*
X89359095Y-34257523D01*
X89263857Y-34352761D01*
X89121000Y-34400380D01*
X88882904Y-34400380D01*
X90311476Y-33400380D02*
X90121000Y-33400380D01*
X90025761Y-33448000D01*
X89978142Y-33495619D01*
X89882904Y-33638476D01*
X89835285Y-33828952D01*
X89835285Y-34209904D01*
X89882904Y-34305142D01*
X89930523Y-34352761D01*
X90025761Y-34400380D01*
X90216238Y-34400380D01*
X90311476Y-34352761D01*
X90359095Y-34305142D01*
X90406714Y-34209904D01*
X90406714Y-33971809D01*
X90359095Y-33876571D01*
X90311476Y-33828952D01*
X90216238Y-33781333D01*
X90025761Y-33781333D01*
X89930523Y-33828952D01*
X89882904Y-33876571D01*
X89835285Y-33971809D01*
X95232904Y-34527380D02*
X95232904Y-33527380D01*
X95471000Y-33527380D01*
X95613857Y-33575000D01*
X95709095Y-33670238D01*
X95756714Y-33765476D01*
X95804333Y-33955952D01*
X95804333Y-34098809D01*
X95756714Y-34289285D01*
X95709095Y-34384523D01*
X95613857Y-34479761D01*
X95471000Y-34527380D01*
X95232904Y-34527380D01*
X96709095Y-33527380D02*
X96232904Y-33527380D01*
X96185285Y-34003571D01*
X96232904Y-33955952D01*
X96328142Y-33908333D01*
X96566238Y-33908333D01*
X96661476Y-33955952D01*
X96709095Y-34003571D01*
X96756714Y-34098809D01*
X96756714Y-34336904D01*
X96709095Y-34432142D01*
X96661476Y-34479761D01*
X96566238Y-34527380D01*
X96328142Y-34527380D01*
X96232904Y-34479761D01*
X96185285Y-34432142D01*
X101582904Y-34527380D02*
X101582904Y-33527380D01*
X101821000Y-33527380D01*
X101963857Y-33575000D01*
X102059095Y-33670238D01*
X102106714Y-33765476D01*
X102154333Y-33955952D01*
X102154333Y-34098809D01*
X102106714Y-34289285D01*
X102059095Y-34384523D01*
X101963857Y-34479761D01*
X101821000Y-34527380D01*
X101582904Y-34527380D01*
X103011476Y-33860714D02*
X103011476Y-34527380D01*
X102773380Y-33479761D02*
X102535285Y-34194047D01*
X103154333Y-34194047D01*
X107932904Y-34527380D02*
X107932904Y-33527380D01*
X108171000Y-33527380D01*
X108313857Y-33575000D01*
X108409095Y-33670238D01*
X108456714Y-33765476D01*
X108504333Y-33955952D01*
X108504333Y-34098809D01*
X108456714Y-34289285D01*
X108409095Y-34384523D01*
X108313857Y-34479761D01*
X108171000Y-34527380D01*
X107932904Y-34527380D01*
X108837666Y-33527380D02*
X109456714Y-33527380D01*
X109123380Y-33908333D01*
X109266238Y-33908333D01*
X109361476Y-33955952D01*
X109409095Y-34003571D01*
X109456714Y-34098809D01*
X109456714Y-34336904D01*
X109409095Y-34432142D01*
X109361476Y-34479761D01*
X109266238Y-34527380D01*
X108980523Y-34527380D01*
X108885285Y-34479761D01*
X108837666Y-34432142D01*
X114282904Y-34527380D02*
X114282904Y-33527380D01*
X114521000Y-33527380D01*
X114663857Y-33575000D01*
X114759095Y-33670238D01*
X114806714Y-33765476D01*
X114854333Y-33955952D01*
X114854333Y-34098809D01*
X114806714Y-34289285D01*
X114759095Y-34384523D01*
X114663857Y-34479761D01*
X114521000Y-34527380D01*
X114282904Y-34527380D01*
X115235285Y-33622619D02*
X115282904Y-33575000D01*
X115378142Y-33527380D01*
X115616238Y-33527380D01*
X115711476Y-33575000D01*
X115759095Y-33622619D01*
X115806714Y-33717857D01*
X115806714Y-33813095D01*
X115759095Y-33955952D01*
X115187666Y-34527380D01*
X115806714Y-34527380D01*
X123251904Y-25002380D02*
X123251904Y-24002380D01*
X123490000Y-24002380D01*
X123632857Y-24050000D01*
X123728095Y-24145238D01*
X123775714Y-24240476D01*
X123823333Y-24430952D01*
X123823333Y-24573809D01*
X123775714Y-24764285D01*
X123728095Y-24859523D01*
X123632857Y-24954761D01*
X123490000Y-25002380D01*
X123251904Y-25002380D01*
X124775714Y-25002380D02*
X124204285Y-25002380D01*
X124490000Y-25002380D02*
X124490000Y-24002380D01*
X124394761Y-24145238D01*
X124299523Y-24240476D01*
X124204285Y-24288095D01*
X123166142Y-31352380D02*
X122832809Y-30876190D01*
X122594714Y-31352380D02*
X122594714Y-30352380D01*
X122975666Y-30352380D01*
X123070904Y-30400000D01*
X123118523Y-30447619D01*
X123166142Y-30542857D01*
X123166142Y-30685714D01*
X123118523Y-30780952D01*
X123070904Y-30828571D01*
X122975666Y-30876190D01*
X122594714Y-30876190D01*
X123594714Y-30828571D02*
X123928047Y-30828571D01*
X124070904Y-31352380D02*
X123594714Y-31352380D01*
X123594714Y-30352380D01*
X124070904Y-30352380D01*
X124499476Y-31352380D02*
X124499476Y-30352380D01*
X124737571Y-30352380D01*
X124880428Y-30400000D01*
X124975666Y-30495238D01*
X125023285Y-30590476D01*
X125070904Y-30780952D01*
X125070904Y-30923809D01*
X125023285Y-31114285D01*
X124975666Y-31209523D01*
X124880428Y-31304761D01*
X124737571Y-31352380D01*
X124499476Y-31352380D01*
X39987523Y-6618142D02*
X39939904Y-6665761D01*
X39797047Y-6713380D01*
X39701809Y-6713380D01*
X39558952Y-6665761D01*
X39463714Y-6570523D01*
X39416095Y-6475285D01*
X39368476Y-6284809D01*
X39368476Y-6141952D01*
X39416095Y-5951476D01*
X39463714Y-5856238D01*
X39558952Y-5761000D01*
X39701809Y-5713380D01*
X39797047Y-5713380D01*
X39939904Y-5761000D01*
X39987523Y-5808619D01*
X40416095Y-6713380D02*
X40416095Y-5713380D01*
X40987523Y-6713380D01*
X40987523Y-5713380D01*
X41416095Y-5808619D02*
X41463714Y-5761000D01*
X41558952Y-5713380D01*
X41797047Y-5713380D01*
X41892285Y-5761000D01*
X41939904Y-5808619D01*
X41987523Y-5903857D01*
X41987523Y-5999095D01*
X41939904Y-6141952D01*
X41368476Y-6713380D01*
X41987523Y-6713380D01*
X108583333Y-27192142D02*
X108535714Y-27239761D01*
X108392857Y-27287380D01*
X108297619Y-27287380D01*
X108154761Y-27239761D01*
X108059523Y-27144523D01*
X108011904Y-27049285D01*
X107964285Y-26858809D01*
X107964285Y-26715952D01*
X108011904Y-26525476D01*
X108059523Y-26430238D01*
X108154761Y-26335000D01*
X108297619Y-26287380D01*
X108392857Y-26287380D01*
X108535714Y-26335000D01*
X108583333Y-26382619D01*
X109440476Y-26287380D02*
X109250000Y-26287380D01*
X109154761Y-26335000D01*
X109107142Y-26382619D01*
X109011904Y-26525476D01*
X108964285Y-26715952D01*
X108964285Y-27096904D01*
X109011904Y-27192142D01*
X109059523Y-27239761D01*
X109154761Y-27287380D01*
X109345238Y-27287380D01*
X109440476Y-27239761D01*
X109488095Y-27192142D01*
X109535714Y-27096904D01*
X109535714Y-26858809D01*
X109488095Y-26763571D01*
X109440476Y-26715952D01*
X109345238Y-26668333D01*
X109154761Y-26668333D01*
X109059523Y-26715952D01*
X109011904Y-26763571D01*
X108964285Y-26858809D01*
X110742380Y-31295714D02*
X110742380Y-31200476D01*
X110790000Y-31105238D01*
X110837619Y-31057619D01*
X110932857Y-31010000D01*
X111123333Y-30962380D01*
X111361428Y-30962380D01*
X111551904Y-31010000D01*
X111647142Y-31057619D01*
X111694761Y-31105238D01*
X111742380Y-31200476D01*
X111742380Y-31295714D01*
X111694761Y-31390952D01*
X111647142Y-31438571D01*
X111551904Y-31486190D01*
X111361428Y-31533809D01*
X111123333Y-31533809D01*
X110932857Y-31486190D01*
X110837619Y-31438571D01*
X110790000Y-31390952D01*
X110742380Y-31295714D01*
X111647142Y-30533809D02*
X111694761Y-30486190D01*
X111742380Y-30533809D01*
X111694761Y-30581428D01*
X111647142Y-30533809D01*
X111742380Y-30533809D01*
X111742380Y-29533809D02*
X111742380Y-30105238D01*
X111742380Y-29819523D02*
X110742380Y-29819523D01*
X110885238Y-29914761D01*
X110980476Y-30010000D01*
X111028095Y-30105238D01*
X110742380Y-29105238D02*
X111551904Y-29105238D01*
X111647142Y-29057619D01*
X111694761Y-29010000D01*
X111742380Y-28914761D01*
X111742380Y-28724285D01*
X111694761Y-28629047D01*
X111647142Y-28581428D01*
X111551904Y-28533809D01*
X110742380Y-28533809D01*
X104773333Y-27192142D02*
X104725714Y-27239761D01*
X104582857Y-27287380D01*
X104487619Y-27287380D01*
X104344761Y-27239761D01*
X104249523Y-27144523D01*
X104201904Y-27049285D01*
X104154285Y-26858809D01*
X104154285Y-26715952D01*
X104201904Y-26525476D01*
X104249523Y-26430238D01*
X104344761Y-26335000D01*
X104487619Y-26287380D01*
X104582857Y-26287380D01*
X104725714Y-26335000D01*
X104773333Y-26382619D01*
X105678095Y-26287380D02*
X105201904Y-26287380D01*
X105154285Y-26763571D01*
X105201904Y-26715952D01*
X105297142Y-26668333D01*
X105535238Y-26668333D01*
X105630476Y-26715952D01*
X105678095Y-26763571D01*
X105725714Y-26858809D01*
X105725714Y-27096904D01*
X105678095Y-27192142D01*
X105630476Y-27239761D01*
X105535238Y-27287380D01*
X105297142Y-27287380D01*
X105201904Y-27239761D01*
X105154285Y-27192142D01*
X84354333Y-1402142D02*
X84306714Y-1449761D01*
X84163857Y-1497380D01*
X84068619Y-1497380D01*
X83925761Y-1449761D01*
X83830523Y-1354523D01*
X83782904Y-1259285D01*
X83735285Y-1068809D01*
X83735285Y-925952D01*
X83782904Y-735476D01*
X83830523Y-640238D01*
X83925761Y-545000D01*
X84068619Y-497380D01*
X84163857Y-497380D01*
X84306714Y-545000D01*
X84354333Y-592619D01*
X84687666Y-497380D02*
X85306714Y-497380D01*
X84973380Y-878333D01*
X85116238Y-878333D01*
X85211476Y-925952D01*
X85259095Y-973571D01*
X85306714Y-1068809D01*
X85306714Y-1306904D01*
X85259095Y-1402142D01*
X85211476Y-1449761D01*
X85116238Y-1497380D01*
X84830523Y-1497380D01*
X84735285Y-1449761D01*
X84687666Y-1402142D01*
X83235285Y-5597380D02*
X83330523Y-5597380D01*
X83425761Y-5645000D01*
X83473380Y-5692619D01*
X83521000Y-5787857D01*
X83568619Y-5978333D01*
X83568619Y-6216428D01*
X83521000Y-6406904D01*
X83473380Y-6502142D01*
X83425761Y-6549761D01*
X83330523Y-6597380D01*
X83235285Y-6597380D01*
X83140047Y-6549761D01*
X83092428Y-6502142D01*
X83044809Y-6406904D01*
X82997190Y-6216428D01*
X82997190Y-5978333D01*
X83044809Y-5787857D01*
X83092428Y-5692619D01*
X83140047Y-5645000D01*
X83235285Y-5597380D01*
X83997190Y-6502142D02*
X84044809Y-6549761D01*
X83997190Y-6597380D01*
X83949571Y-6549761D01*
X83997190Y-6502142D01*
X83997190Y-6597380D01*
X84997190Y-6597380D02*
X84425761Y-6597380D01*
X84711476Y-6597380D02*
X84711476Y-5597380D01*
X84616238Y-5740238D01*
X84521000Y-5835476D01*
X84425761Y-5883095D01*
X85425761Y-5597380D02*
X85425761Y-6406904D01*
X85473380Y-6502142D01*
X85521000Y-6549761D01*
X85616238Y-6597380D01*
X85806714Y-6597380D01*
X85901952Y-6549761D01*
X85949571Y-6502142D01*
X85997190Y-6406904D01*
X85997190Y-5597380D01*
X83183333Y-27192142D02*
X83135714Y-27239761D01*
X82992857Y-27287380D01*
X82897619Y-27287380D01*
X82754761Y-27239761D01*
X82659523Y-27144523D01*
X82611904Y-27049285D01*
X82564285Y-26858809D01*
X82564285Y-26715952D01*
X82611904Y-26525476D01*
X82659523Y-26430238D01*
X82754761Y-26335000D01*
X82897619Y-26287380D01*
X82992857Y-26287380D01*
X83135714Y-26335000D01*
X83183333Y-26382619D01*
X83564285Y-26382619D02*
X83611904Y-26335000D01*
X83707142Y-26287380D01*
X83945238Y-26287380D01*
X84040476Y-26335000D01*
X84088095Y-26382619D01*
X84135714Y-26477857D01*
X84135714Y-26573095D01*
X84088095Y-26715952D01*
X83516666Y-27287380D01*
X84135714Y-27287380D01*
X80252380Y-31295714D02*
X80252380Y-31200476D01*
X80300000Y-31105238D01*
X80347619Y-31057619D01*
X80442857Y-31010000D01*
X80633333Y-30962380D01*
X80871428Y-30962380D01*
X81061904Y-31010000D01*
X81157142Y-31057619D01*
X81204761Y-31105238D01*
X81252380Y-31200476D01*
X81252380Y-31295714D01*
X81204761Y-31390952D01*
X81157142Y-31438571D01*
X81061904Y-31486190D01*
X80871428Y-31533809D01*
X80633333Y-31533809D01*
X80442857Y-31486190D01*
X80347619Y-31438571D01*
X80300000Y-31390952D01*
X80252380Y-31295714D01*
X81157142Y-30533809D02*
X81204761Y-30486190D01*
X81252380Y-30533809D01*
X81204761Y-30581428D01*
X81157142Y-30533809D01*
X81252380Y-30533809D01*
X81252380Y-29533809D02*
X81252380Y-30105238D01*
X81252380Y-29819523D02*
X80252380Y-29819523D01*
X80395238Y-29914761D01*
X80490476Y-30010000D01*
X80538095Y-30105238D01*
X80252380Y-29105238D02*
X81061904Y-29105238D01*
X81157142Y-29057619D01*
X81204761Y-29010000D01*
X81252380Y-28914761D01*
X81252380Y-28724285D01*
X81204761Y-28629047D01*
X81157142Y-28581428D01*
X81061904Y-28533809D01*
X80252380Y-28533809D01*
X123803333Y-17785142D02*
X123755714Y-17832761D01*
X123612857Y-17880380D01*
X123517619Y-17880380D01*
X123374761Y-17832761D01*
X123279523Y-17737523D01*
X123231904Y-17642285D01*
X123184285Y-17451809D01*
X123184285Y-17308952D01*
X123231904Y-17118476D01*
X123279523Y-17023238D01*
X123374761Y-16928000D01*
X123517619Y-16880380D01*
X123612857Y-16880380D01*
X123755714Y-16928000D01*
X123803333Y-16975619D01*
X124755714Y-17880380D02*
X124184285Y-17880380D01*
X124470000Y-17880380D02*
X124470000Y-16880380D01*
X124374761Y-17023238D01*
X124279523Y-17118476D01*
X124184285Y-17166095D01*
X122446190Y-22075619D02*
X122493809Y-22028000D01*
X122589047Y-21980380D01*
X122827142Y-21980380D01*
X122922380Y-22028000D01*
X122970000Y-22075619D01*
X123017619Y-22170857D01*
X123017619Y-22266095D01*
X122970000Y-22408952D01*
X122398571Y-22980380D01*
X123017619Y-22980380D01*
X123446190Y-22885142D02*
X123493809Y-22932761D01*
X123446190Y-22980380D01*
X123398571Y-22932761D01*
X123446190Y-22885142D01*
X123446190Y-22980380D01*
X123874761Y-22075619D02*
X123922380Y-22028000D01*
X124017619Y-21980380D01*
X124255714Y-21980380D01*
X124350952Y-22028000D01*
X124398571Y-22075619D01*
X124446190Y-22170857D01*
X124446190Y-22266095D01*
X124398571Y-22408952D01*
X123827142Y-22980380D01*
X124446190Y-22980380D01*
X124874761Y-21980380D02*
X124874761Y-22789904D01*
X124922380Y-22885142D01*
X124970000Y-22932761D01*
X125065238Y-22980380D01*
X125255714Y-22980380D01*
X125350952Y-22932761D01*
X125398571Y-22885142D01*
X125446190Y-22789904D01*
X125446190Y-21980380D01*
%LPC*%
D13*
X87160000Y-31240000D03*
X87160000Y-28740000D03*
D14*
X127650000Y-8150000D03*
X127650000Y-15450000D03*
D15*
X122600000Y-10200000D03*
X123800000Y-11000000D03*
X122600000Y-11800000D03*
X122600000Y-13400000D03*
X123800000Y-12600000D03*
D16*
X70317000Y-50331000D03*
X70317000Y-45251000D03*
X70317000Y-47791000D03*
X76667000Y-50331000D03*
X76667000Y-45251000D03*
X76667000Y-47791000D03*
X83017000Y-50331000D03*
X83017000Y-45251000D03*
X83017000Y-47791000D03*
X89367000Y-50331000D03*
X89367000Y-45251000D03*
X89367000Y-47791000D03*
X95717000Y-50331000D03*
X95717000Y-45251000D03*
X95717000Y-47791000D03*
X102067000Y-50331000D03*
X102067000Y-45251000D03*
X102067000Y-47791000D03*
X108417000Y-50331000D03*
X108417000Y-45251000D03*
X108417000Y-47791000D03*
X114767000Y-50331000D03*
X114767000Y-45251000D03*
X114767000Y-47791000D03*
D17*
X93710000Y-29630000D03*
X98590000Y-29630000D03*
D18*
X47155000Y-23660000D03*
X29375000Y-16040000D03*
X44615000Y-23660000D03*
X31915000Y-16040000D03*
X42075000Y-23660000D03*
X34455000Y-16040000D03*
X39535000Y-23660000D03*
X36995000Y-16040000D03*
X36995000Y-23660000D03*
X39535000Y-16040000D03*
X34455000Y-23660000D03*
X42075000Y-16040000D03*
X31915000Y-23660000D03*
X44615000Y-16040000D03*
X29375000Y-23660000D03*
G36*
G01*
X46355000Y-14740000D02*
X47955000Y-14740000D01*
G75*
G02*
X48055000Y-14840000I0J-100000D01*
G01*
X48055000Y-17240000D01*
G75*
G02*
X47955000Y-17340000I-100000J0D01*
G01*
X46355000Y-17340000D01*
G75*
G02*
X46255000Y-17240000I0J100000D01*
G01*
X46255000Y-14840000D01*
G75*
G02*
X46355000Y-14740000I100000J0D01*
G01*
G37*
D16*
X36995000Y-39837000D03*
X36995000Y-29837000D03*
X34455000Y-39837000D03*
X34455000Y-29837000D03*
X31915000Y-39837000D03*
X31915000Y-29837000D03*
X29375000Y-39837000D03*
X29375000Y-29837000D03*
X26835000Y-39837000D03*
X26835000Y-29837000D03*
X24295000Y-39837000D03*
X24295000Y-29837000D03*
X21755000Y-39837000D03*
X21755000Y-29837000D03*
G36*
G01*
X18415000Y-40537000D02*
X18415000Y-39137000D01*
G75*
G02*
X18515000Y-39037000I100000J0D01*
G01*
X19915000Y-39037000D01*
G75*
G02*
X20015000Y-39137000I0J-100000D01*
G01*
X20015000Y-40537000D01*
G75*
G02*
X19915000Y-40637000I-100000J0D01*
G01*
X18515000Y-40637000D01*
G75*
G02*
X18415000Y-40537000I0J100000D01*
G01*
G37*
X19215000Y-29837000D03*
D18*
X63030000Y-8420000D03*
X111290000Y-23660000D03*
X65570000Y-8420000D03*
X108750000Y-23660000D03*
X68110000Y-8420000D03*
X106210000Y-23660000D03*
X70650000Y-8420000D03*
X103670000Y-23660000D03*
X73190000Y-8420000D03*
X101130000Y-23660000D03*
X75730000Y-8420000D03*
X98590000Y-23660000D03*
X78270000Y-8420000D03*
X96050000Y-23660000D03*
X80810000Y-8420000D03*
X93510000Y-23660000D03*
X83350000Y-8420000D03*
X90970000Y-23660000D03*
X85890000Y-8420000D03*
X88430000Y-23660000D03*
X88430000Y-8420000D03*
X85890000Y-23660000D03*
X90970000Y-8420000D03*
X83350000Y-23660000D03*
X93510000Y-8420000D03*
X80810000Y-23660000D03*
X96050000Y-8420000D03*
X78270000Y-23660000D03*
X98590000Y-8420000D03*
X75730000Y-23660000D03*
X101130000Y-8420000D03*
X73190000Y-23660000D03*
X103670000Y-8420000D03*
X70650000Y-23660000D03*
X106210000Y-8420000D03*
X68110000Y-23660000D03*
X108750000Y-8420000D03*
X65570000Y-23660000D03*
X111290000Y-8420000D03*
G36*
G01*
X63830000Y-24960000D02*
X62230000Y-24960000D01*
G75*
G02*
X62130000Y-24860000I0J100000D01*
G01*
X62130000Y-22460000D01*
G75*
G02*
X62230000Y-22360000I100000J0D01*
G01*
X63830000Y-22360000D01*
G75*
G02*
X63930000Y-22460000I0J-100000D01*
G01*
X63930000Y-24860000D01*
G75*
G02*
X63830000Y-24960000I-100000J0D01*
G01*
G37*
D19*
X16111000Y-46013000D03*
X16111000Y-50513000D03*
X9611000Y-46013000D03*
X9611000Y-50513000D03*
X31732000Y-46013000D03*
X31732000Y-50513000D03*
X25232000Y-46013000D03*
X25232000Y-50513000D03*
X47226000Y-46013000D03*
X47226000Y-50513000D03*
X40726000Y-46013000D03*
X40726000Y-50513000D03*
D20*
X5245000Y-16040000D03*
X7785000Y-16040000D03*
X10325000Y-16040000D03*
X12865000Y-16040000D03*
X15405000Y-16040000D03*
X17945000Y-16040000D03*
X20485000Y-16040000D03*
G36*
G01*
X23925000Y-15240000D02*
X23925000Y-16840000D01*
G75*
G02*
X23825000Y-16940000I-100000J0D01*
G01*
X22225000Y-16940000D01*
G75*
G02*
X22125000Y-16840000I0J100000D01*
G01*
X22125000Y-15240000D01*
G75*
G02*
X22225000Y-15140000I100000J0D01*
G01*
X23825000Y-15140000D01*
G75*
G02*
X23925000Y-15240000I0J-100000D01*
G01*
G37*
X5245000Y-23660000D03*
X7785000Y-23660000D03*
X10325000Y-23660000D03*
X12865000Y-23660000D03*
X15405000Y-23660000D03*
X17945000Y-23660000D03*
X20485000Y-23660000D03*
G36*
G01*
X23925000Y-22860000D02*
X23925000Y-24460000D01*
G75*
G02*
X23825000Y-24560000I-100000J0D01*
G01*
X22225000Y-24560000D01*
G75*
G02*
X22125000Y-24460000I0J100000D01*
G01*
X22125000Y-22860000D01*
G75*
G02*
X22225000Y-22760000I100000J0D01*
G01*
X23825000Y-22760000D01*
G75*
G02*
X23925000Y-22860000I0J-100000D01*
G01*
G37*
X56680000Y-31026000D03*
X56680000Y-33566000D03*
X56680000Y-36106000D03*
X56680000Y-38646000D03*
X56680000Y-41186000D03*
X56680000Y-43726000D03*
X56680000Y-46266000D03*
G36*
G01*
X57480000Y-49706000D02*
X55880000Y-49706000D01*
G75*
G02*
X55780000Y-49606000I0J100000D01*
G01*
X55780000Y-48006000D01*
G75*
G02*
X55880000Y-47906000I100000J0D01*
G01*
X57480000Y-47906000D01*
G75*
G02*
X57580000Y-48006000I0J-100000D01*
G01*
X57580000Y-49606000D01*
G75*
G02*
X57480000Y-49706000I-100000J0D01*
G01*
G37*
X63030000Y-31026000D03*
X63030000Y-33566000D03*
X63030000Y-36106000D03*
X63030000Y-38646000D03*
X63030000Y-41186000D03*
X63030000Y-43726000D03*
X63030000Y-46266000D03*
G36*
G01*
X63830000Y-49706000D02*
X62230000Y-49706000D01*
G75*
G02*
X62130000Y-49606000I0J100000D01*
G01*
X62130000Y-48006000D01*
G75*
G02*
X62230000Y-47906000I100000J0D01*
G01*
X63830000Y-47906000D01*
G75*
G02*
X63930000Y-48006000I0J-100000D01*
G01*
X63930000Y-49606000D01*
G75*
G02*
X63830000Y-49706000I-100000J0D01*
G01*
G37*
X97241000Y-3595000D03*
D13*
X89621000Y-3595000D03*
D20*
X101051000Y-3595000D03*
D13*
X108671000Y-3595000D03*
D20*
X62951000Y-3595000D03*
D13*
X70571000Y-3595000D03*
D20*
X125260000Y-42075000D03*
D13*
X125260000Y-34455000D03*
D21*
X70571000Y-36234000D03*
G36*
G01*
X71471000Y-39774000D02*
X69671000Y-39774000D01*
G75*
G02*
X69571000Y-39674000I0J100000D01*
G01*
X69571000Y-37874000D01*
G75*
G02*
X69671000Y-37774000I100000J0D01*
G01*
X71471000Y-37774000D01*
G75*
G02*
X71571000Y-37874000I0J-100000D01*
G01*
X71571000Y-39674000D01*
G75*
G02*
X71471000Y-39774000I-100000J0D01*
G01*
G37*
X76921000Y-36234000D03*
G36*
G01*
X77821000Y-39774000D02*
X76021000Y-39774000D01*
G75*
G02*
X75921000Y-39674000I0J100000D01*
G01*
X75921000Y-37874000D01*
G75*
G02*
X76021000Y-37774000I100000J0D01*
G01*
X77821000Y-37774000D01*
G75*
G02*
X77921000Y-37874000I0J-100000D01*
G01*
X77921000Y-39674000D01*
G75*
G02*
X77821000Y-39774000I-100000J0D01*
G01*
G37*
X83271000Y-36234000D03*
G36*
G01*
X84171000Y-39774000D02*
X82371000Y-39774000D01*
G75*
G02*
X82271000Y-39674000I0J100000D01*
G01*
X82271000Y-37874000D01*
G75*
G02*
X82371000Y-37774000I100000J0D01*
G01*
X84171000Y-37774000D01*
G75*
G02*
X84271000Y-37874000I0J-100000D01*
G01*
X84271000Y-39674000D01*
G75*
G02*
X84171000Y-39774000I-100000J0D01*
G01*
G37*
X89621000Y-36234000D03*
G36*
G01*
X90521000Y-39774000D02*
X88721000Y-39774000D01*
G75*
G02*
X88621000Y-39674000I0J100000D01*
G01*
X88621000Y-37874000D01*
G75*
G02*
X88721000Y-37774000I100000J0D01*
G01*
X90521000Y-37774000D01*
G75*
G02*
X90621000Y-37874000I0J-100000D01*
G01*
X90621000Y-39674000D01*
G75*
G02*
X90521000Y-39774000I-100000J0D01*
G01*
G37*
X95971000Y-36234000D03*
G36*
G01*
X96871000Y-39774000D02*
X95071000Y-39774000D01*
G75*
G02*
X94971000Y-39674000I0J100000D01*
G01*
X94971000Y-37874000D01*
G75*
G02*
X95071000Y-37774000I100000J0D01*
G01*
X96871000Y-37774000D01*
G75*
G02*
X96971000Y-37874000I0J-100000D01*
G01*
X96971000Y-39674000D01*
G75*
G02*
X96871000Y-39774000I-100000J0D01*
G01*
G37*
X102321000Y-36234000D03*
G36*
G01*
X103221000Y-39774000D02*
X101421000Y-39774000D01*
G75*
G02*
X101321000Y-39674000I0J100000D01*
G01*
X101321000Y-37874000D01*
G75*
G02*
X101421000Y-37774000I100000J0D01*
G01*
X103221000Y-37774000D01*
G75*
G02*
X103321000Y-37874000I0J-100000D01*
G01*
X103321000Y-39674000D01*
G75*
G02*
X103221000Y-39774000I-100000J0D01*
G01*
G37*
X108671000Y-36234000D03*
G36*
G01*
X109571000Y-39774000D02*
X107771000Y-39774000D01*
G75*
G02*
X107671000Y-39674000I0J100000D01*
G01*
X107671000Y-37874000D01*
G75*
G02*
X107771000Y-37774000I100000J0D01*
G01*
X109571000Y-37774000D01*
G75*
G02*
X109671000Y-37874000I0J-100000D01*
G01*
X109671000Y-39674000D01*
G75*
G02*
X109571000Y-39774000I-100000J0D01*
G01*
G37*
X115021000Y-36234000D03*
G36*
G01*
X115921000Y-39774000D02*
X114121000Y-39774000D01*
G75*
G02*
X114021000Y-39674000I0J100000D01*
G01*
X114021000Y-37874000D01*
G75*
G02*
X114121000Y-37774000I100000J0D01*
G01*
X115921000Y-37774000D01*
G75*
G02*
X116021000Y-37874000I0J-100000D01*
G01*
X116021000Y-39674000D01*
G75*
G02*
X115921000Y-39774000I-100000J0D01*
G01*
G37*
X122720000Y-27598000D03*
G36*
G01*
X126260000Y-26698000D02*
X126260000Y-28498000D01*
G75*
G02*
X126160000Y-28598000I-100000J0D01*
G01*
X124360000Y-28598000D01*
G75*
G02*
X124260000Y-28498000I0J100000D01*
G01*
X124260000Y-26698000D01*
G75*
G02*
X124360000Y-26598000I100000J0D01*
G01*
X126160000Y-26598000D01*
G75*
G02*
X126260000Y-26698000I0J-100000D01*
G01*
G37*
D22*
X34455000Y-3594000D03*
X36995000Y-3594000D03*
X39535000Y-3594000D03*
X42075000Y-3594000D03*
X44615000Y-3594000D03*
G36*
G01*
X46305000Y-2644000D02*
X48005000Y-2644000D01*
G75*
G02*
X48105000Y-2744000I0J-100000D01*
G01*
X48105000Y-4444000D01*
G75*
G02*
X48005000Y-4544000I-100000J0D01*
G01*
X46305000Y-4544000D01*
G75*
G02*
X46205000Y-4444000I0J100000D01*
G01*
X46205000Y-2744000D01*
G75*
G02*
X46305000Y-2644000I100000J0D01*
G01*
G37*
D13*
X108750000Y-31240000D03*
X108750000Y-28740000D03*
X104940000Y-28740000D03*
X104940000Y-31240000D03*
X85771000Y-3595000D03*
X83271000Y-3595000D03*
X83350000Y-31240000D03*
X83350000Y-28740000D03*
X125220000Y-19978000D03*
X122720000Y-19978000D03*
D23*
X10325000Y-19850000D03*
X15405000Y-19850000D03*
X2705000Y-2705000D03*
X2705000Y-52235000D03*
X127165000Y-52235000D03*
X127165000Y-3340000D03*
X97320000Y-5880000D03*
X80175000Y-3340000D03*
X92240000Y-15405000D03*
X97320000Y-10325000D03*
X103035000Y-13500000D03*
X22390000Y-19850000D03*
X7150000Y-19850000D03*
X2705000Y-18580000D03*
X2705000Y-35090000D03*
X12230000Y-27470000D03*
X19215000Y-36995000D03*
X33185000Y-27470000D03*
X39535000Y-19850000D03*
X29375000Y-2705000D03*
X35725000Y-35090000D03*
X57315000Y-10325000D03*
X66205000Y-31280000D03*
X82080000Y-12865000D03*
X59855000Y-23660000D03*
X120180000Y-14770000D03*
X102400000Y-5880000D03*
X127165000Y-37630000D03*
X127165000Y-23025000D03*
X106845000Y-16675000D03*
X111290000Y-26835000D03*
X116370000Y-19850000D03*
X50330000Y-43980000D03*
X113830000Y-8420000D03*
X66840000Y-5880000D03*
X110020000Y-1435000D03*
X58585000Y-7150000D03*
X59855000Y-6515000D03*
X54140000Y-26200000D03*
X87160000Y-10960000D03*
X85890000Y-11595000D03*
M02*
