%FSLAX45Y45*%
G04 Gerber Fmt 4.5, Leading zero omitted, Abs format (unit mm)*
G04 Created by KiCad (PCBNEW (5.1.12)-1) date 2022-05-02 15:45:26*
%MOMM*%
%LPD*%
G01*
G04 APERTURE LIST*
%TA.AperFunction,Profile*%
%ADD10C,0.200000*%
%TD*%
%ADD11C,0.200000*%
%ADD12C,0.300000*%
G04 APERTURE END LIST*
D10*
X0Y-5500000D02*
X0Y0D01*
X13000000Y-5500000D02*
X0Y-5500000D01*
X13000000Y0D02*
X13000000Y-5500000D01*
X0Y0D02*
X13000000Y0D01*
D11*
X255500Y-255500D02*
X285500Y-285500D01*
X285500Y-255500D02*
X255500Y-285500D01*
X255500Y-1843000D02*
X285500Y-1873000D01*
X285500Y-1843000D02*
X255500Y-1873000D01*
X255500Y-3494000D02*
X285500Y-3524000D01*
X285500Y-3494000D02*
X255500Y-3524000D01*
X255500Y-5208500D02*
X285500Y-5238500D01*
X285500Y-5208500D02*
X255500Y-5238500D01*
X700000Y-1970000D02*
X730000Y-2000000D01*
X730000Y-1970000D02*
X700000Y-2000000D01*
X1017500Y-1970000D02*
X1047500Y-2000000D01*
X1047500Y-1970000D02*
X1017500Y-2000000D01*
X1208000Y-2732000D02*
X1238000Y-2762000D01*
X1238000Y-2732000D02*
X1208000Y-2762000D01*
X1525500Y-1970000D02*
X1555500Y-2000000D01*
X1555500Y-1970000D02*
X1525500Y-2000000D01*
X1906500Y-3684500D02*
X1936500Y-3714500D01*
X1936500Y-3684500D02*
X1906500Y-3714500D01*
X2224000Y-1970000D02*
X2254000Y-2000000D01*
X2254000Y-1970000D02*
X2224000Y-2000000D01*
X2922500Y-255500D02*
X2952500Y-285500D01*
X2952500Y-255500D02*
X2922500Y-285500D01*
X3303500Y-2732000D02*
X3333500Y-2762000D01*
X3333500Y-2732000D02*
X3303500Y-2762000D01*
X3557500Y-3494000D02*
X3587500Y-3524000D01*
X3587500Y-3494000D02*
X3557500Y-3524000D01*
X3938500Y-1970000D02*
X3968500Y-2000000D01*
X3968500Y-1970000D02*
X3938500Y-2000000D01*
X5018000Y-4383000D02*
X5048000Y-4413000D01*
X5048000Y-4383000D02*
X5018000Y-4413000D01*
X5399000Y-2605000D02*
X5429000Y-2635000D01*
X5429000Y-2605000D02*
X5399000Y-2635000D01*
X5716500Y-1017500D02*
X5746500Y-1047500D01*
X5746500Y-1017500D02*
X5716500Y-1047500D01*
X5843500Y-700000D02*
X5873500Y-730000D01*
X5873500Y-700000D02*
X5843500Y-730000D01*
X5970500Y-636500D02*
X6000500Y-666500D01*
X6000500Y-636500D02*
X5970500Y-666500D01*
X5970500Y-2351000D02*
X6000500Y-2381000D01*
X6000500Y-2351000D02*
X5970500Y-2381000D01*
X6605500Y-3113000D02*
X6635500Y-3143000D01*
X6635500Y-3113000D02*
X6605500Y-3143000D01*
X6669000Y-573000D02*
X6699000Y-603000D01*
X6699000Y-573000D02*
X6669000Y-603000D01*
X8002500Y-319000D02*
X8032500Y-349000D01*
X8032500Y-319000D02*
X8002500Y-349000D01*
X8193000Y-1271500D02*
X8223000Y-1301500D01*
X8223000Y-1271500D02*
X8193000Y-1301500D01*
X8574000Y-1144500D02*
X8604000Y-1174500D01*
X8604000Y-1144500D02*
X8574000Y-1174500D01*
X8701000Y-1081000D02*
X8731000Y-1111000D01*
X8731000Y-1081000D02*
X8701000Y-1111000D01*
X9209000Y-1525500D02*
X9239000Y-1555500D01*
X9239000Y-1525500D02*
X9209000Y-1555500D01*
X9717000Y-573000D02*
X9747000Y-603000D01*
X9747000Y-573000D02*
X9717000Y-603000D01*
X9717000Y-1017500D02*
X9747000Y-1047500D01*
X9747000Y-1017500D02*
X9717000Y-1047500D01*
X10225000Y-573000D02*
X10255000Y-603000D01*
X10255000Y-573000D02*
X10225000Y-603000D01*
X10288500Y-1335000D02*
X10318500Y-1365000D01*
X10318500Y-1335000D02*
X10288500Y-1365000D01*
X10669500Y-1652500D02*
X10699500Y-1682500D01*
X10699500Y-1652500D02*
X10669500Y-1682500D01*
X10987000Y-128500D02*
X11017000Y-158500D01*
X11017000Y-128500D02*
X10987000Y-158500D01*
X11114000Y-2668500D02*
X11144000Y-2698500D01*
X11144000Y-2668500D02*
X11114000Y-2698500D01*
X11368000Y-827000D02*
X11398000Y-857000D01*
X11398000Y-827000D02*
X11368000Y-857000D01*
X11622000Y-1970000D02*
X11652000Y-2000000D01*
X11652000Y-1970000D02*
X11622000Y-2000000D01*
X12003000Y-1462000D02*
X12033000Y-1492000D01*
X12033000Y-1462000D02*
X12003000Y-1492000D01*
X12701500Y-319000D02*
X12731500Y-349000D01*
X12731500Y-319000D02*
X12701500Y-349000D01*
X12701500Y-2287500D02*
X12731500Y-2317500D01*
X12731500Y-2287500D02*
X12701500Y-2317500D01*
X12701500Y-3748000D02*
X12731500Y-3778000D01*
X12731500Y-3748000D02*
X12701500Y-3778000D01*
X12701500Y-5208500D02*
X12731500Y-5238500D01*
X12731500Y-5208500D02*
X12701500Y-5238500D01*
X12290000Y-1020000D02*
G75*
G03*
X12290000Y-1020000I-30000J0D01*
G01*
X12290000Y-1180000D02*
G75*
G03*
X12290000Y-1180000I-30000J0D01*
G01*
X12290000Y-1340000D02*
G75*
G03*
X12290000Y-1340000I-30000J0D01*
G01*
X12410000Y-1100000D02*
G75*
G03*
X12410000Y-1100000I-30000J0D01*
G01*
X12410000Y-1260000D02*
G75*
G03*
X12410000Y-1260000I-30000J0D01*
G01*
X12765000Y-780000D02*
X12765000Y-850000D01*
X12730000Y-815000D02*
X12800000Y-815000D01*
X12705000Y-840000D02*
X12825000Y-840000D01*
X12705000Y-790000D02*
X12825000Y-790000D01*
X12825000Y-840000D02*
G75*
G03*
X12825000Y-790000I0J25000D01*
G01*
X12705000Y-790000D02*
G75*
G03*
X12705000Y-840000I0J-25000D01*
G01*
X12765000Y-1510000D02*
X12765000Y-1580000D01*
X12730000Y-1545000D02*
X12800000Y-1545000D01*
X12705000Y-1570000D02*
X12825000Y-1570000D01*
X12705000Y-1520000D02*
X12825000Y-1520000D01*
X12825000Y-1570000D02*
G75*
G03*
X12825000Y-1520000I0J25000D01*
G01*
X12705000Y-1520000D02*
G75*
G03*
X12705000Y-1570000I0J-25000D01*
G01*
X552785Y-1632284D02*
X552785Y-1575715D01*
X496215Y-1575715D01*
X496215Y-1632284D01*
X552785Y-1632284D01*
X552785Y-2394285D02*
X552785Y-2337716D01*
X496215Y-2337716D01*
X496215Y-2394285D01*
X552785Y-2394285D01*
X806784Y-1632284D02*
X806784Y-1575715D01*
X750215Y-1575715D01*
X750215Y-1632284D01*
X806784Y-1632284D01*
X806784Y-2394285D02*
X806784Y-2337716D01*
X750215Y-2337716D01*
X750215Y-2394285D01*
X806784Y-2394285D01*
X1060785Y-1632284D02*
X1060785Y-1575715D01*
X1004215Y-1575715D01*
X1004215Y-1632284D01*
X1060785Y-1632284D01*
X1060785Y-2394285D02*
X1060785Y-2337716D01*
X1004215Y-2337716D01*
X1004215Y-2394285D01*
X1060785Y-2394285D01*
X1314785Y-1632284D02*
X1314785Y-1575715D01*
X1258216Y-1575715D01*
X1258216Y-1632284D01*
X1314785Y-1632284D01*
X1314785Y-2394285D02*
X1314785Y-2337716D01*
X1258216Y-2337716D01*
X1258216Y-2394285D01*
X1314785Y-2394285D01*
X1568784Y-1632284D02*
X1568784Y-1575715D01*
X1512215Y-1575715D01*
X1512215Y-1632284D01*
X1568784Y-1632284D01*
X1568784Y-2394285D02*
X1568784Y-2337716D01*
X1512215Y-2337716D01*
X1512215Y-2394285D01*
X1568784Y-2394285D01*
X1822784Y-1632284D02*
X1822784Y-1575715D01*
X1766215Y-1575715D01*
X1766215Y-1632284D01*
X1822784Y-1632284D01*
X1822784Y-2394285D02*
X1822784Y-2337716D01*
X1766215Y-2337716D01*
X1766215Y-2394285D01*
X1822784Y-2394285D01*
X1949784Y-3011984D02*
X1949784Y-2955415D01*
X1893215Y-2955415D01*
X1893215Y-3011984D01*
X1949784Y-3011984D01*
X1949784Y-4011984D02*
X1949784Y-3955415D01*
X1893215Y-3955415D01*
X1893215Y-4011984D01*
X1949784Y-4011984D01*
X2076784Y-1632284D02*
X2076784Y-1575715D01*
X2020215Y-1575715D01*
X2020215Y-1632284D01*
X2076784Y-1632284D01*
X2076784Y-2394285D02*
X2076784Y-2337716D01*
X2020215Y-2337716D01*
X2020215Y-2394285D01*
X2076784Y-2394285D01*
X2203785Y-3011984D02*
X2203785Y-2955415D01*
X2147216Y-2955415D01*
X2147216Y-3011984D01*
X2203785Y-3011984D01*
X2203785Y-4011984D02*
X2203785Y-3955415D01*
X2147216Y-3955415D01*
X2147216Y-4011984D01*
X2203785Y-4011984D01*
X2330785Y-1632284D02*
X2330785Y-1575715D01*
X2274216Y-1575715D01*
X2274216Y-1632284D01*
X2330785Y-1632284D01*
X2330785Y-2394285D02*
X2330785Y-2337716D01*
X2274216Y-2337716D01*
X2274216Y-2394285D01*
X2330785Y-2394285D01*
X2457785Y-3011984D02*
X2457785Y-2955415D01*
X2401216Y-2955415D01*
X2401216Y-3011984D01*
X2457785Y-3011984D01*
X2457785Y-4011984D02*
X2457785Y-3955415D01*
X2401216Y-3955415D01*
X2401216Y-4011984D01*
X2457785Y-4011984D01*
X2711785Y-3011984D02*
X2711785Y-2955415D01*
X2655216Y-2955415D01*
X2655216Y-3011984D01*
X2711785Y-3011984D01*
X2711785Y-4011984D02*
X2711785Y-3955415D01*
X2655216Y-3955415D01*
X2655216Y-4011984D01*
X2711785Y-4011984D01*
X2965784Y-1632284D02*
X2965784Y-1575715D01*
X2909215Y-1575715D01*
X2909215Y-1632284D01*
X2965784Y-1632284D01*
X2965784Y-2394285D02*
X2965784Y-2337716D01*
X2909215Y-2337716D01*
X2909215Y-2394285D01*
X2965784Y-2394285D01*
X2965784Y-3011984D02*
X2965784Y-2955415D01*
X2909215Y-2955415D01*
X2909215Y-3011984D01*
X2965784Y-3011984D01*
X2965784Y-4011984D02*
X2965784Y-3955415D01*
X2909215Y-3955415D01*
X2909215Y-4011984D01*
X2965784Y-4011984D01*
X3219784Y-1632284D02*
X3219784Y-1575715D01*
X3163215Y-1575715D01*
X3163215Y-1632284D01*
X3219784Y-1632284D01*
X3219784Y-2394285D02*
X3219784Y-2337716D01*
X3163215Y-2337716D01*
X3163215Y-2394285D01*
X3219784Y-2394285D01*
X3219784Y-3011984D02*
X3219784Y-2955415D01*
X3163215Y-2955415D01*
X3163215Y-3011984D01*
X3219784Y-3011984D01*
X3219784Y-4011984D02*
X3219784Y-3955415D01*
X3163215Y-3955415D01*
X3163215Y-4011984D01*
X3219784Y-4011984D01*
X3473784Y-1632284D02*
X3473784Y-1575715D01*
X3417215Y-1575715D01*
X3417215Y-1632284D01*
X3473784Y-1632284D01*
X3473784Y-2394285D02*
X3473784Y-2337716D01*
X3417215Y-2337716D01*
X3417215Y-2394285D01*
X3473784Y-2394285D01*
X3473784Y-3011984D02*
X3473784Y-2955415D01*
X3417215Y-2955415D01*
X3417215Y-3011984D01*
X3473784Y-3011984D01*
X3473784Y-4011984D02*
X3473784Y-3955415D01*
X3417215Y-3955415D01*
X3417215Y-4011984D01*
X3473784Y-4011984D01*
X3727784Y-1632284D02*
X3727784Y-1575715D01*
X3671215Y-1575715D01*
X3671215Y-1632284D01*
X3727784Y-1632284D01*
X3727784Y-2394285D02*
X3727784Y-2337716D01*
X3671215Y-2337716D01*
X3671215Y-2394285D01*
X3727784Y-2394285D01*
X3727784Y-3011984D02*
X3727784Y-2955415D01*
X3671215Y-2955415D01*
X3671215Y-3011984D01*
X3727784Y-3011984D01*
X3727784Y-4011984D02*
X3727784Y-3955415D01*
X3671215Y-3955415D01*
X3671215Y-4011984D01*
X3727784Y-4011984D01*
X3981784Y-1632284D02*
X3981784Y-1575715D01*
X3925215Y-1575715D01*
X3925215Y-1632284D01*
X3981784Y-1632284D01*
X3981784Y-2394285D02*
X3981784Y-2337716D01*
X3925215Y-2337716D01*
X3925215Y-2394285D01*
X3981784Y-2394285D01*
X4235785Y-1632284D02*
X4235785Y-1575715D01*
X4179215Y-1575715D01*
X4179215Y-1632284D01*
X4235785Y-1632284D01*
X4235785Y-2394285D02*
X4235785Y-2337716D01*
X4179215Y-2337716D01*
X4179215Y-2394285D01*
X4235785Y-2394285D01*
X4489785Y-1632284D02*
X4489785Y-1575715D01*
X4433216Y-1575715D01*
X4433216Y-1632284D01*
X4489785Y-1632284D01*
X4489785Y-2394285D02*
X4489785Y-2337716D01*
X4433216Y-2337716D01*
X4433216Y-2394285D01*
X4489785Y-2394285D01*
X4743785Y-1632284D02*
X4743785Y-1575715D01*
X4687216Y-1575715D01*
X4687216Y-1632284D01*
X4743785Y-1632284D01*
X4743785Y-2394285D02*
X4743785Y-2337716D01*
X4687216Y-2337716D01*
X4687216Y-2394285D01*
X4743785Y-2394285D01*
X5696284Y-3130884D02*
X5696284Y-3074315D01*
X5639715Y-3074315D01*
X5639715Y-3130884D01*
X5696284Y-3130884D01*
X5696284Y-3384884D02*
X5696284Y-3328315D01*
X5639715Y-3328315D01*
X5639715Y-3384884D01*
X5696284Y-3384884D01*
X5696284Y-3638884D02*
X5696284Y-3582315D01*
X5639715Y-3582315D01*
X5639715Y-3638884D01*
X5696284Y-3638884D01*
X5696284Y-3892884D02*
X5696284Y-3836315D01*
X5639715Y-3836315D01*
X5639715Y-3892884D01*
X5696284Y-3892884D01*
X5696284Y-4146884D02*
X5696284Y-4090315D01*
X5639715Y-4090315D01*
X5639715Y-4146884D01*
X5696284Y-4146884D01*
X5696284Y-4400885D02*
X5696284Y-4344316D01*
X5639715Y-4344316D01*
X5639715Y-4400885D01*
X5696284Y-4400885D01*
X5696284Y-4654885D02*
X5696284Y-4598316D01*
X5639715Y-4598316D01*
X5639715Y-4654885D01*
X5696284Y-4654885D01*
X5696284Y-4908885D02*
X5696284Y-4852316D01*
X5639715Y-4852316D01*
X5639715Y-4908885D01*
X5696284Y-4908885D01*
X6323384Y-387784D02*
X6323384Y-331216D01*
X6266815Y-331216D01*
X6266815Y-387784D01*
X6323384Y-387784D01*
X6331284Y-870284D02*
X6331284Y-813715D01*
X6274715Y-813715D01*
X6274715Y-870284D01*
X6331284Y-870284D01*
X6331284Y-2394285D02*
X6331284Y-2337716D01*
X6274715Y-2337716D01*
X6274715Y-2394285D01*
X6331284Y-2394285D01*
X6331284Y-3130884D02*
X6331284Y-3074315D01*
X6274715Y-3074315D01*
X6274715Y-3130884D01*
X6331284Y-3130884D01*
X6331284Y-3384884D02*
X6331284Y-3328315D01*
X6274715Y-3328315D01*
X6274715Y-3384884D01*
X6331284Y-3384884D01*
X6331284Y-3638884D02*
X6331284Y-3582315D01*
X6274715Y-3582315D01*
X6274715Y-3638884D01*
X6331284Y-3638884D01*
X6331284Y-3892884D02*
X6331284Y-3836315D01*
X6274715Y-3836315D01*
X6274715Y-3892884D01*
X6331284Y-3892884D01*
X6331284Y-4146884D02*
X6331284Y-4090315D01*
X6274715Y-4090315D01*
X6274715Y-4146884D01*
X6331284Y-4146884D01*
X6331284Y-4400885D02*
X6331284Y-4344316D01*
X6274715Y-4344316D01*
X6274715Y-4400885D01*
X6331284Y-4400885D01*
X6331284Y-4654885D02*
X6331284Y-4598316D01*
X6274715Y-4598316D01*
X6274715Y-4654885D01*
X6331284Y-4654885D01*
X6331284Y-4908885D02*
X6331284Y-4852316D01*
X6274715Y-4852316D01*
X6274715Y-4908885D01*
X6331284Y-4908885D01*
X6585284Y-870284D02*
X6585284Y-813715D01*
X6528715Y-813715D01*
X6528715Y-870284D01*
X6585284Y-870284D01*
X6585284Y-2394285D02*
X6585284Y-2337716D01*
X6528715Y-2337716D01*
X6528715Y-2394285D01*
X6585284Y-2394285D01*
X6839284Y-870284D02*
X6839284Y-813715D01*
X6782715Y-813715D01*
X6782715Y-870284D01*
X6839284Y-870284D01*
X6839284Y-2394285D02*
X6839284Y-2337716D01*
X6782715Y-2337716D01*
X6782715Y-2394285D01*
X6839284Y-2394285D01*
X7059984Y-4553385D02*
X7059984Y-4496816D01*
X7003415Y-4496816D01*
X7003415Y-4553385D01*
X7059984Y-4553385D01*
X7059984Y-4807385D02*
X7059984Y-4750816D01*
X7003415Y-4750816D01*
X7003415Y-4807385D01*
X7059984Y-4807385D01*
X7059984Y-5061385D02*
X7059984Y-5004816D01*
X7003415Y-5004816D01*
X7003415Y-5061385D01*
X7059984Y-5061385D01*
X7085384Y-387784D02*
X7085384Y-331216D01*
X7028815Y-331216D01*
X7028815Y-387784D01*
X7085384Y-387784D01*
X7093284Y-870284D02*
X7093284Y-813715D01*
X7036715Y-813715D01*
X7036715Y-870284D01*
X7093284Y-870284D01*
X7093284Y-2394285D02*
X7093284Y-2337716D01*
X7036715Y-2337716D01*
X7036715Y-2394285D01*
X7093284Y-2394285D01*
X7347284Y-870284D02*
X7347284Y-813715D01*
X7290715Y-813715D01*
X7290715Y-870284D01*
X7347284Y-870284D01*
X7347284Y-2394285D02*
X7347284Y-2337716D01*
X7290715Y-2337716D01*
X7290715Y-2394285D01*
X7347284Y-2394285D01*
X7601284Y-870284D02*
X7601284Y-813715D01*
X7544715Y-813715D01*
X7544715Y-870284D01*
X7601284Y-870284D01*
X7601284Y-2394285D02*
X7601284Y-2337716D01*
X7544715Y-2337716D01*
X7544715Y-2394285D01*
X7601284Y-2394285D01*
X7694984Y-4553385D02*
X7694984Y-4496816D01*
X7638415Y-4496816D01*
X7638415Y-4553385D01*
X7694984Y-4553385D01*
X7694984Y-4807385D02*
X7694984Y-4750816D01*
X7638415Y-4750816D01*
X7638415Y-4807385D01*
X7694984Y-4807385D01*
X7694984Y-5061385D02*
X7694984Y-5004816D01*
X7638415Y-5004816D01*
X7638415Y-5061385D01*
X7694984Y-5061385D01*
X7855284Y-870284D02*
X7855284Y-813715D01*
X7798715Y-813715D01*
X7798715Y-870284D01*
X7855284Y-870284D01*
X7855284Y-2394285D02*
X7855284Y-2337716D01*
X7798715Y-2337716D01*
X7798715Y-2394285D01*
X7855284Y-2394285D01*
X8109284Y-870284D02*
X8109284Y-813715D01*
X8052715Y-813715D01*
X8052715Y-870284D01*
X8109284Y-870284D01*
X8109284Y-2394285D02*
X8109284Y-2337716D01*
X8052715Y-2337716D01*
X8052715Y-2394285D01*
X8109284Y-2394285D01*
X8329984Y-4553385D02*
X8329984Y-4496816D01*
X8273415Y-4496816D01*
X8273415Y-4553385D01*
X8329984Y-4553385D01*
X8329984Y-4807385D02*
X8329984Y-4750816D01*
X8273415Y-4750816D01*
X8273415Y-4807385D01*
X8329984Y-4807385D01*
X8329984Y-5061385D02*
X8329984Y-5004816D01*
X8273415Y-5004816D01*
X8273415Y-5061385D01*
X8329984Y-5061385D01*
X8355384Y-387784D02*
X8355384Y-331216D01*
X8298815Y-331216D01*
X8298815Y-387784D01*
X8355384Y-387784D01*
X8363284Y-870284D02*
X8363284Y-813715D01*
X8306715Y-813715D01*
X8306715Y-870284D01*
X8363284Y-870284D01*
X8363284Y-2394285D02*
X8363284Y-2337716D01*
X8306715Y-2337716D01*
X8306715Y-2394285D01*
X8363284Y-2394285D01*
X8363284Y-2902284D02*
X8363284Y-2845715D01*
X8306715Y-2845715D01*
X8306715Y-2902284D01*
X8363284Y-2902284D01*
X8363284Y-3152284D02*
X8363284Y-3095715D01*
X8306715Y-3095715D01*
X8306715Y-3152284D01*
X8363284Y-3152284D01*
X8605385Y-387784D02*
X8605385Y-331216D01*
X8548816Y-331216D01*
X8548816Y-387784D01*
X8605385Y-387784D01*
X8617285Y-870284D02*
X8617285Y-813715D01*
X8560716Y-813715D01*
X8560716Y-870284D01*
X8617285Y-870284D01*
X8617285Y-2394285D02*
X8617285Y-2337716D01*
X8560716Y-2337716D01*
X8560716Y-2394285D01*
X8617285Y-2394285D01*
X8744285Y-2902284D02*
X8744285Y-2845715D01*
X8687716Y-2845715D01*
X8687716Y-2902284D01*
X8744285Y-2902284D01*
X8744285Y-3152284D02*
X8744285Y-3095715D01*
X8687716Y-3095715D01*
X8687716Y-3152284D01*
X8744285Y-3152284D01*
X8871285Y-870284D02*
X8871285Y-813715D01*
X8814716Y-813715D01*
X8814716Y-870284D01*
X8871285Y-870284D01*
X8871285Y-2394285D02*
X8871285Y-2337716D01*
X8814716Y-2337716D01*
X8814716Y-2394285D01*
X8871285Y-2394285D01*
X8964985Y-4553385D02*
X8964985Y-4496816D01*
X8908416Y-4496816D01*
X8908416Y-4553385D01*
X8964985Y-4553385D01*
X8964985Y-4807385D02*
X8964985Y-4750816D01*
X8908416Y-4750816D01*
X8908416Y-4807385D01*
X8964985Y-4807385D01*
X8964985Y-5061385D02*
X8964985Y-5004816D01*
X8908416Y-5004816D01*
X8908416Y-5061385D01*
X8964985Y-5061385D01*
X8990385Y-387784D02*
X8990385Y-331216D01*
X8933816Y-331216D01*
X8933816Y-387784D01*
X8990385Y-387784D01*
X9125285Y-870284D02*
X9125285Y-813715D01*
X9068716Y-813715D01*
X9068716Y-870284D01*
X9125285Y-870284D01*
X9125285Y-2394285D02*
X9125285Y-2337716D01*
X9068716Y-2337716D01*
X9068716Y-2394285D01*
X9125285Y-2394285D01*
X9379285Y-870284D02*
X9379285Y-813715D01*
X9322716Y-813715D01*
X9322716Y-870284D01*
X9379285Y-870284D01*
X9379285Y-2394285D02*
X9379285Y-2337716D01*
X9322716Y-2337716D01*
X9322716Y-2394285D01*
X9379285Y-2394285D01*
X9399285Y-2991284D02*
X9399285Y-2934715D01*
X9342716Y-2934715D01*
X9342716Y-2991284D01*
X9399285Y-2991284D01*
X9599985Y-4553385D02*
X9599985Y-4496816D01*
X9543416Y-4496816D01*
X9543416Y-4553385D01*
X9599985Y-4553385D01*
X9599985Y-4807385D02*
X9599985Y-4750816D01*
X9543416Y-4750816D01*
X9543416Y-4807385D01*
X9599985Y-4807385D01*
X9599985Y-5061385D02*
X9599985Y-5004816D01*
X9543416Y-5004816D01*
X9543416Y-5061385D01*
X9599985Y-5061385D01*
X9633285Y-870284D02*
X9633285Y-813715D01*
X9576716Y-813715D01*
X9576716Y-870284D01*
X9633285Y-870284D01*
X9633285Y-2394285D02*
X9633285Y-2337716D01*
X9576716Y-2337716D01*
X9576716Y-2394285D01*
X9633285Y-2394285D01*
X9752385Y-387784D02*
X9752385Y-331216D01*
X9695816Y-331216D01*
X9695816Y-387784D01*
X9752385Y-387784D01*
X9887285Y-870284D02*
X9887285Y-813715D01*
X9830716Y-813715D01*
X9830716Y-870284D01*
X9887285Y-870284D01*
X9887285Y-2394285D02*
X9887285Y-2337716D01*
X9830716Y-2337716D01*
X9830716Y-2394285D01*
X9887285Y-2394285D01*
X9887285Y-2991284D02*
X9887285Y-2934715D01*
X9830716Y-2934715D01*
X9830716Y-2991284D01*
X9887285Y-2991284D01*
X10133385Y-387784D02*
X10133385Y-331216D01*
X10076816Y-331216D01*
X10076816Y-387784D01*
X10133385Y-387784D01*
X10141285Y-870284D02*
X10141285Y-813715D01*
X10084716Y-813715D01*
X10084716Y-870284D01*
X10141285Y-870284D01*
X10141285Y-2394285D02*
X10141285Y-2337716D01*
X10084716Y-2337716D01*
X10084716Y-2394285D01*
X10141285Y-2394285D01*
X10234985Y-4553385D02*
X10234985Y-4496816D01*
X10178416Y-4496816D01*
X10178416Y-4553385D01*
X10234985Y-4553385D01*
X10234985Y-4807385D02*
X10234985Y-4750816D01*
X10178416Y-4750816D01*
X10178416Y-4807385D01*
X10234985Y-4807385D01*
X10234985Y-5061385D02*
X10234985Y-5004816D01*
X10178416Y-5004816D01*
X10178416Y-5061385D01*
X10234985Y-5061385D01*
X10395285Y-870284D02*
X10395285Y-813715D01*
X10338716Y-813715D01*
X10338716Y-870284D01*
X10395285Y-870284D01*
X10395285Y-2394285D02*
X10395285Y-2337716D01*
X10338716Y-2337716D01*
X10338716Y-2394285D01*
X10395285Y-2394285D01*
X10522285Y-2902284D02*
X10522285Y-2845715D01*
X10465716Y-2845715D01*
X10465716Y-2902284D01*
X10522285Y-2902284D01*
X10522285Y-3152284D02*
X10522285Y-3095715D01*
X10465716Y-3095715D01*
X10465716Y-3152284D01*
X10522285Y-3152284D01*
X10649285Y-870284D02*
X10649285Y-813715D01*
X10592716Y-813715D01*
X10592716Y-870284D01*
X10649285Y-870284D01*
X10649285Y-2394285D02*
X10649285Y-2337716D01*
X10592716Y-2337716D01*
X10592716Y-2394285D01*
X10649285Y-2394285D01*
X10869985Y-4553385D02*
X10869985Y-4496816D01*
X10813416Y-4496816D01*
X10813416Y-4553385D01*
X10869985Y-4553385D01*
X10869985Y-4807385D02*
X10869985Y-4750816D01*
X10813416Y-4750816D01*
X10813416Y-4807385D01*
X10869985Y-4807385D01*
X10869985Y-5061385D02*
X10869985Y-5004816D01*
X10813416Y-5004816D01*
X10813416Y-5061385D01*
X10869985Y-5061385D01*
X10895385Y-387784D02*
X10895385Y-331216D01*
X10838816Y-331216D01*
X10838816Y-387784D01*
X10895385Y-387784D01*
X10903285Y-870284D02*
X10903285Y-813715D01*
X10846716Y-813715D01*
X10846716Y-870284D01*
X10903285Y-870284D01*
X10903285Y-2394285D02*
X10903285Y-2337716D01*
X10846716Y-2337716D01*
X10846716Y-2394285D01*
X10903285Y-2394285D01*
X10903285Y-2902284D02*
X10903285Y-2845715D01*
X10846716Y-2845715D01*
X10846716Y-2902284D01*
X10903285Y-2902284D01*
X10903285Y-3152284D02*
X10903285Y-3095715D01*
X10846716Y-3095715D01*
X10846716Y-3152284D01*
X10903285Y-3152284D01*
X11157285Y-870284D02*
X11157285Y-813715D01*
X11100716Y-813715D01*
X11100716Y-870284D01*
X11157285Y-870284D01*
X11157285Y-2394285D02*
X11157285Y-2337716D01*
X11100716Y-2337716D01*
X11100716Y-2394285D01*
X11157285Y-2394285D01*
X11504984Y-4553385D02*
X11504984Y-4496816D01*
X11448415Y-4496816D01*
X11448415Y-4553385D01*
X11504984Y-4553385D01*
X11504984Y-4807385D02*
X11504984Y-4750816D01*
X11448415Y-4750816D01*
X11448415Y-4807385D01*
X11504984Y-4807385D01*
X11504984Y-5061385D02*
X11504984Y-5004816D01*
X11448415Y-5004816D01*
X11448415Y-5061385D01*
X11504984Y-5061385D01*
X12300284Y-2026084D02*
X12300284Y-1969515D01*
X12243715Y-1969515D01*
X12243715Y-2026084D01*
X12300284Y-2026084D01*
X12550284Y-2026084D02*
X12550284Y-1969515D01*
X12493715Y-1969515D01*
X12493715Y-2026084D01*
X12550284Y-2026084D01*
X12554284Y-3473784D02*
X12554284Y-3417215D01*
X12497715Y-3417215D01*
X12497715Y-3473784D01*
X12554284Y-3473784D01*
X12554284Y-4235785D02*
X12554284Y-4179215D01*
X12497715Y-4179215D01*
X12497715Y-4235785D01*
X12554284Y-4235785D01*
X7057100Y-3668400D02*
X7102100Y-3623400D01*
X7057100Y-3578400D01*
X7012100Y-3623400D01*
X7057100Y-3668400D01*
X7057100Y-3922400D02*
X7102100Y-3877400D01*
X7057100Y-3832400D01*
X7012100Y-3877400D01*
X7057100Y-3922400D01*
X7692100Y-3668400D02*
X7737100Y-3623400D01*
X7692100Y-3578400D01*
X7647100Y-3623400D01*
X7692100Y-3668400D01*
X7692100Y-3922400D02*
X7737100Y-3877400D01*
X7692100Y-3832400D01*
X7647100Y-3877400D01*
X7692100Y-3922400D01*
X8327100Y-3668400D02*
X8372100Y-3623400D01*
X8327100Y-3578400D01*
X8282100Y-3623400D01*
X8327100Y-3668400D01*
X8327100Y-3922400D02*
X8372100Y-3877400D01*
X8327100Y-3832400D01*
X8282100Y-3877400D01*
X8327100Y-3922400D01*
X8962100Y-3668400D02*
X9007100Y-3623400D01*
X8962100Y-3578400D01*
X8917100Y-3623400D01*
X8962100Y-3668400D01*
X8962100Y-3922400D02*
X9007100Y-3877400D01*
X8962100Y-3832400D01*
X8917100Y-3877400D01*
X8962100Y-3922400D01*
X9597100Y-3668400D02*
X9642100Y-3623400D01*
X9597100Y-3578400D01*
X9552100Y-3623400D01*
X9597100Y-3668400D01*
X9597100Y-3922400D02*
X9642100Y-3877400D01*
X9597100Y-3832400D01*
X9552100Y-3877400D01*
X9597100Y-3922400D01*
X10232100Y-3668400D02*
X10277100Y-3623400D01*
X10232100Y-3578400D01*
X10187100Y-3623400D01*
X10232100Y-3668400D01*
X10232100Y-3922400D02*
X10277100Y-3877400D01*
X10232100Y-3832400D01*
X10187100Y-3877400D01*
X10232100Y-3922400D01*
X10867100Y-3668400D02*
X10912100Y-3623400D01*
X10867100Y-3578400D01*
X10822100Y-3623400D01*
X10867100Y-3668400D01*
X10867100Y-3922400D02*
X10912100Y-3877400D01*
X10867100Y-3832400D01*
X10822100Y-3877400D01*
X10867100Y-3922400D01*
X11502100Y-3668400D02*
X11547100Y-3623400D01*
X11502100Y-3578400D01*
X11457100Y-3623400D01*
X11502100Y-3668400D01*
X11502100Y-3922400D02*
X11547100Y-3877400D01*
X11502100Y-3832400D01*
X11457100Y-3877400D01*
X11502100Y-3922400D01*
X12272000Y-2804800D02*
X12317000Y-2759800D01*
X12272000Y-2714800D01*
X12227000Y-2759800D01*
X12272000Y-2804800D01*
X12526000Y-2804800D02*
X12571000Y-2759800D01*
X12526000Y-2714800D01*
X12481000Y-2759800D01*
X12526000Y-2804800D01*
X3395500Y-309400D02*
X3495500Y-409400D01*
X3495500Y-309400D02*
X3395500Y-409400D01*
X3495500Y-359400D02*
G75*
G03*
X3495500Y-359400I-50000J0D01*
G01*
X3649500Y-309400D02*
X3749500Y-409400D01*
X3749500Y-309400D02*
X3649500Y-409400D01*
X3749500Y-359400D02*
G75*
G03*
X3749500Y-359400I-50000J0D01*
G01*
X3903500Y-309400D02*
X4003500Y-409400D01*
X4003500Y-309400D02*
X3903500Y-409400D01*
X4003500Y-359400D02*
G75*
G03*
X4003500Y-359400I-50000J0D01*
G01*
X4157500Y-309400D02*
X4257500Y-409400D01*
X4257500Y-309400D02*
X4157500Y-409400D01*
X4257500Y-359400D02*
G75*
G03*
X4257500Y-359400I-50000J0D01*
G01*
X4411500Y-309400D02*
X4511500Y-409400D01*
X4511500Y-309400D02*
X4411500Y-409400D01*
X4511500Y-359400D02*
G75*
G03*
X4511500Y-359400I-50000J0D01*
G01*
X4665500Y-309400D02*
X4765500Y-409400D01*
X4765500Y-309400D02*
X4665500Y-409400D01*
X4765500Y-359400D02*
G75*
G03*
X4765500Y-359400I-50000J0D01*
G01*
X906100Y-4546300D02*
X1016100Y-4656300D01*
X1016100Y-4546300D02*
X906100Y-4656300D01*
X961100Y-4546300D02*
X961100Y-4656300D01*
X906100Y-4601300D02*
X1016100Y-4601300D01*
X906100Y-4996300D02*
X1016100Y-5106300D01*
X1016100Y-4996300D02*
X906100Y-5106300D01*
X961100Y-4996300D02*
X961100Y-5106300D01*
X906100Y-5051300D02*
X1016100Y-5051300D01*
X1556100Y-4546300D02*
X1666100Y-4656300D01*
X1666100Y-4546300D02*
X1556100Y-4656300D01*
X1611100Y-4546300D02*
X1611100Y-4656300D01*
X1556100Y-4601300D02*
X1666100Y-4601300D01*
X1556100Y-4996300D02*
X1666100Y-5106300D01*
X1666100Y-4996300D02*
X1556100Y-5106300D01*
X1611100Y-4996300D02*
X1611100Y-5106300D01*
X1556100Y-5051300D02*
X1666100Y-5051300D01*
X2468200Y-4546300D02*
X2578200Y-4656300D01*
X2578200Y-4546300D02*
X2468200Y-4656300D01*
X2523200Y-4546300D02*
X2523200Y-4656300D01*
X2468200Y-4601300D02*
X2578200Y-4601300D01*
X2468200Y-4996300D02*
X2578200Y-5106300D01*
X2578200Y-4996300D02*
X2468200Y-5106300D01*
X2523200Y-4996300D02*
X2523200Y-5106300D01*
X2468200Y-5051300D02*
X2578200Y-5051300D01*
X3118200Y-4546300D02*
X3228200Y-4656300D01*
X3228200Y-4546300D02*
X3118200Y-4656300D01*
X3173200Y-4546300D02*
X3173200Y-4656300D01*
X3118200Y-4601300D02*
X3228200Y-4601300D01*
X3118200Y-4996300D02*
X3228200Y-5106300D01*
X3228200Y-4996300D02*
X3118200Y-5106300D01*
X3173200Y-4996300D02*
X3173200Y-5106300D01*
X3118200Y-5051300D02*
X3228200Y-5051300D01*
X4017600Y-4546300D02*
X4127600Y-4656300D01*
X4127600Y-4546300D02*
X4017600Y-4656300D01*
X4072600Y-4546300D02*
X4072600Y-4656300D01*
X4017600Y-4601300D02*
X4127600Y-4601300D01*
X4017600Y-4996300D02*
X4127600Y-5106300D01*
X4127600Y-4996300D02*
X4017600Y-5106300D01*
X4072600Y-4996300D02*
X4072600Y-5106300D01*
X4017600Y-5051300D02*
X4127600Y-5051300D01*
X4667600Y-4546300D02*
X4777600Y-4656300D01*
X4777600Y-4546300D02*
X4667600Y-4656300D01*
X4722600Y-4546300D02*
X4722600Y-4656300D01*
X4667600Y-4601300D02*
X4777600Y-4601300D01*
X4667600Y-4996300D02*
X4777600Y-5106300D01*
X4777600Y-4996300D02*
X4667600Y-5106300D01*
X4722600Y-4996300D02*
X4722600Y-5106300D01*
X4667600Y-5051300D02*
X4777600Y-5051300D01*
D12*
X276428Y-5975714D02*
X276428Y-5675714D01*
X347857Y-5675714D01*
X390714Y-5690000D01*
X419286Y-5718571D01*
X433571Y-5747143D01*
X447857Y-5804286D01*
X447857Y-5847143D01*
X433571Y-5904286D01*
X419286Y-5932857D01*
X390714Y-5961429D01*
X347857Y-5975714D01*
X276428Y-5975714D01*
X576428Y-5975714D02*
X576428Y-5775714D01*
X576428Y-5832857D02*
X590714Y-5804286D01*
X605000Y-5790000D01*
X633571Y-5775714D01*
X662143Y-5775714D01*
X762143Y-5975714D02*
X762143Y-5775714D01*
X762143Y-5675714D02*
X747857Y-5690000D01*
X762143Y-5704286D01*
X776428Y-5690000D01*
X762143Y-5675714D01*
X762143Y-5704286D01*
X947857Y-5975714D02*
X919286Y-5961429D01*
X905000Y-5932857D01*
X905000Y-5675714D01*
X1105000Y-5975714D02*
X1076428Y-5961429D01*
X1062143Y-5932857D01*
X1062143Y-5675714D01*
X1447857Y-5975714D02*
X1447857Y-5675714D01*
X1547857Y-5890000D01*
X1647857Y-5675714D01*
X1647857Y-5975714D01*
X1919286Y-5975714D02*
X1919286Y-5818571D01*
X1905000Y-5790000D01*
X1876428Y-5775714D01*
X1819286Y-5775714D01*
X1790714Y-5790000D01*
X1919286Y-5961429D02*
X1890714Y-5975714D01*
X1819286Y-5975714D01*
X1790714Y-5961429D01*
X1776428Y-5932857D01*
X1776428Y-5904286D01*
X1790714Y-5875714D01*
X1819286Y-5861429D01*
X1890714Y-5861429D01*
X1919286Y-5847143D01*
X2062143Y-5775714D02*
X2062143Y-6075714D01*
X2062143Y-5790000D02*
X2090714Y-5775714D01*
X2147857Y-5775714D01*
X2176428Y-5790000D01*
X2190714Y-5804286D01*
X2205000Y-5832857D01*
X2205000Y-5918571D01*
X2190714Y-5947143D01*
X2176428Y-5961429D01*
X2147857Y-5975714D01*
X2090714Y-5975714D01*
X2062143Y-5961429D01*
X2333571Y-5947143D02*
X2347857Y-5961429D01*
X2333571Y-5975714D01*
X2319286Y-5961429D01*
X2333571Y-5947143D01*
X2333571Y-5975714D01*
X2333571Y-5790000D02*
X2347857Y-5804286D01*
X2333571Y-5818571D01*
X2319286Y-5804286D01*
X2333571Y-5790000D01*
X2333571Y-5818571D01*
X-40000Y-6455000D02*
X-10000Y-6485000D01*
X-10000Y-6455000D02*
X-40000Y-6485000D01*
X333571Y-6305714D02*
X362143Y-6305714D01*
X390714Y-6320000D01*
X405000Y-6334286D01*
X419286Y-6362857D01*
X433571Y-6420000D01*
X433571Y-6491429D01*
X419286Y-6548571D01*
X405000Y-6577143D01*
X390714Y-6591429D01*
X362143Y-6605714D01*
X333571Y-6605714D01*
X305000Y-6591429D01*
X290714Y-6577143D01*
X276428Y-6548571D01*
X262143Y-6491429D01*
X262143Y-6420000D01*
X276428Y-6362857D01*
X290714Y-6334286D01*
X305000Y-6320000D01*
X333571Y-6305714D01*
X562143Y-6577143D02*
X576428Y-6591429D01*
X562143Y-6605714D01*
X547857Y-6591429D01*
X562143Y-6577143D01*
X562143Y-6605714D01*
X676428Y-6305714D02*
X862143Y-6305714D01*
X762143Y-6420000D01*
X805000Y-6420000D01*
X833571Y-6434286D01*
X847857Y-6448571D01*
X862143Y-6477143D01*
X862143Y-6548571D01*
X847857Y-6577143D01*
X833571Y-6591429D01*
X805000Y-6605714D01*
X719286Y-6605714D01*
X690714Y-6591429D01*
X676428Y-6577143D01*
X1047857Y-6305714D02*
X1076428Y-6305714D01*
X1105000Y-6320000D01*
X1119286Y-6334286D01*
X1133571Y-6362857D01*
X1147857Y-6420000D01*
X1147857Y-6491429D01*
X1133571Y-6548571D01*
X1119286Y-6577143D01*
X1105000Y-6591429D01*
X1076428Y-6605714D01*
X1047857Y-6605714D01*
X1019286Y-6591429D01*
X1005000Y-6577143D01*
X990714Y-6548571D01*
X976428Y-6491429D01*
X976428Y-6420000D01*
X990714Y-6362857D01*
X1005000Y-6334286D01*
X1019286Y-6320000D01*
X1047857Y-6305714D01*
X1333571Y-6305714D02*
X1362143Y-6305714D01*
X1390714Y-6320000D01*
X1405000Y-6334286D01*
X1419286Y-6362857D01*
X1433571Y-6420000D01*
X1433571Y-6491429D01*
X1419286Y-6548571D01*
X1405000Y-6577143D01*
X1390714Y-6591429D01*
X1362143Y-6605714D01*
X1333571Y-6605714D01*
X1305000Y-6591429D01*
X1290714Y-6577143D01*
X1276428Y-6548571D01*
X1262143Y-6491429D01*
X1262143Y-6420000D01*
X1276428Y-6362857D01*
X1290714Y-6334286D01*
X1305000Y-6320000D01*
X1333571Y-6305714D01*
X1562143Y-6605714D02*
X1562143Y-6405714D01*
X1562143Y-6434286D02*
X1576428Y-6420000D01*
X1605000Y-6405714D01*
X1647857Y-6405714D01*
X1676428Y-6420000D01*
X1690714Y-6448571D01*
X1690714Y-6605714D01*
X1690714Y-6448571D02*
X1705000Y-6420000D01*
X1733571Y-6405714D01*
X1776428Y-6405714D01*
X1805000Y-6420000D01*
X1819286Y-6448571D01*
X1819286Y-6605714D01*
X1962143Y-6605714D02*
X1962143Y-6405714D01*
X1962143Y-6434286D02*
X1976428Y-6420000D01*
X2005000Y-6405714D01*
X2047857Y-6405714D01*
X2076428Y-6420000D01*
X2090714Y-6448571D01*
X2090714Y-6605714D01*
X2090714Y-6448571D02*
X2105000Y-6420000D01*
X2133571Y-6405714D01*
X2176428Y-6405714D01*
X2205000Y-6420000D01*
X2219286Y-6448571D01*
X2219286Y-6605714D01*
X2805000Y-6291429D02*
X2547857Y-6677143D01*
X3190714Y-6305714D02*
X3219286Y-6305714D01*
X3247857Y-6320000D01*
X3262143Y-6334286D01*
X3276428Y-6362857D01*
X3290714Y-6420000D01*
X3290714Y-6491429D01*
X3276428Y-6548571D01*
X3262143Y-6577143D01*
X3247857Y-6591429D01*
X3219286Y-6605714D01*
X3190714Y-6605714D01*
X3162143Y-6591429D01*
X3147857Y-6577143D01*
X3133571Y-6548571D01*
X3119286Y-6491429D01*
X3119286Y-6420000D01*
X3133571Y-6362857D01*
X3147857Y-6334286D01*
X3162143Y-6320000D01*
X3190714Y-6305714D01*
X3419286Y-6577143D02*
X3433571Y-6591429D01*
X3419286Y-6605714D01*
X3405000Y-6591429D01*
X3419286Y-6577143D01*
X3419286Y-6605714D01*
X3619286Y-6305714D02*
X3647857Y-6305714D01*
X3676428Y-6320000D01*
X3690714Y-6334286D01*
X3705000Y-6362857D01*
X3719286Y-6420000D01*
X3719286Y-6491429D01*
X3705000Y-6548571D01*
X3690714Y-6577143D01*
X3676428Y-6591429D01*
X3647857Y-6605714D01*
X3619286Y-6605714D01*
X3590714Y-6591429D01*
X3576428Y-6577143D01*
X3562143Y-6548571D01*
X3547857Y-6491429D01*
X3547857Y-6420000D01*
X3562143Y-6362857D01*
X3576428Y-6334286D01*
X3590714Y-6320000D01*
X3619286Y-6305714D01*
X4005000Y-6605714D02*
X3833571Y-6605714D01*
X3919286Y-6605714D02*
X3919286Y-6305714D01*
X3890714Y-6348571D01*
X3862143Y-6377143D01*
X3833571Y-6391429D01*
X4290714Y-6605714D02*
X4119286Y-6605714D01*
X4205000Y-6605714D02*
X4205000Y-6305714D01*
X4176428Y-6348571D01*
X4147857Y-6377143D01*
X4119286Y-6391429D01*
X4462143Y-6434286D02*
X4433571Y-6420000D01*
X4419286Y-6405714D01*
X4405000Y-6377143D01*
X4405000Y-6362857D01*
X4419286Y-6334286D01*
X4433571Y-6320000D01*
X4462143Y-6305714D01*
X4519286Y-6305714D01*
X4547857Y-6320000D01*
X4562143Y-6334286D01*
X4576428Y-6362857D01*
X4576428Y-6377143D01*
X4562143Y-6405714D01*
X4547857Y-6420000D01*
X4519286Y-6434286D01*
X4462143Y-6434286D01*
X4433571Y-6448571D01*
X4419286Y-6462857D01*
X4405000Y-6491429D01*
X4405000Y-6548571D01*
X4419286Y-6577143D01*
X4433571Y-6591429D01*
X4462143Y-6605714D01*
X4519286Y-6605714D01*
X4547857Y-6591429D01*
X4562143Y-6577143D01*
X4576428Y-6548571D01*
X4576428Y-6491429D01*
X4562143Y-6462857D01*
X4547857Y-6448571D01*
X4519286Y-6434286D01*
X4690714Y-6305714D02*
X4690714Y-6362857D01*
X4805000Y-6305714D02*
X4805000Y-6362857D01*
X5247857Y-6720000D02*
X5233571Y-6705714D01*
X5205000Y-6662857D01*
X5190714Y-6634286D01*
X5176428Y-6591429D01*
X5162143Y-6520000D01*
X5162143Y-6462857D01*
X5176428Y-6391429D01*
X5190714Y-6348571D01*
X5205000Y-6320000D01*
X5233571Y-6277143D01*
X5247857Y-6262857D01*
X5490714Y-6405714D02*
X5490714Y-6605714D01*
X5419286Y-6291429D02*
X5347857Y-6505714D01*
X5533571Y-6505714D01*
X5805000Y-6605714D02*
X5633571Y-6605714D01*
X5719286Y-6605714D02*
X5719286Y-6305714D01*
X5690714Y-6348571D01*
X5662143Y-6377143D01*
X5633571Y-6391429D01*
X6162143Y-6605714D02*
X6162143Y-6305714D01*
X6290714Y-6605714D02*
X6290714Y-6448571D01*
X6276428Y-6420000D01*
X6247857Y-6405714D01*
X6205000Y-6405714D01*
X6176428Y-6420000D01*
X6162143Y-6434286D01*
X6476428Y-6605714D02*
X6447857Y-6591429D01*
X6433571Y-6577143D01*
X6419286Y-6548571D01*
X6419286Y-6462857D01*
X6433571Y-6434286D01*
X6447857Y-6420000D01*
X6476428Y-6405714D01*
X6519286Y-6405714D01*
X6547857Y-6420000D01*
X6562143Y-6434286D01*
X6576428Y-6462857D01*
X6576428Y-6548571D01*
X6562143Y-6577143D01*
X6547857Y-6591429D01*
X6519286Y-6605714D01*
X6476428Y-6605714D01*
X6747857Y-6605714D02*
X6719286Y-6591429D01*
X6705000Y-6562857D01*
X6705000Y-6305714D01*
X6976428Y-6591429D02*
X6947857Y-6605714D01*
X6890714Y-6605714D01*
X6862143Y-6591429D01*
X6847857Y-6562857D01*
X6847857Y-6448571D01*
X6862143Y-6420000D01*
X6890714Y-6405714D01*
X6947857Y-6405714D01*
X6976428Y-6420000D01*
X6990714Y-6448571D01*
X6990714Y-6477143D01*
X6847857Y-6505714D01*
X7105000Y-6591429D02*
X7133571Y-6605714D01*
X7190714Y-6605714D01*
X7219286Y-6591429D01*
X7233571Y-6562857D01*
X7233571Y-6548571D01*
X7219286Y-6520000D01*
X7190714Y-6505714D01*
X7147857Y-6505714D01*
X7119286Y-6491429D01*
X7105000Y-6462857D01*
X7105000Y-6448571D01*
X7119286Y-6420000D01*
X7147857Y-6405714D01*
X7190714Y-6405714D01*
X7219286Y-6420000D01*
X7333571Y-6720000D02*
X7347857Y-6705714D01*
X7376428Y-6662857D01*
X7390714Y-6634286D01*
X7405000Y-6591429D01*
X7419286Y-6520000D01*
X7419286Y-6462857D01*
X7405000Y-6391429D01*
X7390714Y-6348571D01*
X7376428Y-6320000D01*
X7347857Y-6277143D01*
X7333571Y-6262857D01*
X-10000Y-6866000D02*
G75*
G03*
X-10000Y-6866000I-30000J0D01*
G01*
X333571Y-6701714D02*
X362143Y-6701714D01*
X390714Y-6716000D01*
X405000Y-6730286D01*
X419286Y-6758857D01*
X433571Y-6816000D01*
X433571Y-6887429D01*
X419286Y-6944571D01*
X405000Y-6973143D01*
X390714Y-6987429D01*
X362143Y-7001714D01*
X333571Y-7001714D01*
X305000Y-6987429D01*
X290714Y-6973143D01*
X276428Y-6944571D01*
X262143Y-6887429D01*
X262143Y-6816000D01*
X276428Y-6758857D01*
X290714Y-6730286D01*
X305000Y-6716000D01*
X333571Y-6701714D01*
X562143Y-6973143D02*
X576428Y-6987429D01*
X562143Y-7001714D01*
X547857Y-6987429D01*
X562143Y-6973143D01*
X562143Y-7001714D01*
X833571Y-6701714D02*
X776428Y-6701714D01*
X747857Y-6716000D01*
X733571Y-6730286D01*
X705000Y-6773143D01*
X690714Y-6830286D01*
X690714Y-6944571D01*
X705000Y-6973143D01*
X719286Y-6987429D01*
X747857Y-7001714D01*
X805000Y-7001714D01*
X833571Y-6987429D01*
X847857Y-6973143D01*
X862143Y-6944571D01*
X862143Y-6873143D01*
X847857Y-6844571D01*
X833571Y-6830286D01*
X805000Y-6816000D01*
X747857Y-6816000D01*
X719286Y-6830286D01*
X705000Y-6844571D01*
X690714Y-6873143D01*
X1047857Y-6701714D02*
X1076428Y-6701714D01*
X1105000Y-6716000D01*
X1119286Y-6730286D01*
X1133571Y-6758857D01*
X1147857Y-6816000D01*
X1147857Y-6887429D01*
X1133571Y-6944571D01*
X1119286Y-6973143D01*
X1105000Y-6987429D01*
X1076428Y-7001714D01*
X1047857Y-7001714D01*
X1019286Y-6987429D01*
X1005000Y-6973143D01*
X990714Y-6944571D01*
X976428Y-6887429D01*
X976428Y-6816000D01*
X990714Y-6758857D01*
X1005000Y-6730286D01*
X1019286Y-6716000D01*
X1047857Y-6701714D01*
X1333571Y-6701714D02*
X1362143Y-6701714D01*
X1390714Y-6716000D01*
X1405000Y-6730286D01*
X1419286Y-6758857D01*
X1433571Y-6816000D01*
X1433571Y-6887429D01*
X1419286Y-6944571D01*
X1405000Y-6973143D01*
X1390714Y-6987429D01*
X1362143Y-7001714D01*
X1333571Y-7001714D01*
X1305000Y-6987429D01*
X1290714Y-6973143D01*
X1276428Y-6944571D01*
X1262143Y-6887429D01*
X1262143Y-6816000D01*
X1276428Y-6758857D01*
X1290714Y-6730286D01*
X1305000Y-6716000D01*
X1333571Y-6701714D01*
X1562143Y-7001714D02*
X1562143Y-6801714D01*
X1562143Y-6830286D02*
X1576428Y-6816000D01*
X1605000Y-6801714D01*
X1647857Y-6801714D01*
X1676428Y-6816000D01*
X1690714Y-6844571D01*
X1690714Y-7001714D01*
X1690714Y-6844571D02*
X1705000Y-6816000D01*
X1733571Y-6801714D01*
X1776428Y-6801714D01*
X1805000Y-6816000D01*
X1819286Y-6844571D01*
X1819286Y-7001714D01*
X1962143Y-7001714D02*
X1962143Y-6801714D01*
X1962143Y-6830286D02*
X1976428Y-6816000D01*
X2005000Y-6801714D01*
X2047857Y-6801714D01*
X2076428Y-6816000D01*
X2090714Y-6844571D01*
X2090714Y-7001714D01*
X2090714Y-6844571D02*
X2105000Y-6816000D01*
X2133571Y-6801714D01*
X2176428Y-6801714D01*
X2205000Y-6816000D01*
X2219286Y-6844571D01*
X2219286Y-7001714D01*
X2805000Y-6687429D02*
X2547857Y-7073143D01*
X3190714Y-6701714D02*
X3219286Y-6701714D01*
X3247857Y-6716000D01*
X3262143Y-6730286D01*
X3276428Y-6758857D01*
X3290714Y-6816000D01*
X3290714Y-6887429D01*
X3276428Y-6944571D01*
X3262143Y-6973143D01*
X3247857Y-6987429D01*
X3219286Y-7001714D01*
X3190714Y-7001714D01*
X3162143Y-6987429D01*
X3147857Y-6973143D01*
X3133571Y-6944571D01*
X3119286Y-6887429D01*
X3119286Y-6816000D01*
X3133571Y-6758857D01*
X3147857Y-6730286D01*
X3162143Y-6716000D01*
X3190714Y-6701714D01*
X3419286Y-6973143D02*
X3433571Y-6987429D01*
X3419286Y-7001714D01*
X3405000Y-6987429D01*
X3419286Y-6973143D01*
X3419286Y-7001714D01*
X3619286Y-6701714D02*
X3647857Y-6701714D01*
X3676428Y-6716000D01*
X3690714Y-6730286D01*
X3705000Y-6758857D01*
X3719286Y-6816000D01*
X3719286Y-6887429D01*
X3705000Y-6944571D01*
X3690714Y-6973143D01*
X3676428Y-6987429D01*
X3647857Y-7001714D01*
X3619286Y-7001714D01*
X3590714Y-6987429D01*
X3576428Y-6973143D01*
X3562143Y-6944571D01*
X3547857Y-6887429D01*
X3547857Y-6816000D01*
X3562143Y-6758857D01*
X3576428Y-6730286D01*
X3590714Y-6716000D01*
X3619286Y-6701714D01*
X3833571Y-6730286D02*
X3847857Y-6716000D01*
X3876428Y-6701714D01*
X3947857Y-6701714D01*
X3976428Y-6716000D01*
X3990714Y-6730286D01*
X4005000Y-6758857D01*
X4005000Y-6787429D01*
X3990714Y-6830286D01*
X3819286Y-7001714D01*
X4005000Y-7001714D01*
X4105000Y-6701714D02*
X4290714Y-6701714D01*
X4190714Y-6816000D01*
X4233571Y-6816000D01*
X4262143Y-6830286D01*
X4276428Y-6844571D01*
X4290714Y-6873143D01*
X4290714Y-6944571D01*
X4276428Y-6973143D01*
X4262143Y-6987429D01*
X4233571Y-7001714D01*
X4147857Y-7001714D01*
X4119286Y-6987429D01*
X4105000Y-6973143D01*
X4547857Y-6701714D02*
X4490714Y-6701714D01*
X4462143Y-6716000D01*
X4447857Y-6730286D01*
X4419286Y-6773143D01*
X4405000Y-6830286D01*
X4405000Y-6944571D01*
X4419286Y-6973143D01*
X4433571Y-6987429D01*
X4462143Y-7001714D01*
X4519286Y-7001714D01*
X4547857Y-6987429D01*
X4562143Y-6973143D01*
X4576428Y-6944571D01*
X4576428Y-6873143D01*
X4562143Y-6844571D01*
X4547857Y-6830286D01*
X4519286Y-6816000D01*
X4462143Y-6816000D01*
X4433571Y-6830286D01*
X4419286Y-6844571D01*
X4405000Y-6873143D01*
X4690714Y-6701714D02*
X4690714Y-6758857D01*
X4805000Y-6701714D02*
X4805000Y-6758857D01*
X5247857Y-7116000D02*
X5233571Y-7101714D01*
X5205000Y-7058857D01*
X5190714Y-7030286D01*
X5176428Y-6987429D01*
X5162143Y-6916000D01*
X5162143Y-6858857D01*
X5176428Y-6787429D01*
X5190714Y-6744571D01*
X5205000Y-6716000D01*
X5233571Y-6673143D01*
X5247857Y-6658857D01*
X5505000Y-6701714D02*
X5362143Y-6701714D01*
X5347857Y-6844571D01*
X5362143Y-6830286D01*
X5390714Y-6816000D01*
X5462143Y-6816000D01*
X5490714Y-6830286D01*
X5505000Y-6844571D01*
X5519286Y-6873143D01*
X5519286Y-6944571D01*
X5505000Y-6973143D01*
X5490714Y-6987429D01*
X5462143Y-7001714D01*
X5390714Y-7001714D01*
X5362143Y-6987429D01*
X5347857Y-6973143D01*
X5876428Y-7001714D02*
X5876428Y-6701714D01*
X6005000Y-7001714D02*
X6005000Y-6844571D01*
X5990714Y-6816000D01*
X5962143Y-6801714D01*
X5919286Y-6801714D01*
X5890714Y-6816000D01*
X5876428Y-6830286D01*
X6190714Y-7001714D02*
X6162143Y-6987429D01*
X6147857Y-6973143D01*
X6133571Y-6944571D01*
X6133571Y-6858857D01*
X6147857Y-6830286D01*
X6162143Y-6816000D01*
X6190714Y-6801714D01*
X6233571Y-6801714D01*
X6262143Y-6816000D01*
X6276428Y-6830286D01*
X6290714Y-6858857D01*
X6290714Y-6944571D01*
X6276428Y-6973143D01*
X6262143Y-6987429D01*
X6233571Y-7001714D01*
X6190714Y-7001714D01*
X6462143Y-7001714D02*
X6433571Y-6987429D01*
X6419286Y-6958857D01*
X6419286Y-6701714D01*
X6690714Y-6987429D02*
X6662143Y-7001714D01*
X6605000Y-7001714D01*
X6576428Y-6987429D01*
X6562143Y-6958857D01*
X6562143Y-6844571D01*
X6576428Y-6816000D01*
X6605000Y-6801714D01*
X6662143Y-6801714D01*
X6690714Y-6816000D01*
X6705000Y-6844571D01*
X6705000Y-6873143D01*
X6562143Y-6901714D01*
X6819286Y-6987429D02*
X6847857Y-7001714D01*
X6905000Y-7001714D01*
X6933571Y-6987429D01*
X6947857Y-6958857D01*
X6947857Y-6944571D01*
X6933571Y-6916000D01*
X6905000Y-6901714D01*
X6862143Y-6901714D01*
X6833571Y-6887429D01*
X6819286Y-6858857D01*
X6819286Y-6844571D01*
X6833571Y-6816000D01*
X6862143Y-6801714D01*
X6905000Y-6801714D01*
X6933571Y-6816000D01*
X7047857Y-7116000D02*
X7062143Y-7101714D01*
X7090714Y-7058857D01*
X7105000Y-7030286D01*
X7119286Y-6987429D01*
X7133571Y-6916000D01*
X7133571Y-6858857D01*
X7119286Y-6787429D01*
X7105000Y-6744571D01*
X7090714Y-6716000D01*
X7062143Y-6673143D01*
X7047857Y-6658857D01*
X-45000Y-7227000D02*
X-45000Y-7297000D01*
X-80000Y-7262000D02*
X-10000Y-7262000D01*
X333571Y-7097714D02*
X362143Y-7097714D01*
X390714Y-7112000D01*
X405000Y-7126286D01*
X419286Y-7154857D01*
X433571Y-7212000D01*
X433571Y-7283429D01*
X419286Y-7340571D01*
X405000Y-7369143D01*
X390714Y-7383429D01*
X362143Y-7397714D01*
X333571Y-7397714D01*
X305000Y-7383429D01*
X290714Y-7369143D01*
X276428Y-7340571D01*
X262143Y-7283429D01*
X262143Y-7212000D01*
X276428Y-7154857D01*
X290714Y-7126286D01*
X305000Y-7112000D01*
X333571Y-7097714D01*
X562143Y-7369143D02*
X576428Y-7383429D01*
X562143Y-7397714D01*
X547857Y-7383429D01*
X562143Y-7369143D01*
X562143Y-7397714D01*
X676428Y-7097714D02*
X876428Y-7097714D01*
X747857Y-7397714D01*
X1047857Y-7097714D02*
X1076428Y-7097714D01*
X1105000Y-7112000D01*
X1119286Y-7126286D01*
X1133571Y-7154857D01*
X1147857Y-7212000D01*
X1147857Y-7283429D01*
X1133571Y-7340571D01*
X1119286Y-7369143D01*
X1105000Y-7383429D01*
X1076428Y-7397714D01*
X1047857Y-7397714D01*
X1019286Y-7383429D01*
X1005000Y-7369143D01*
X990714Y-7340571D01*
X976428Y-7283429D01*
X976428Y-7212000D01*
X990714Y-7154857D01*
X1005000Y-7126286D01*
X1019286Y-7112000D01*
X1047857Y-7097714D01*
X1333571Y-7097714D02*
X1362143Y-7097714D01*
X1390714Y-7112000D01*
X1405000Y-7126286D01*
X1419286Y-7154857D01*
X1433571Y-7212000D01*
X1433571Y-7283429D01*
X1419286Y-7340571D01*
X1405000Y-7369143D01*
X1390714Y-7383429D01*
X1362143Y-7397714D01*
X1333571Y-7397714D01*
X1305000Y-7383429D01*
X1290714Y-7369143D01*
X1276428Y-7340571D01*
X1262143Y-7283429D01*
X1262143Y-7212000D01*
X1276428Y-7154857D01*
X1290714Y-7126286D01*
X1305000Y-7112000D01*
X1333571Y-7097714D01*
X1562143Y-7397714D02*
X1562143Y-7197714D01*
X1562143Y-7226286D02*
X1576428Y-7212000D01*
X1605000Y-7197714D01*
X1647857Y-7197714D01*
X1676428Y-7212000D01*
X1690714Y-7240571D01*
X1690714Y-7397714D01*
X1690714Y-7240571D02*
X1705000Y-7212000D01*
X1733571Y-7197714D01*
X1776428Y-7197714D01*
X1805000Y-7212000D01*
X1819286Y-7240571D01*
X1819286Y-7397714D01*
X1962143Y-7397714D02*
X1962143Y-7197714D01*
X1962143Y-7226286D02*
X1976428Y-7212000D01*
X2005000Y-7197714D01*
X2047857Y-7197714D01*
X2076428Y-7212000D01*
X2090714Y-7240571D01*
X2090714Y-7397714D01*
X2090714Y-7240571D02*
X2105000Y-7212000D01*
X2133571Y-7197714D01*
X2176428Y-7197714D01*
X2205000Y-7212000D01*
X2219286Y-7240571D01*
X2219286Y-7397714D01*
X2805000Y-7083429D02*
X2547857Y-7469143D01*
X3190714Y-7097714D02*
X3219286Y-7097714D01*
X3247857Y-7112000D01*
X3262143Y-7126286D01*
X3276428Y-7154857D01*
X3290714Y-7212000D01*
X3290714Y-7283429D01*
X3276428Y-7340571D01*
X3262143Y-7369143D01*
X3247857Y-7383429D01*
X3219286Y-7397714D01*
X3190714Y-7397714D01*
X3162143Y-7383429D01*
X3147857Y-7369143D01*
X3133571Y-7340571D01*
X3119286Y-7283429D01*
X3119286Y-7212000D01*
X3133571Y-7154857D01*
X3147857Y-7126286D01*
X3162143Y-7112000D01*
X3190714Y-7097714D01*
X3419286Y-7369143D02*
X3433571Y-7383429D01*
X3419286Y-7397714D01*
X3405000Y-7383429D01*
X3419286Y-7369143D01*
X3419286Y-7397714D01*
X3619286Y-7097714D02*
X3647857Y-7097714D01*
X3676428Y-7112000D01*
X3690714Y-7126286D01*
X3705000Y-7154857D01*
X3719286Y-7212000D01*
X3719286Y-7283429D01*
X3705000Y-7340571D01*
X3690714Y-7369143D01*
X3676428Y-7383429D01*
X3647857Y-7397714D01*
X3619286Y-7397714D01*
X3590714Y-7383429D01*
X3576428Y-7369143D01*
X3562143Y-7340571D01*
X3547857Y-7283429D01*
X3547857Y-7212000D01*
X3562143Y-7154857D01*
X3576428Y-7126286D01*
X3590714Y-7112000D01*
X3619286Y-7097714D01*
X3833571Y-7126286D02*
X3847857Y-7112000D01*
X3876428Y-7097714D01*
X3947857Y-7097714D01*
X3976428Y-7112000D01*
X3990714Y-7126286D01*
X4005000Y-7154857D01*
X4005000Y-7183429D01*
X3990714Y-7226286D01*
X3819286Y-7397714D01*
X4005000Y-7397714D01*
X4105000Y-7097714D02*
X4305000Y-7097714D01*
X4176428Y-7397714D01*
X4547857Y-7097714D02*
X4490714Y-7097714D01*
X4462143Y-7112000D01*
X4447857Y-7126286D01*
X4419286Y-7169143D01*
X4405000Y-7226286D01*
X4405000Y-7340571D01*
X4419286Y-7369143D01*
X4433571Y-7383429D01*
X4462143Y-7397714D01*
X4519286Y-7397714D01*
X4547857Y-7383429D01*
X4562143Y-7369143D01*
X4576428Y-7340571D01*
X4576428Y-7269143D01*
X4562143Y-7240571D01*
X4547857Y-7226286D01*
X4519286Y-7212000D01*
X4462143Y-7212000D01*
X4433571Y-7226286D01*
X4419286Y-7240571D01*
X4405000Y-7269143D01*
X4690714Y-7097714D02*
X4690714Y-7154857D01*
X4805000Y-7097714D02*
X4805000Y-7154857D01*
X5247857Y-7512000D02*
X5233571Y-7497714D01*
X5205000Y-7454857D01*
X5190714Y-7426286D01*
X5176428Y-7383429D01*
X5162143Y-7312000D01*
X5162143Y-7254857D01*
X5176428Y-7183429D01*
X5190714Y-7140571D01*
X5205000Y-7112000D01*
X5233571Y-7069143D01*
X5247857Y-7054857D01*
X5419286Y-7097714D02*
X5447857Y-7097714D01*
X5476428Y-7112000D01*
X5490714Y-7126286D01*
X5505000Y-7154857D01*
X5519286Y-7212000D01*
X5519286Y-7283429D01*
X5505000Y-7340571D01*
X5490714Y-7369143D01*
X5476428Y-7383429D01*
X5447857Y-7397714D01*
X5419286Y-7397714D01*
X5390714Y-7383429D01*
X5376428Y-7369143D01*
X5362143Y-7340571D01*
X5347857Y-7283429D01*
X5347857Y-7212000D01*
X5362143Y-7154857D01*
X5376428Y-7126286D01*
X5390714Y-7112000D01*
X5419286Y-7097714D01*
X5876428Y-7397714D02*
X5876428Y-7097714D01*
X6005000Y-7397714D02*
X6005000Y-7240571D01*
X5990714Y-7212000D01*
X5962143Y-7197714D01*
X5919286Y-7197714D01*
X5890714Y-7212000D01*
X5876428Y-7226286D01*
X6190714Y-7397714D02*
X6162143Y-7383429D01*
X6147857Y-7369143D01*
X6133571Y-7340571D01*
X6133571Y-7254857D01*
X6147857Y-7226286D01*
X6162143Y-7212000D01*
X6190714Y-7197714D01*
X6233571Y-7197714D01*
X6262143Y-7212000D01*
X6276428Y-7226286D01*
X6290714Y-7254857D01*
X6290714Y-7340571D01*
X6276428Y-7369143D01*
X6262143Y-7383429D01*
X6233571Y-7397714D01*
X6190714Y-7397714D01*
X6462143Y-7397714D02*
X6433571Y-7383429D01*
X6419286Y-7354857D01*
X6419286Y-7097714D01*
X6690714Y-7383429D02*
X6662143Y-7397714D01*
X6605000Y-7397714D01*
X6576428Y-7383429D01*
X6562143Y-7354857D01*
X6562143Y-7240571D01*
X6576428Y-7212000D01*
X6605000Y-7197714D01*
X6662143Y-7197714D01*
X6690714Y-7212000D01*
X6705000Y-7240571D01*
X6705000Y-7269143D01*
X6562143Y-7297714D01*
X6819286Y-7383429D02*
X6847857Y-7397714D01*
X6905000Y-7397714D01*
X6933571Y-7383429D01*
X6947857Y-7354857D01*
X6947857Y-7340571D01*
X6933571Y-7312000D01*
X6905000Y-7297714D01*
X6862143Y-7297714D01*
X6833571Y-7283429D01*
X6819286Y-7254857D01*
X6819286Y-7240571D01*
X6833571Y-7212000D01*
X6862143Y-7197714D01*
X6905000Y-7197714D01*
X6933571Y-7212000D01*
X7305000Y-7283429D02*
X7533571Y-7283429D01*
X7419286Y-7397714D02*
X7419286Y-7169143D01*
X7890714Y-7126286D02*
X7905000Y-7112000D01*
X7933571Y-7097714D01*
X8005000Y-7097714D01*
X8033571Y-7112000D01*
X8047857Y-7126286D01*
X8062143Y-7154857D01*
X8062143Y-7183429D01*
X8047857Y-7226286D01*
X7876428Y-7397714D01*
X8062143Y-7397714D01*
X8405000Y-7383429D02*
X8433571Y-7397714D01*
X8490714Y-7397714D01*
X8519286Y-7383429D01*
X8533571Y-7354857D01*
X8533571Y-7340571D01*
X8519286Y-7312000D01*
X8490714Y-7297714D01*
X8447857Y-7297714D01*
X8419286Y-7283429D01*
X8405000Y-7254857D01*
X8405000Y-7240571D01*
X8419286Y-7212000D01*
X8447857Y-7197714D01*
X8490714Y-7197714D01*
X8519286Y-7212000D01*
X8705000Y-7397714D02*
X8676428Y-7383429D01*
X8662143Y-7354857D01*
X8662143Y-7097714D01*
X8862143Y-7397714D02*
X8833571Y-7383429D01*
X8819286Y-7369143D01*
X8805000Y-7340571D01*
X8805000Y-7254857D01*
X8819286Y-7226286D01*
X8833571Y-7212000D01*
X8862143Y-7197714D01*
X8905000Y-7197714D01*
X8933571Y-7212000D01*
X8947857Y-7226286D01*
X8962143Y-7254857D01*
X8962143Y-7340571D01*
X8947857Y-7369143D01*
X8933571Y-7383429D01*
X8905000Y-7397714D01*
X8862143Y-7397714D01*
X9047857Y-7197714D02*
X9162143Y-7197714D01*
X9090714Y-7097714D02*
X9090714Y-7354857D01*
X9105000Y-7383429D01*
X9133571Y-7397714D01*
X9162143Y-7397714D01*
X9247857Y-7383429D02*
X9276428Y-7397714D01*
X9333571Y-7397714D01*
X9362143Y-7383429D01*
X9376428Y-7354857D01*
X9376428Y-7340571D01*
X9362143Y-7312000D01*
X9333571Y-7297714D01*
X9290714Y-7297714D01*
X9262143Y-7283429D01*
X9247857Y-7254857D01*
X9247857Y-7240571D01*
X9262143Y-7212000D01*
X9290714Y-7197714D01*
X9333571Y-7197714D01*
X9362143Y-7212000D01*
X9476428Y-7512000D02*
X9490714Y-7497714D01*
X9519286Y-7454857D01*
X9533571Y-7426286D01*
X9547857Y-7383429D01*
X9562143Y-7312000D01*
X9562143Y-7254857D01*
X9547857Y-7183429D01*
X9533571Y-7140571D01*
X9519286Y-7112000D01*
X9490714Y-7069143D01*
X9476428Y-7054857D01*
X-21716Y-7686285D02*
X-21716Y-7629716D01*
X-78285Y-7629716D01*
X-78285Y-7686285D01*
X-21716Y-7686285D01*
X333571Y-7493714D02*
X362143Y-7493714D01*
X390714Y-7508000D01*
X405000Y-7522286D01*
X419286Y-7550857D01*
X433571Y-7608000D01*
X433571Y-7679429D01*
X419286Y-7736571D01*
X405000Y-7765143D01*
X390714Y-7779429D01*
X362143Y-7793714D01*
X333571Y-7793714D01*
X305000Y-7779429D01*
X290714Y-7765143D01*
X276428Y-7736571D01*
X262143Y-7679429D01*
X262143Y-7608000D01*
X276428Y-7550857D01*
X290714Y-7522286D01*
X305000Y-7508000D01*
X333571Y-7493714D01*
X562143Y-7765143D02*
X576428Y-7779429D01*
X562143Y-7793714D01*
X547857Y-7779429D01*
X562143Y-7765143D01*
X562143Y-7793714D01*
X747857Y-7622286D02*
X719286Y-7608000D01*
X705000Y-7593714D01*
X690714Y-7565143D01*
X690714Y-7550857D01*
X705000Y-7522286D01*
X719286Y-7508000D01*
X747857Y-7493714D01*
X805000Y-7493714D01*
X833571Y-7508000D01*
X847857Y-7522286D01*
X862143Y-7550857D01*
X862143Y-7565143D01*
X847857Y-7593714D01*
X833571Y-7608000D01*
X805000Y-7622286D01*
X747857Y-7622286D01*
X719286Y-7636571D01*
X705000Y-7650857D01*
X690714Y-7679429D01*
X690714Y-7736571D01*
X705000Y-7765143D01*
X719286Y-7779429D01*
X747857Y-7793714D01*
X805000Y-7793714D01*
X833571Y-7779429D01*
X847857Y-7765143D01*
X862143Y-7736571D01*
X862143Y-7679429D01*
X847857Y-7650857D01*
X833571Y-7636571D01*
X805000Y-7622286D01*
X1047857Y-7493714D02*
X1076428Y-7493714D01*
X1105000Y-7508000D01*
X1119286Y-7522286D01*
X1133571Y-7550857D01*
X1147857Y-7608000D01*
X1147857Y-7679429D01*
X1133571Y-7736571D01*
X1119286Y-7765143D01*
X1105000Y-7779429D01*
X1076428Y-7793714D01*
X1047857Y-7793714D01*
X1019286Y-7779429D01*
X1005000Y-7765143D01*
X990714Y-7736571D01*
X976428Y-7679429D01*
X976428Y-7608000D01*
X990714Y-7550857D01*
X1005000Y-7522286D01*
X1019286Y-7508000D01*
X1047857Y-7493714D01*
X1333571Y-7493714D02*
X1362143Y-7493714D01*
X1390714Y-7508000D01*
X1405000Y-7522286D01*
X1419286Y-7550857D01*
X1433571Y-7608000D01*
X1433571Y-7679429D01*
X1419286Y-7736571D01*
X1405000Y-7765143D01*
X1390714Y-7779429D01*
X1362143Y-7793714D01*
X1333571Y-7793714D01*
X1305000Y-7779429D01*
X1290714Y-7765143D01*
X1276428Y-7736571D01*
X1262143Y-7679429D01*
X1262143Y-7608000D01*
X1276428Y-7550857D01*
X1290714Y-7522286D01*
X1305000Y-7508000D01*
X1333571Y-7493714D01*
X1562143Y-7793714D02*
X1562143Y-7593714D01*
X1562143Y-7622286D02*
X1576428Y-7608000D01*
X1605000Y-7593714D01*
X1647857Y-7593714D01*
X1676428Y-7608000D01*
X1690714Y-7636571D01*
X1690714Y-7793714D01*
X1690714Y-7636571D02*
X1705000Y-7608000D01*
X1733571Y-7593714D01*
X1776428Y-7593714D01*
X1805000Y-7608000D01*
X1819286Y-7636571D01*
X1819286Y-7793714D01*
X1962143Y-7793714D02*
X1962143Y-7593714D01*
X1962143Y-7622286D02*
X1976428Y-7608000D01*
X2005000Y-7593714D01*
X2047857Y-7593714D01*
X2076428Y-7608000D01*
X2090714Y-7636571D01*
X2090714Y-7793714D01*
X2090714Y-7636571D02*
X2105000Y-7608000D01*
X2133571Y-7593714D01*
X2176428Y-7593714D01*
X2205000Y-7608000D01*
X2219286Y-7636571D01*
X2219286Y-7793714D01*
X2805000Y-7479429D02*
X2547857Y-7865143D01*
X3190714Y-7493714D02*
X3219286Y-7493714D01*
X3247857Y-7508000D01*
X3262143Y-7522286D01*
X3276428Y-7550857D01*
X3290714Y-7608000D01*
X3290714Y-7679429D01*
X3276428Y-7736571D01*
X3262143Y-7765143D01*
X3247857Y-7779429D01*
X3219286Y-7793714D01*
X3190714Y-7793714D01*
X3162143Y-7779429D01*
X3147857Y-7765143D01*
X3133571Y-7736571D01*
X3119286Y-7679429D01*
X3119286Y-7608000D01*
X3133571Y-7550857D01*
X3147857Y-7522286D01*
X3162143Y-7508000D01*
X3190714Y-7493714D01*
X3419286Y-7765143D02*
X3433571Y-7779429D01*
X3419286Y-7793714D01*
X3405000Y-7779429D01*
X3419286Y-7765143D01*
X3419286Y-7793714D01*
X3619286Y-7493714D02*
X3647857Y-7493714D01*
X3676428Y-7508000D01*
X3690714Y-7522286D01*
X3705000Y-7550857D01*
X3719286Y-7608000D01*
X3719286Y-7679429D01*
X3705000Y-7736571D01*
X3690714Y-7765143D01*
X3676428Y-7779429D01*
X3647857Y-7793714D01*
X3619286Y-7793714D01*
X3590714Y-7779429D01*
X3576428Y-7765143D01*
X3562143Y-7736571D01*
X3547857Y-7679429D01*
X3547857Y-7608000D01*
X3562143Y-7550857D01*
X3576428Y-7522286D01*
X3590714Y-7508000D01*
X3619286Y-7493714D01*
X3819286Y-7493714D02*
X4005000Y-7493714D01*
X3905000Y-7608000D01*
X3947857Y-7608000D01*
X3976428Y-7622286D01*
X3990714Y-7636571D01*
X4005000Y-7665143D01*
X4005000Y-7736571D01*
X3990714Y-7765143D01*
X3976428Y-7779429D01*
X3947857Y-7793714D01*
X3862143Y-7793714D01*
X3833571Y-7779429D01*
X3819286Y-7765143D01*
X4290714Y-7793714D02*
X4119286Y-7793714D01*
X4205000Y-7793714D02*
X4205000Y-7493714D01*
X4176428Y-7536571D01*
X4147857Y-7565143D01*
X4119286Y-7579429D01*
X4562143Y-7493714D02*
X4419286Y-7493714D01*
X4405000Y-7636571D01*
X4419286Y-7622286D01*
X4447857Y-7608000D01*
X4519286Y-7608000D01*
X4547857Y-7622286D01*
X4562143Y-7636571D01*
X4576428Y-7665143D01*
X4576428Y-7736571D01*
X4562143Y-7765143D01*
X4547857Y-7779429D01*
X4519286Y-7793714D01*
X4447857Y-7793714D01*
X4419286Y-7779429D01*
X4405000Y-7765143D01*
X4690714Y-7493714D02*
X4690714Y-7550857D01*
X4805000Y-7493714D02*
X4805000Y-7550857D01*
X5247857Y-7908000D02*
X5233571Y-7893714D01*
X5205000Y-7850857D01*
X5190714Y-7822286D01*
X5176428Y-7779429D01*
X5162143Y-7708000D01*
X5162143Y-7650857D01*
X5176428Y-7579429D01*
X5190714Y-7536571D01*
X5205000Y-7508000D01*
X5233571Y-7465143D01*
X5247857Y-7450857D01*
X5519286Y-7793714D02*
X5347857Y-7793714D01*
X5433571Y-7793714D02*
X5433571Y-7493714D01*
X5405000Y-7536571D01*
X5376428Y-7565143D01*
X5347857Y-7579429D01*
X5790714Y-7493714D02*
X5647857Y-7493714D01*
X5633571Y-7636571D01*
X5647857Y-7622286D01*
X5676428Y-7608000D01*
X5747857Y-7608000D01*
X5776428Y-7622286D01*
X5790714Y-7636571D01*
X5805000Y-7665143D01*
X5805000Y-7736571D01*
X5790714Y-7765143D01*
X5776428Y-7779429D01*
X5747857Y-7793714D01*
X5676428Y-7793714D01*
X5647857Y-7779429D01*
X5633571Y-7765143D01*
X5990714Y-7493714D02*
X6019286Y-7493714D01*
X6047857Y-7508000D01*
X6062143Y-7522286D01*
X6076428Y-7550857D01*
X6090714Y-7608000D01*
X6090714Y-7679429D01*
X6076428Y-7736571D01*
X6062143Y-7765143D01*
X6047857Y-7779429D01*
X6019286Y-7793714D01*
X5990714Y-7793714D01*
X5962143Y-7779429D01*
X5947857Y-7765143D01*
X5933571Y-7736571D01*
X5919286Y-7679429D01*
X5919286Y-7608000D01*
X5933571Y-7550857D01*
X5947857Y-7522286D01*
X5962143Y-7508000D01*
X5990714Y-7493714D01*
X6447857Y-7793714D02*
X6447857Y-7493714D01*
X6576428Y-7793714D02*
X6576428Y-7636571D01*
X6562143Y-7608000D01*
X6533571Y-7593714D01*
X6490714Y-7593714D01*
X6462143Y-7608000D01*
X6447857Y-7622286D01*
X6762143Y-7793714D02*
X6733571Y-7779429D01*
X6719286Y-7765143D01*
X6705000Y-7736571D01*
X6705000Y-7650857D01*
X6719286Y-7622286D01*
X6733571Y-7608000D01*
X6762143Y-7593714D01*
X6805000Y-7593714D01*
X6833571Y-7608000D01*
X6847857Y-7622286D01*
X6862143Y-7650857D01*
X6862143Y-7736571D01*
X6847857Y-7765143D01*
X6833571Y-7779429D01*
X6805000Y-7793714D01*
X6762143Y-7793714D01*
X7033571Y-7793714D02*
X7005000Y-7779429D01*
X6990714Y-7750857D01*
X6990714Y-7493714D01*
X7262143Y-7779429D02*
X7233571Y-7793714D01*
X7176428Y-7793714D01*
X7147857Y-7779429D01*
X7133571Y-7750857D01*
X7133571Y-7636571D01*
X7147857Y-7608000D01*
X7176428Y-7593714D01*
X7233571Y-7593714D01*
X7262143Y-7608000D01*
X7276428Y-7636571D01*
X7276428Y-7665143D01*
X7133571Y-7693714D01*
X7390714Y-7779429D02*
X7419286Y-7793714D01*
X7476428Y-7793714D01*
X7505000Y-7779429D01*
X7519286Y-7750857D01*
X7519286Y-7736571D01*
X7505000Y-7708000D01*
X7476428Y-7693714D01*
X7433571Y-7693714D01*
X7405000Y-7679429D01*
X7390714Y-7650857D01*
X7390714Y-7636571D01*
X7405000Y-7608000D01*
X7433571Y-7593714D01*
X7476428Y-7593714D01*
X7505000Y-7608000D01*
X7619286Y-7908000D02*
X7633571Y-7893714D01*
X7662143Y-7850857D01*
X7676428Y-7822286D01*
X7690714Y-7779429D01*
X7705000Y-7708000D01*
X7705000Y-7650857D01*
X7690714Y-7579429D01*
X7676428Y-7536571D01*
X7662143Y-7508000D01*
X7633571Y-7465143D01*
X7619286Y-7450857D01*
X-55000Y-8099000D02*
X-10000Y-8054000D01*
X-55000Y-8009000D01*
X-100000Y-8054000D01*
X-55000Y-8099000D01*
X333571Y-7889714D02*
X362143Y-7889714D01*
X390714Y-7904000D01*
X405000Y-7918286D01*
X419286Y-7946857D01*
X433571Y-8004000D01*
X433571Y-8075429D01*
X419286Y-8132571D01*
X405000Y-8161143D01*
X390714Y-8175429D01*
X362143Y-8189714D01*
X333571Y-8189714D01*
X305000Y-8175429D01*
X290714Y-8161143D01*
X276428Y-8132571D01*
X262143Y-8075429D01*
X262143Y-8004000D01*
X276428Y-7946857D01*
X290714Y-7918286D01*
X305000Y-7904000D01*
X333571Y-7889714D01*
X562143Y-8161143D02*
X576428Y-8175429D01*
X562143Y-8189714D01*
X547857Y-8175429D01*
X562143Y-8161143D01*
X562143Y-8189714D01*
X719286Y-8189714D02*
X776428Y-8189714D01*
X805000Y-8175429D01*
X819286Y-8161143D01*
X847857Y-8118286D01*
X862143Y-8061143D01*
X862143Y-7946857D01*
X847857Y-7918286D01*
X833571Y-7904000D01*
X805000Y-7889714D01*
X747857Y-7889714D01*
X719286Y-7904000D01*
X705000Y-7918286D01*
X690714Y-7946857D01*
X690714Y-8018286D01*
X705000Y-8046857D01*
X719286Y-8061143D01*
X747857Y-8075429D01*
X805000Y-8075429D01*
X833571Y-8061143D01*
X847857Y-8046857D01*
X862143Y-8018286D01*
X1047857Y-7889714D02*
X1076428Y-7889714D01*
X1105000Y-7904000D01*
X1119286Y-7918286D01*
X1133571Y-7946857D01*
X1147857Y-8004000D01*
X1147857Y-8075429D01*
X1133571Y-8132571D01*
X1119286Y-8161143D01*
X1105000Y-8175429D01*
X1076428Y-8189714D01*
X1047857Y-8189714D01*
X1019286Y-8175429D01*
X1005000Y-8161143D01*
X990714Y-8132571D01*
X976428Y-8075429D01*
X976428Y-8004000D01*
X990714Y-7946857D01*
X1005000Y-7918286D01*
X1019286Y-7904000D01*
X1047857Y-7889714D01*
X1333571Y-7889714D02*
X1362143Y-7889714D01*
X1390714Y-7904000D01*
X1405000Y-7918286D01*
X1419286Y-7946857D01*
X1433571Y-8004000D01*
X1433571Y-8075429D01*
X1419286Y-8132571D01*
X1405000Y-8161143D01*
X1390714Y-8175429D01*
X1362143Y-8189714D01*
X1333571Y-8189714D01*
X1305000Y-8175429D01*
X1290714Y-8161143D01*
X1276428Y-8132571D01*
X1262143Y-8075429D01*
X1262143Y-8004000D01*
X1276428Y-7946857D01*
X1290714Y-7918286D01*
X1305000Y-7904000D01*
X1333571Y-7889714D01*
X1562143Y-8189714D02*
X1562143Y-7989714D01*
X1562143Y-8018286D02*
X1576428Y-8004000D01*
X1605000Y-7989714D01*
X1647857Y-7989714D01*
X1676428Y-8004000D01*
X1690714Y-8032571D01*
X1690714Y-8189714D01*
X1690714Y-8032571D02*
X1705000Y-8004000D01*
X1733571Y-7989714D01*
X1776428Y-7989714D01*
X1805000Y-8004000D01*
X1819286Y-8032571D01*
X1819286Y-8189714D01*
X1962143Y-8189714D02*
X1962143Y-7989714D01*
X1962143Y-8018286D02*
X1976428Y-8004000D01*
X2005000Y-7989714D01*
X2047857Y-7989714D01*
X2076428Y-8004000D01*
X2090714Y-8032571D01*
X2090714Y-8189714D01*
X2090714Y-8032571D02*
X2105000Y-8004000D01*
X2133571Y-7989714D01*
X2176428Y-7989714D01*
X2205000Y-8004000D01*
X2219286Y-8032571D01*
X2219286Y-8189714D01*
X2805000Y-7875429D02*
X2547857Y-8261143D01*
X3190714Y-7889714D02*
X3219286Y-7889714D01*
X3247857Y-7904000D01*
X3262143Y-7918286D01*
X3276428Y-7946857D01*
X3290714Y-8004000D01*
X3290714Y-8075429D01*
X3276428Y-8132571D01*
X3262143Y-8161143D01*
X3247857Y-8175429D01*
X3219286Y-8189714D01*
X3190714Y-8189714D01*
X3162143Y-8175429D01*
X3147857Y-8161143D01*
X3133571Y-8132571D01*
X3119286Y-8075429D01*
X3119286Y-8004000D01*
X3133571Y-7946857D01*
X3147857Y-7918286D01*
X3162143Y-7904000D01*
X3190714Y-7889714D01*
X3419286Y-8161143D02*
X3433571Y-8175429D01*
X3419286Y-8189714D01*
X3405000Y-8175429D01*
X3419286Y-8161143D01*
X3419286Y-8189714D01*
X3619286Y-7889714D02*
X3647857Y-7889714D01*
X3676428Y-7904000D01*
X3690714Y-7918286D01*
X3705000Y-7946857D01*
X3719286Y-8004000D01*
X3719286Y-8075429D01*
X3705000Y-8132571D01*
X3690714Y-8161143D01*
X3676428Y-8175429D01*
X3647857Y-8189714D01*
X3619286Y-8189714D01*
X3590714Y-8175429D01*
X3576428Y-8161143D01*
X3562143Y-8132571D01*
X3547857Y-8075429D01*
X3547857Y-8004000D01*
X3562143Y-7946857D01*
X3576428Y-7918286D01*
X3590714Y-7904000D01*
X3619286Y-7889714D01*
X3819286Y-7889714D02*
X4005000Y-7889714D01*
X3905000Y-8004000D01*
X3947857Y-8004000D01*
X3976428Y-8018286D01*
X3990714Y-8032571D01*
X4005000Y-8061143D01*
X4005000Y-8132571D01*
X3990714Y-8161143D01*
X3976428Y-8175429D01*
X3947857Y-8189714D01*
X3862143Y-8189714D01*
X3833571Y-8175429D01*
X3819286Y-8161143D01*
X4276428Y-7889714D02*
X4133571Y-7889714D01*
X4119286Y-8032571D01*
X4133571Y-8018286D01*
X4162143Y-8004000D01*
X4233571Y-8004000D01*
X4262143Y-8018286D01*
X4276428Y-8032571D01*
X4290714Y-8061143D01*
X4290714Y-8132571D01*
X4276428Y-8161143D01*
X4262143Y-8175429D01*
X4233571Y-8189714D01*
X4162143Y-8189714D01*
X4133571Y-8175429D01*
X4119286Y-8161143D01*
X4547857Y-7989714D02*
X4547857Y-8189714D01*
X4476428Y-7875429D02*
X4405000Y-8089714D01*
X4590714Y-8089714D01*
X4690714Y-7889714D02*
X4690714Y-7946857D01*
X4805000Y-7889714D02*
X4805000Y-7946857D01*
X5247857Y-8304000D02*
X5233571Y-8289714D01*
X5205000Y-8246857D01*
X5190714Y-8218286D01*
X5176428Y-8175429D01*
X5162143Y-8104000D01*
X5162143Y-8046857D01*
X5176428Y-7975429D01*
X5190714Y-7932571D01*
X5205000Y-7904000D01*
X5233571Y-7861143D01*
X5247857Y-7846857D01*
X5519286Y-8189714D02*
X5347857Y-8189714D01*
X5433571Y-8189714D02*
X5433571Y-7889714D01*
X5405000Y-7932571D01*
X5376428Y-7961143D01*
X5347857Y-7975429D01*
X5690714Y-8018286D02*
X5662143Y-8004000D01*
X5647857Y-7989714D01*
X5633571Y-7961143D01*
X5633571Y-7946857D01*
X5647857Y-7918286D01*
X5662143Y-7904000D01*
X5690714Y-7889714D01*
X5747857Y-7889714D01*
X5776428Y-7904000D01*
X5790714Y-7918286D01*
X5805000Y-7946857D01*
X5805000Y-7961143D01*
X5790714Y-7989714D01*
X5776428Y-8004000D01*
X5747857Y-8018286D01*
X5690714Y-8018286D01*
X5662143Y-8032571D01*
X5647857Y-8046857D01*
X5633571Y-8075429D01*
X5633571Y-8132571D01*
X5647857Y-8161143D01*
X5662143Y-8175429D01*
X5690714Y-8189714D01*
X5747857Y-8189714D01*
X5776428Y-8175429D01*
X5790714Y-8161143D01*
X5805000Y-8132571D01*
X5805000Y-8075429D01*
X5790714Y-8046857D01*
X5776428Y-8032571D01*
X5747857Y-8018286D01*
X6162143Y-8189714D02*
X6162143Y-7889714D01*
X6290714Y-8189714D02*
X6290714Y-8032571D01*
X6276428Y-8004000D01*
X6247857Y-7989714D01*
X6205000Y-7989714D01*
X6176428Y-8004000D01*
X6162143Y-8018286D01*
X6476428Y-8189714D02*
X6447857Y-8175429D01*
X6433571Y-8161143D01*
X6419286Y-8132571D01*
X6419286Y-8046857D01*
X6433571Y-8018286D01*
X6447857Y-8004000D01*
X6476428Y-7989714D01*
X6519286Y-7989714D01*
X6547857Y-8004000D01*
X6562143Y-8018286D01*
X6576428Y-8046857D01*
X6576428Y-8132571D01*
X6562143Y-8161143D01*
X6547857Y-8175429D01*
X6519286Y-8189714D01*
X6476428Y-8189714D01*
X6747857Y-8189714D02*
X6719286Y-8175429D01*
X6705000Y-8146857D01*
X6705000Y-7889714D01*
X6976428Y-8175429D02*
X6947857Y-8189714D01*
X6890714Y-8189714D01*
X6862143Y-8175429D01*
X6847857Y-8146857D01*
X6847857Y-8032571D01*
X6862143Y-8004000D01*
X6890714Y-7989714D01*
X6947857Y-7989714D01*
X6976428Y-8004000D01*
X6990714Y-8032571D01*
X6990714Y-8061143D01*
X6847857Y-8089714D01*
X7105000Y-8175429D02*
X7133571Y-8189714D01*
X7190714Y-8189714D01*
X7219286Y-8175429D01*
X7233571Y-8146857D01*
X7233571Y-8132571D01*
X7219286Y-8104000D01*
X7190714Y-8089714D01*
X7147857Y-8089714D01*
X7119286Y-8075429D01*
X7105000Y-8046857D01*
X7105000Y-8032571D01*
X7119286Y-8004000D01*
X7147857Y-7989714D01*
X7190714Y-7989714D01*
X7219286Y-8004000D01*
X7333571Y-8304000D02*
X7347857Y-8289714D01*
X7376428Y-8246857D01*
X7390714Y-8218286D01*
X7405000Y-8175429D01*
X7419286Y-8104000D01*
X7419286Y-8046857D01*
X7405000Y-7975429D01*
X7390714Y-7932571D01*
X7376428Y-7904000D01*
X7347857Y-7861143D01*
X7333571Y-7846857D01*
X-110000Y-8400000D02*
X-10000Y-8500000D01*
X-10000Y-8400000D02*
X-110000Y-8500000D01*
X-10000Y-8450000D02*
G75*
G03*
X-10000Y-8450000I-50000J0D01*
G01*
X433571Y-8585714D02*
X262143Y-8585714D01*
X347857Y-8585714D02*
X347857Y-8285714D01*
X319286Y-8328571D01*
X290714Y-8357143D01*
X262143Y-8371429D01*
X562143Y-8557143D02*
X576428Y-8571429D01*
X562143Y-8585714D01*
X547857Y-8571429D01*
X562143Y-8557143D01*
X562143Y-8585714D01*
X762143Y-8285714D02*
X790714Y-8285714D01*
X819286Y-8300000D01*
X833571Y-8314286D01*
X847857Y-8342857D01*
X862143Y-8400000D01*
X862143Y-8471429D01*
X847857Y-8528572D01*
X833571Y-8557143D01*
X819286Y-8571429D01*
X790714Y-8585714D01*
X762143Y-8585714D01*
X733571Y-8571429D01*
X719286Y-8557143D01*
X705000Y-8528572D01*
X690714Y-8471429D01*
X690714Y-8400000D01*
X705000Y-8342857D01*
X719286Y-8314286D01*
X733571Y-8300000D01*
X762143Y-8285714D01*
X1047857Y-8285714D02*
X1076428Y-8285714D01*
X1105000Y-8300000D01*
X1119286Y-8314286D01*
X1133571Y-8342857D01*
X1147857Y-8400000D01*
X1147857Y-8471429D01*
X1133571Y-8528572D01*
X1119286Y-8557143D01*
X1105000Y-8571429D01*
X1076428Y-8585714D01*
X1047857Y-8585714D01*
X1019286Y-8571429D01*
X1005000Y-8557143D01*
X990714Y-8528572D01*
X976428Y-8471429D01*
X976428Y-8400000D01*
X990714Y-8342857D01*
X1005000Y-8314286D01*
X1019286Y-8300000D01*
X1047857Y-8285714D01*
X1333571Y-8285714D02*
X1362143Y-8285714D01*
X1390714Y-8300000D01*
X1405000Y-8314286D01*
X1419286Y-8342857D01*
X1433571Y-8400000D01*
X1433571Y-8471429D01*
X1419286Y-8528572D01*
X1405000Y-8557143D01*
X1390714Y-8571429D01*
X1362143Y-8585714D01*
X1333571Y-8585714D01*
X1305000Y-8571429D01*
X1290714Y-8557143D01*
X1276428Y-8528572D01*
X1262143Y-8471429D01*
X1262143Y-8400000D01*
X1276428Y-8342857D01*
X1290714Y-8314286D01*
X1305000Y-8300000D01*
X1333571Y-8285714D01*
X1562143Y-8585714D02*
X1562143Y-8385714D01*
X1562143Y-8414286D02*
X1576428Y-8400000D01*
X1605000Y-8385714D01*
X1647857Y-8385714D01*
X1676428Y-8400000D01*
X1690714Y-8428572D01*
X1690714Y-8585714D01*
X1690714Y-8428572D02*
X1705000Y-8400000D01*
X1733571Y-8385714D01*
X1776428Y-8385714D01*
X1805000Y-8400000D01*
X1819286Y-8428572D01*
X1819286Y-8585714D01*
X1962143Y-8585714D02*
X1962143Y-8385714D01*
X1962143Y-8414286D02*
X1976428Y-8400000D01*
X2005000Y-8385714D01*
X2047857Y-8385714D01*
X2076428Y-8400000D01*
X2090714Y-8428572D01*
X2090714Y-8585714D01*
X2090714Y-8428572D02*
X2105000Y-8400000D01*
X2133571Y-8385714D01*
X2176428Y-8385714D01*
X2205000Y-8400000D01*
X2219286Y-8428572D01*
X2219286Y-8585714D01*
X2805000Y-8271429D02*
X2547857Y-8657143D01*
X3190714Y-8285714D02*
X3219286Y-8285714D01*
X3247857Y-8300000D01*
X3262143Y-8314286D01*
X3276428Y-8342857D01*
X3290714Y-8400000D01*
X3290714Y-8471429D01*
X3276428Y-8528572D01*
X3262143Y-8557143D01*
X3247857Y-8571429D01*
X3219286Y-8585714D01*
X3190714Y-8585714D01*
X3162143Y-8571429D01*
X3147857Y-8557143D01*
X3133571Y-8528572D01*
X3119286Y-8471429D01*
X3119286Y-8400000D01*
X3133571Y-8342857D01*
X3147857Y-8314286D01*
X3162143Y-8300000D01*
X3190714Y-8285714D01*
X3419286Y-8557143D02*
X3433571Y-8571429D01*
X3419286Y-8585714D01*
X3405000Y-8571429D01*
X3419286Y-8557143D01*
X3419286Y-8585714D01*
X3619286Y-8285714D02*
X3647857Y-8285714D01*
X3676428Y-8300000D01*
X3690714Y-8314286D01*
X3705000Y-8342857D01*
X3719286Y-8400000D01*
X3719286Y-8471429D01*
X3705000Y-8528572D01*
X3690714Y-8557143D01*
X3676428Y-8571429D01*
X3647857Y-8585714D01*
X3619286Y-8585714D01*
X3590714Y-8571429D01*
X3576428Y-8557143D01*
X3562143Y-8528572D01*
X3547857Y-8471429D01*
X3547857Y-8400000D01*
X3562143Y-8342857D01*
X3576428Y-8314286D01*
X3590714Y-8300000D01*
X3619286Y-8285714D01*
X3819286Y-8285714D02*
X4005000Y-8285714D01*
X3905000Y-8400000D01*
X3947857Y-8400000D01*
X3976428Y-8414286D01*
X3990714Y-8428572D01*
X4005000Y-8457143D01*
X4005000Y-8528572D01*
X3990714Y-8557143D01*
X3976428Y-8571429D01*
X3947857Y-8585714D01*
X3862143Y-8585714D01*
X3833571Y-8571429D01*
X3819286Y-8557143D01*
X4147857Y-8585714D02*
X4205000Y-8585714D01*
X4233571Y-8571429D01*
X4247857Y-8557143D01*
X4276428Y-8514286D01*
X4290714Y-8457143D01*
X4290714Y-8342857D01*
X4276428Y-8314286D01*
X4262143Y-8300000D01*
X4233571Y-8285714D01*
X4176428Y-8285714D01*
X4147857Y-8300000D01*
X4133571Y-8314286D01*
X4119286Y-8342857D01*
X4119286Y-8414286D01*
X4133571Y-8442857D01*
X4147857Y-8457143D01*
X4176428Y-8471429D01*
X4233571Y-8471429D01*
X4262143Y-8457143D01*
X4276428Y-8442857D01*
X4290714Y-8414286D01*
X4547857Y-8385714D02*
X4547857Y-8585714D01*
X4476428Y-8271429D02*
X4405000Y-8485714D01*
X4590714Y-8485714D01*
X4690714Y-8285714D02*
X4690714Y-8342857D01*
X4805000Y-8285714D02*
X4805000Y-8342857D01*
X5247857Y-8700000D02*
X5233571Y-8685714D01*
X5205000Y-8642857D01*
X5190714Y-8614286D01*
X5176428Y-8571429D01*
X5162143Y-8500000D01*
X5162143Y-8442857D01*
X5176428Y-8371429D01*
X5190714Y-8328571D01*
X5205000Y-8300000D01*
X5233571Y-8257143D01*
X5247857Y-8242857D01*
X5490714Y-8285714D02*
X5433571Y-8285714D01*
X5405000Y-8300000D01*
X5390714Y-8314286D01*
X5362143Y-8357143D01*
X5347857Y-8414286D01*
X5347857Y-8528572D01*
X5362143Y-8557143D01*
X5376428Y-8571429D01*
X5405000Y-8585714D01*
X5462143Y-8585714D01*
X5490714Y-8571429D01*
X5505000Y-8557143D01*
X5519286Y-8528572D01*
X5519286Y-8457143D01*
X5505000Y-8428572D01*
X5490714Y-8414286D01*
X5462143Y-8400000D01*
X5405000Y-8400000D01*
X5376428Y-8414286D01*
X5362143Y-8428572D01*
X5347857Y-8457143D01*
X5876428Y-8585714D02*
X5876428Y-8285714D01*
X6005000Y-8585714D02*
X6005000Y-8428572D01*
X5990714Y-8400000D01*
X5962143Y-8385714D01*
X5919286Y-8385714D01*
X5890714Y-8400000D01*
X5876428Y-8414286D01*
X6190714Y-8585714D02*
X6162143Y-8571429D01*
X6147857Y-8557143D01*
X6133571Y-8528572D01*
X6133571Y-8442857D01*
X6147857Y-8414286D01*
X6162143Y-8400000D01*
X6190714Y-8385714D01*
X6233571Y-8385714D01*
X6262143Y-8400000D01*
X6276428Y-8414286D01*
X6290714Y-8442857D01*
X6290714Y-8528572D01*
X6276428Y-8557143D01*
X6262143Y-8571429D01*
X6233571Y-8585714D01*
X6190714Y-8585714D01*
X6462143Y-8585714D02*
X6433571Y-8571429D01*
X6419286Y-8542857D01*
X6419286Y-8285714D01*
X6690714Y-8571429D02*
X6662143Y-8585714D01*
X6605000Y-8585714D01*
X6576428Y-8571429D01*
X6562143Y-8542857D01*
X6562143Y-8428572D01*
X6576428Y-8400000D01*
X6605000Y-8385714D01*
X6662143Y-8385714D01*
X6690714Y-8400000D01*
X6705000Y-8428572D01*
X6705000Y-8457143D01*
X6562143Y-8485714D01*
X6819286Y-8571429D02*
X6847857Y-8585714D01*
X6905000Y-8585714D01*
X6933571Y-8571429D01*
X6947857Y-8542857D01*
X6947857Y-8528572D01*
X6933571Y-8500000D01*
X6905000Y-8485714D01*
X6862143Y-8485714D01*
X6833571Y-8471429D01*
X6819286Y-8442857D01*
X6819286Y-8428572D01*
X6833571Y-8400000D01*
X6862143Y-8385714D01*
X6905000Y-8385714D01*
X6933571Y-8400000D01*
X7047857Y-8700000D02*
X7062143Y-8685714D01*
X7090714Y-8642857D01*
X7105000Y-8614286D01*
X7119286Y-8571429D01*
X7133571Y-8500000D01*
X7133571Y-8442857D01*
X7119286Y-8371429D01*
X7105000Y-8328571D01*
X7090714Y-8300000D01*
X7062143Y-8257143D01*
X7047857Y-8242857D01*
X-120000Y-8791000D02*
X-10000Y-8901000D01*
X-10000Y-8791000D02*
X-120000Y-8901000D01*
X-65000Y-8791000D02*
X-65000Y-8901000D01*
X-120000Y-8846000D02*
X-10000Y-8846000D01*
X433571Y-8981714D02*
X262143Y-8981714D01*
X347857Y-8981714D02*
X347857Y-8681714D01*
X319286Y-8724572D01*
X290714Y-8753143D01*
X262143Y-8767429D01*
X562143Y-8953143D02*
X576428Y-8967429D01*
X562143Y-8981714D01*
X547857Y-8967429D01*
X562143Y-8953143D01*
X562143Y-8981714D01*
X862143Y-8981714D02*
X690714Y-8981714D01*
X776428Y-8981714D02*
X776428Y-8681714D01*
X747857Y-8724572D01*
X719286Y-8753143D01*
X690714Y-8767429D01*
X1047857Y-8681714D02*
X1076428Y-8681714D01*
X1105000Y-8696000D01*
X1119286Y-8710286D01*
X1133571Y-8738857D01*
X1147857Y-8796000D01*
X1147857Y-8867429D01*
X1133571Y-8924572D01*
X1119286Y-8953143D01*
X1105000Y-8967429D01*
X1076428Y-8981714D01*
X1047857Y-8981714D01*
X1019286Y-8967429D01*
X1005000Y-8953143D01*
X990714Y-8924572D01*
X976428Y-8867429D01*
X976428Y-8796000D01*
X990714Y-8738857D01*
X1005000Y-8710286D01*
X1019286Y-8696000D01*
X1047857Y-8681714D01*
X1333571Y-8681714D02*
X1362143Y-8681714D01*
X1390714Y-8696000D01*
X1405000Y-8710286D01*
X1419286Y-8738857D01*
X1433571Y-8796000D01*
X1433571Y-8867429D01*
X1419286Y-8924572D01*
X1405000Y-8953143D01*
X1390714Y-8967429D01*
X1362143Y-8981714D01*
X1333571Y-8981714D01*
X1305000Y-8967429D01*
X1290714Y-8953143D01*
X1276428Y-8924572D01*
X1262143Y-8867429D01*
X1262143Y-8796000D01*
X1276428Y-8738857D01*
X1290714Y-8710286D01*
X1305000Y-8696000D01*
X1333571Y-8681714D01*
X1562143Y-8981714D02*
X1562143Y-8781714D01*
X1562143Y-8810286D02*
X1576428Y-8796000D01*
X1605000Y-8781714D01*
X1647857Y-8781714D01*
X1676428Y-8796000D01*
X1690714Y-8824572D01*
X1690714Y-8981714D01*
X1690714Y-8824572D02*
X1705000Y-8796000D01*
X1733571Y-8781714D01*
X1776428Y-8781714D01*
X1805000Y-8796000D01*
X1819286Y-8824572D01*
X1819286Y-8981714D01*
X1962143Y-8981714D02*
X1962143Y-8781714D01*
X1962143Y-8810286D02*
X1976428Y-8796000D01*
X2005000Y-8781714D01*
X2047857Y-8781714D01*
X2076428Y-8796000D01*
X2090714Y-8824572D01*
X2090714Y-8981714D01*
X2090714Y-8824572D02*
X2105000Y-8796000D01*
X2133571Y-8781714D01*
X2176428Y-8781714D01*
X2205000Y-8796000D01*
X2219286Y-8824572D01*
X2219286Y-8981714D01*
X2805000Y-8667429D02*
X2547857Y-9053143D01*
X3190714Y-8681714D02*
X3219286Y-8681714D01*
X3247857Y-8696000D01*
X3262143Y-8710286D01*
X3276428Y-8738857D01*
X3290714Y-8796000D01*
X3290714Y-8867429D01*
X3276428Y-8924572D01*
X3262143Y-8953143D01*
X3247857Y-8967429D01*
X3219286Y-8981714D01*
X3190714Y-8981714D01*
X3162143Y-8967429D01*
X3147857Y-8953143D01*
X3133571Y-8924572D01*
X3119286Y-8867429D01*
X3119286Y-8796000D01*
X3133571Y-8738857D01*
X3147857Y-8710286D01*
X3162143Y-8696000D01*
X3190714Y-8681714D01*
X3419286Y-8953143D02*
X3433571Y-8967429D01*
X3419286Y-8981714D01*
X3405000Y-8967429D01*
X3419286Y-8953143D01*
X3419286Y-8981714D01*
X3619286Y-8681714D02*
X3647857Y-8681714D01*
X3676428Y-8696000D01*
X3690714Y-8710286D01*
X3705000Y-8738857D01*
X3719286Y-8796000D01*
X3719286Y-8867429D01*
X3705000Y-8924572D01*
X3690714Y-8953143D01*
X3676428Y-8967429D01*
X3647857Y-8981714D01*
X3619286Y-8981714D01*
X3590714Y-8967429D01*
X3576428Y-8953143D01*
X3562143Y-8924572D01*
X3547857Y-8867429D01*
X3547857Y-8796000D01*
X3562143Y-8738857D01*
X3576428Y-8710286D01*
X3590714Y-8696000D01*
X3619286Y-8681714D01*
X3976428Y-8781714D02*
X3976428Y-8981714D01*
X3905000Y-8667429D02*
X3833571Y-8881714D01*
X4019286Y-8881714D01*
X4105000Y-8681714D02*
X4290714Y-8681714D01*
X4190714Y-8796000D01*
X4233571Y-8796000D01*
X4262143Y-8810286D01*
X4276428Y-8824572D01*
X4290714Y-8853143D01*
X4290714Y-8924572D01*
X4276428Y-8953143D01*
X4262143Y-8967429D01*
X4233571Y-8981714D01*
X4147857Y-8981714D01*
X4119286Y-8967429D01*
X4105000Y-8953143D01*
X4390714Y-8681714D02*
X4576428Y-8681714D01*
X4476428Y-8796000D01*
X4519286Y-8796000D01*
X4547857Y-8810286D01*
X4562143Y-8824572D01*
X4576428Y-8853143D01*
X4576428Y-8924572D01*
X4562143Y-8953143D01*
X4547857Y-8967429D01*
X4519286Y-8981714D01*
X4433571Y-8981714D01*
X4405000Y-8967429D01*
X4390714Y-8953143D01*
X4690714Y-8681714D02*
X4690714Y-8738857D01*
X4805000Y-8681714D02*
X4805000Y-8738857D01*
X5247857Y-9096000D02*
X5233571Y-9081714D01*
X5205000Y-9038857D01*
X5190714Y-9010286D01*
X5176428Y-8967429D01*
X5162143Y-8896000D01*
X5162143Y-8838857D01*
X5176428Y-8767429D01*
X5190714Y-8724572D01*
X5205000Y-8696000D01*
X5233571Y-8653143D01*
X5247857Y-8638857D01*
X5519286Y-8981714D02*
X5347857Y-8981714D01*
X5433571Y-8981714D02*
X5433571Y-8681714D01*
X5405000Y-8724572D01*
X5376428Y-8753143D01*
X5347857Y-8767429D01*
X5633571Y-8710286D02*
X5647857Y-8696000D01*
X5676428Y-8681714D01*
X5747857Y-8681714D01*
X5776428Y-8696000D01*
X5790714Y-8710286D01*
X5805000Y-8738857D01*
X5805000Y-8767429D01*
X5790714Y-8810286D01*
X5619286Y-8981714D01*
X5805000Y-8981714D01*
X6162143Y-8981714D02*
X6162143Y-8681714D01*
X6290714Y-8981714D02*
X6290714Y-8824572D01*
X6276428Y-8796000D01*
X6247857Y-8781714D01*
X6205000Y-8781714D01*
X6176428Y-8796000D01*
X6162143Y-8810286D01*
X6476428Y-8981714D02*
X6447857Y-8967429D01*
X6433571Y-8953143D01*
X6419286Y-8924572D01*
X6419286Y-8838857D01*
X6433571Y-8810286D01*
X6447857Y-8796000D01*
X6476428Y-8781714D01*
X6519286Y-8781714D01*
X6547857Y-8796000D01*
X6562143Y-8810286D01*
X6576428Y-8838857D01*
X6576428Y-8924572D01*
X6562143Y-8953143D01*
X6547857Y-8967429D01*
X6519286Y-8981714D01*
X6476428Y-8981714D01*
X6747857Y-8981714D02*
X6719286Y-8967429D01*
X6705000Y-8938857D01*
X6705000Y-8681714D01*
X6976428Y-8967429D02*
X6947857Y-8981714D01*
X6890714Y-8981714D01*
X6862143Y-8967429D01*
X6847857Y-8938857D01*
X6847857Y-8824572D01*
X6862143Y-8796000D01*
X6890714Y-8781714D01*
X6947857Y-8781714D01*
X6976428Y-8796000D01*
X6990714Y-8824572D01*
X6990714Y-8853143D01*
X6847857Y-8881714D01*
X7105000Y-8967429D02*
X7133571Y-8981714D01*
X7190714Y-8981714D01*
X7219286Y-8967429D01*
X7233571Y-8938857D01*
X7233571Y-8924572D01*
X7219286Y-8896000D01*
X7190714Y-8881714D01*
X7147857Y-8881714D01*
X7119286Y-8867429D01*
X7105000Y-8838857D01*
X7105000Y-8824572D01*
X7119286Y-8796000D01*
X7147857Y-8781714D01*
X7190714Y-8781714D01*
X7219286Y-8796000D01*
X7333571Y-9096000D02*
X7347857Y-9081714D01*
X7376428Y-9038857D01*
X7390714Y-9010286D01*
X7405000Y-8967429D01*
X7419286Y-8896000D01*
X7419286Y-8838857D01*
X7405000Y-8767429D01*
X7390714Y-8724572D01*
X7376428Y-8696000D01*
X7347857Y-8653143D01*
X7333571Y-8638857D01*
M02*
